M48
;GenerationSoftware,Autodesk,EAGLE,9.5.2*%
;CreationDate,2020-01-18T00:32:20Z*%
FMAT,2
ICI,OFF
METRIC,TZ,000.000
T3C0.350
T2C0.800
T1C1.100
%
G90
M71
T1
X32440Y7910
X32440Y12410
T2
X32110Y16010
X31710Y16010
X32910Y16010
X33310Y16010
X32110Y4310
X31710Y4310
X32910Y4310
X33310Y4310
X32510Y4310
X32510Y16010
T3
X21946Y13716
X28194Y12649
X25298Y11735
X27737Y9296
X20574Y12649
X20574Y7620
X19812Y11125
X19812Y5182
X29566Y14935
X25756Y15545
X22860Y10516
X24841Y8534
X24841Y5029
X29108Y12649
M30