M48
;GenerationSoftware,Autodesk,EAGLE,9.5.2*%
;CreationDate,2020-01-14T23:32:34Z*%
FMAT,2
ICI,OFF
METRIC,TZ,000.000
T4C0.350
T3C0.800
T2C1.016
T1C1.100
%
G90
M71
T1
X34980Y32730
X34980Y28230
T2
X8890Y24130
X8890Y26670
X8890Y29210
X8890Y31750
X8890Y34290
X8890Y36830
X29210Y24130
X26670Y24130
X24130Y24130
T3
X35050Y36330
X34650Y36330
X34250Y36330
X35850Y36330
X34650Y24630
X34250Y24630
X35450Y24630
X35850Y24630
X35450Y36330
X35050Y24630
T4
X16307Y25908
X20879Y27737
X24841Y35662
X28499Y33071
X19202Y30785
X14478Y26060
X26213Y29718
X20879Y25298
X11125Y24841
X31242Y30480
X29718Y33223
X23470Y33985
X15392Y25908
M30