G04 EAGLE Gerber RS-274X export*
G75*
%MOMM*%
%FSLAX34Y34*%
%LPD*%
%INTop Copper*%
%IPPOS*%
%AMOC8*
5,1,8,0,0,1.08239X$1,22.5*%
G01*
%ADD10R,0.700000X0.900000*%
%ADD11R,0.800000X1.200000*%
%ADD12R,0.630000X0.830000*%
%ADD13R,1.400000X1.400000*%
%ADD14R,0.609600X2.209800*%
%ADD15R,0.800000X0.800000*%
%ADD16R,2.500000X0.800000*%
%ADD17C,1.778000*%
%ADD18C,0.152400*%
%ADD19C,0.756400*%


D10*
X247800Y165100D03*
X234800Y165100D03*
D11*
X194200Y63500D03*
X212200Y63500D03*
D12*
X214700Y127000D03*
X191700Y127000D03*
X278200Y38100D03*
X255200Y38100D03*
D13*
X234900Y38100D03*
X196900Y38100D03*
D14*
X234950Y67818D03*
X247650Y67818D03*
X260350Y67818D03*
X273050Y67818D03*
X273050Y135128D03*
X260350Y135128D03*
X247650Y135128D03*
X234950Y135128D03*
D15*
X210700Y88900D03*
X195700Y88900D03*
X210700Y101600D03*
X195700Y101600D03*
D10*
X209700Y165100D03*
X196700Y165100D03*
X247800Y152400D03*
X234800Y152400D03*
X285900Y152400D03*
X272900Y152400D03*
X285900Y165100D03*
X272900Y165100D03*
X209700Y152400D03*
X196700Y152400D03*
D16*
X296900Y91330D03*
X296900Y111870D03*
X296900Y66092D03*
X296900Y136600D03*
D17*
X316210Y43100D02*
X333990Y43100D01*
X333990Y160100D02*
X316210Y160100D01*
D18*
X214884Y146304D02*
X214884Y137160D01*
X214884Y128016D01*
X214884Y146304D02*
X216408Y147828D01*
X216408Y158496D01*
X210312Y164592D01*
X214884Y128016D02*
X214700Y127000D01*
X210312Y164592D02*
X209700Y165100D01*
X274320Y152400D02*
X281940Y144780D01*
X281940Y126492D01*
X295656Y112776D01*
X274320Y152400D02*
X272900Y152400D01*
X295656Y112776D02*
X296900Y111870D01*
X219456Y137160D02*
X214884Y137160D01*
D19*
X219456Y137160D03*
X281940Y126492D03*
D18*
X278200Y38100D02*
X289560Y38100D01*
X313944Y62484D01*
X332232Y62484D01*
X341376Y71628D01*
X341376Y86868D01*
X332232Y96012D01*
X301752Y96012D01*
X297180Y91440D01*
X296900Y91330D01*
X252984Y147828D02*
X248412Y152400D01*
X252984Y147828D02*
X252984Y117348D01*
X277368Y92964D02*
X294132Y92964D01*
X295656Y91440D01*
X248412Y152400D02*
X247800Y152400D01*
X295656Y91440D02*
X296900Y91330D01*
D19*
X252984Y117348D03*
X277368Y92964D03*
D18*
X190500Y108204D02*
X190500Y126492D01*
X190500Y108204D02*
X188976Y106680D01*
X188976Y83820D01*
X201168Y71628D02*
X208788Y64008D01*
X201168Y71628D02*
X188976Y83820D01*
X208788Y64008D02*
X211836Y64008D01*
X190500Y126492D02*
X191700Y127000D01*
X211836Y64008D02*
X212200Y63500D01*
X243840Y27432D02*
X254508Y38100D01*
X243840Y27432D02*
X227076Y27432D01*
X213360Y41148D01*
X213360Y62484D01*
X254508Y38100D02*
X255200Y38100D01*
X213360Y62484D02*
X212200Y63500D01*
X208788Y129540D02*
X208788Y152400D01*
X208788Y129540D02*
X205740Y126492D01*
X205740Y76200D02*
X201168Y71628D01*
X208788Y152400D02*
X209700Y152400D01*
X236220Y166116D02*
X242316Y172212D01*
X252984Y172212D01*
X266700Y158496D01*
X266700Y91440D02*
X266700Y74676D01*
X266700Y91440D02*
X266700Y105156D01*
X266700Y158496D01*
X266700Y74676D02*
X272796Y68580D01*
X234800Y165100D02*
X236220Y166116D01*
X272796Y68580D02*
X273050Y67818D01*
X286512Y164592D02*
X291084Y164592D01*
X313944Y141732D01*
X330708Y141732D01*
X341376Y131064D01*
X341376Y117348D01*
X329184Y105156D01*
X266700Y105156D01*
X286512Y164592D02*
X285900Y165100D01*
X295656Y67056D02*
X274320Y67056D01*
X295656Y67056D02*
X296900Y66092D01*
X274320Y67056D02*
X273050Y67818D01*
X240792Y91440D02*
X213360Y64008D01*
X240792Y91440D02*
X266700Y91440D01*
X213360Y64008D02*
X212200Y63500D01*
D19*
X205740Y126492D03*
X205740Y76200D03*
D18*
X240792Y158496D02*
X246888Y164592D01*
X240792Y158496D02*
X240792Y140208D01*
X236220Y135636D01*
X246888Y164592D02*
X247800Y165100D01*
X236220Y135636D02*
X234950Y135128D01*
X196596Y109728D02*
X196596Y102108D01*
X196596Y109728D02*
X198120Y111252D01*
X198120Y59436D02*
X198120Y51816D01*
X198120Y59436D02*
X195072Y62484D01*
X195700Y101600D02*
X196596Y102108D01*
X194200Y63500D02*
X195072Y62484D01*
X285900Y152400D02*
X292608Y152400D01*
X295656Y149352D01*
X198120Y51816D02*
X198120Y38100D01*
X196900Y38100D01*
X257556Y155448D02*
X248412Y164592D01*
X247800Y165100D01*
D19*
X198120Y111252D03*
X198120Y51816D03*
X295656Y149352D03*
X257556Y155448D03*
D18*
X210312Y178308D02*
X198120Y166116D01*
X210312Y178308D02*
X336804Y178308D01*
X348996Y166116D01*
X348996Y36576D01*
X339852Y27432D01*
X277368Y27432D01*
X254508Y50292D01*
X254508Y60960D01*
X247650Y67818D01*
X196700Y165100D02*
X198120Y166116D01*
X228600Y146304D02*
X234696Y152400D01*
X228600Y146304D02*
X228600Y105156D01*
X248412Y85344D02*
X259080Y74676D01*
X259080Y68580D01*
X234800Y152400D02*
X234696Y152400D01*
X259080Y68580D02*
X260350Y67818D01*
D19*
X228600Y105156D03*
X248412Y85344D03*
D18*
X210312Y89916D02*
X204216Y96012D01*
X204216Y118872D01*
X198120Y124968D01*
X198120Y152400D01*
X210312Y89916D02*
X210700Y88900D01*
X198120Y152400D02*
X196700Y152400D01*
X211836Y112776D02*
X211836Y102108D01*
X211836Y112776D02*
X225552Y126492D01*
X225552Y167640D01*
X233172Y175260D01*
X263652Y175260D01*
X272796Y166116D01*
X211836Y102108D02*
X210700Y101600D01*
X272900Y165100D02*
X272796Y166116D01*
X199644Y88392D02*
X196596Y88392D01*
X199644Y88392D02*
X205740Y82296D01*
X227076Y82296D01*
X259080Y114300D01*
X259080Y134112D01*
X196596Y88392D02*
X195700Y88900D01*
X259080Y134112D02*
X260350Y135128D01*
X248412Y50292D02*
X236220Y38100D01*
X291084Y126492D02*
X291084Y131064D01*
X295656Y135636D01*
X236220Y38100D02*
X234900Y38100D01*
X295656Y135636D02*
X296900Y136600D01*
D19*
X248412Y50292D03*
X291084Y126492D03*
M02*
