G04 EAGLE Gerber RS-274X export*
G75*
%MOMM*%
%FSLAX34Y34*%
%LPD*%
%INBottom Copper*%
%IPPOS*%
%AMOC8*
5,1,8,0,0,1.08239X$1,22.5*%
G01*
%ADD10C,1.778000*%
%ADD11C,0.152400*%
%ADD12C,0.756400*%


D10*
X316210Y43100D02*
X333990Y43100D01*
X333990Y160100D02*
X316210Y160100D01*
D11*
X271272Y137160D02*
X219456Y137160D01*
X271272Y137160D02*
X281940Y126492D01*
D12*
X219456Y137160D03*
X281940Y126492D03*
D11*
X252984Y117348D02*
X277368Y92964D01*
D12*
X252984Y117348D03*
X277368Y92964D03*
D11*
X205740Y76200D02*
X205740Y126492D01*
D12*
X205740Y126492D03*
X205740Y76200D03*
D11*
X198120Y51816D02*
X198120Y111252D01*
X219456Y149352D02*
X257556Y149352D01*
X295656Y149352D01*
X219456Y149352D02*
X198120Y128016D01*
X198120Y111252D01*
X257556Y149352D02*
X257556Y155448D01*
D12*
X198120Y111252D03*
X198120Y51816D03*
X295656Y149352D03*
X257556Y155448D03*
D11*
X228600Y105156D02*
X248412Y85344D01*
D12*
X228600Y105156D03*
X248412Y85344D03*
D11*
X248412Y54864D02*
X248412Y50292D01*
X248412Y54864D02*
X291084Y97536D01*
X291084Y126492D01*
D12*
X248412Y50292D03*
X291084Y126492D03*
M02*
