G04 EAGLE Gerber RS-274X export*
G75*
%MOMM*%
%FSLAX34Y34*%
%LPD*%
%IN*%
%IPPOS*%
%AMOC8*
5,1,8,0,0,1.08239X$1,22.5*%
G01*
%ADD10C,0.254000*%


D10*
X165100Y12700D02*
X365000Y12700D01*
X365000Y190400D01*
X165100Y190400D01*
X165100Y12700D01*
X318900Y79409D02*
X318969Y80023D01*
X319107Y80625D01*
X319311Y81208D01*
X319579Y81765D01*
X319907Y82288D01*
X320293Y82771D01*
X320729Y83208D01*
X321212Y83593D01*
X321735Y83921D01*
X322292Y84189D01*
X322875Y84393D01*
X323477Y84531D01*
X324091Y84600D01*
X324709Y84600D01*
X325323Y84531D01*
X325925Y84393D01*
X326508Y84189D01*
X327065Y83921D01*
X327588Y83593D01*
X328071Y83208D01*
X328508Y82771D01*
X328893Y82288D01*
X329221Y81765D01*
X329489Y81208D01*
X329693Y80625D01*
X329831Y80023D01*
X329900Y79409D01*
X329900Y78791D01*
X329831Y78177D01*
X329693Y77575D01*
X329489Y76992D01*
X329221Y76435D01*
X328893Y75912D01*
X328508Y75429D01*
X328071Y74993D01*
X327588Y74607D01*
X327065Y74279D01*
X326508Y74011D01*
X325925Y73807D01*
X325323Y73669D01*
X324709Y73600D01*
X324091Y73600D01*
X323477Y73669D01*
X322875Y73807D01*
X322292Y74011D01*
X321735Y74279D01*
X321212Y74607D01*
X320729Y74993D01*
X320293Y75429D01*
X319907Y75912D01*
X319579Y76435D01*
X319311Y76992D01*
X319107Y77575D01*
X318969Y78177D01*
X318900Y78791D01*
X318900Y79409D01*
X318900Y124409D02*
X318969Y125023D01*
X319107Y125625D01*
X319311Y126208D01*
X319579Y126765D01*
X319907Y127288D01*
X320293Y127771D01*
X320729Y128208D01*
X321212Y128593D01*
X321735Y128921D01*
X322292Y129189D01*
X322875Y129393D01*
X323477Y129531D01*
X324091Y129600D01*
X324709Y129600D01*
X325323Y129531D01*
X325925Y129393D01*
X326508Y129189D01*
X327065Y128921D01*
X327588Y128593D01*
X328071Y128208D01*
X328508Y127771D01*
X328893Y127288D01*
X329221Y126765D01*
X329489Y126208D01*
X329693Y125625D01*
X329831Y125023D01*
X329900Y124409D01*
X329900Y123791D01*
X329831Y123177D01*
X329693Y122575D01*
X329489Y121992D01*
X329221Y121435D01*
X328893Y120912D01*
X328508Y120429D01*
X328071Y119993D01*
X327588Y119607D01*
X327065Y119279D01*
X326508Y119011D01*
X325925Y118807D01*
X325323Y118669D01*
X324709Y118600D01*
X324091Y118600D01*
X323477Y118669D01*
X322875Y118807D01*
X322292Y119011D01*
X321735Y119279D01*
X321212Y119607D01*
X320729Y119993D01*
X320293Y120429D01*
X319907Y120912D01*
X319579Y121435D01*
X319311Y121992D01*
X319107Y122575D01*
X318969Y123177D01*
X318900Y123791D01*
X318900Y124409D01*
X317100Y160362D02*
X317168Y160882D01*
X317304Y161389D01*
X317505Y161873D01*
X317767Y162327D01*
X318086Y162743D01*
X318457Y163114D01*
X318873Y163433D01*
X319327Y163695D01*
X319811Y163896D01*
X320318Y164032D01*
X320838Y164100D01*
X321362Y164100D01*
X321882Y164032D01*
X322389Y163896D01*
X322873Y163695D01*
X323327Y163433D01*
X323743Y163114D01*
X324114Y162743D01*
X324433Y162327D01*
X324695Y161873D01*
X324896Y161389D01*
X325032Y160882D01*
X325100Y160362D01*
X325100Y159838D01*
X325032Y159318D01*
X324896Y158811D01*
X324695Y158327D01*
X324433Y157873D01*
X324114Y157457D01*
X323743Y157086D01*
X323327Y156767D01*
X322873Y156505D01*
X322389Y156304D01*
X321882Y156168D01*
X321362Y156100D01*
X320838Y156100D01*
X320318Y156168D01*
X319811Y156304D01*
X319327Y156505D01*
X318873Y156767D01*
X318457Y157086D01*
X318086Y157457D01*
X317767Y157873D01*
X317505Y158327D01*
X317304Y158811D01*
X317168Y159318D01*
X317100Y159838D01*
X317100Y160362D01*
X313100Y160362D02*
X313168Y160882D01*
X313304Y161389D01*
X313505Y161873D01*
X313767Y162327D01*
X314086Y162743D01*
X314457Y163114D01*
X314873Y163433D01*
X315327Y163695D01*
X315811Y163896D01*
X316318Y164032D01*
X316838Y164100D01*
X317362Y164100D01*
X317882Y164032D01*
X318389Y163896D01*
X318873Y163695D01*
X319327Y163433D01*
X319743Y163114D01*
X320114Y162743D01*
X320433Y162327D01*
X320695Y161873D01*
X320896Y161389D01*
X321032Y160882D01*
X321100Y160362D01*
X321100Y159838D01*
X321032Y159318D01*
X320896Y158811D01*
X320695Y158327D01*
X320433Y157873D01*
X320114Y157457D01*
X319743Y157086D01*
X319327Y156767D01*
X318873Y156505D01*
X318389Y156304D01*
X317882Y156168D01*
X317362Y156100D01*
X316838Y156100D01*
X316318Y156168D01*
X315811Y156304D01*
X315327Y156505D01*
X314873Y156767D01*
X314457Y157086D01*
X314086Y157457D01*
X313767Y157873D01*
X313505Y158327D01*
X313304Y158811D01*
X313168Y159318D01*
X313100Y159838D01*
X313100Y160362D01*
X325100Y160362D02*
X325168Y160882D01*
X325304Y161389D01*
X325505Y161873D01*
X325767Y162327D01*
X326086Y162743D01*
X326457Y163114D01*
X326873Y163433D01*
X327327Y163695D01*
X327811Y163896D01*
X328318Y164032D01*
X328838Y164100D01*
X329362Y164100D01*
X329882Y164032D01*
X330389Y163896D01*
X330873Y163695D01*
X331327Y163433D01*
X331743Y163114D01*
X332114Y162743D01*
X332433Y162327D01*
X332695Y161873D01*
X332896Y161389D01*
X333032Y160882D01*
X333100Y160362D01*
X333100Y159838D01*
X333032Y159318D01*
X332896Y158811D01*
X332695Y158327D01*
X332433Y157873D01*
X332114Y157457D01*
X331743Y157086D01*
X331327Y156767D01*
X330873Y156505D01*
X330389Y156304D01*
X329882Y156168D01*
X329362Y156100D01*
X328838Y156100D01*
X328318Y156168D01*
X327811Y156304D01*
X327327Y156505D01*
X326873Y156767D01*
X326457Y157086D01*
X326086Y157457D01*
X325767Y157873D01*
X325505Y158327D01*
X325304Y158811D01*
X325168Y159318D01*
X325100Y159838D01*
X325100Y160362D01*
X329100Y160362D02*
X329168Y160882D01*
X329304Y161389D01*
X329505Y161873D01*
X329767Y162327D01*
X330086Y162743D01*
X330457Y163114D01*
X330873Y163433D01*
X331327Y163695D01*
X331811Y163896D01*
X332318Y164032D01*
X332838Y164100D01*
X333362Y164100D01*
X333882Y164032D01*
X334389Y163896D01*
X334873Y163695D01*
X335327Y163433D01*
X335743Y163114D01*
X336114Y162743D01*
X336433Y162327D01*
X336695Y161873D01*
X336896Y161389D01*
X337032Y160882D01*
X337100Y160362D01*
X337100Y159838D01*
X337032Y159318D01*
X336896Y158811D01*
X336695Y158327D01*
X336433Y157873D01*
X336114Y157457D01*
X335743Y157086D01*
X335327Y156767D01*
X334873Y156505D01*
X334389Y156304D01*
X333882Y156168D01*
X333362Y156100D01*
X332838Y156100D01*
X332318Y156168D01*
X331811Y156304D01*
X331327Y156505D01*
X330873Y156767D01*
X330457Y157086D01*
X330086Y157457D01*
X329767Y157873D01*
X329505Y158327D01*
X329304Y158811D01*
X329168Y159318D01*
X329100Y159838D01*
X329100Y160362D01*
X317100Y43362D02*
X317168Y43882D01*
X317304Y44389D01*
X317505Y44873D01*
X317767Y45327D01*
X318086Y45743D01*
X318457Y46114D01*
X318873Y46433D01*
X319327Y46695D01*
X319811Y46896D01*
X320318Y47032D01*
X320838Y47100D01*
X321362Y47100D01*
X321882Y47032D01*
X322389Y46896D01*
X322873Y46695D01*
X323327Y46433D01*
X323743Y46114D01*
X324114Y45743D01*
X324433Y45327D01*
X324695Y44873D01*
X324896Y44389D01*
X325032Y43882D01*
X325100Y43362D01*
X325100Y42838D01*
X325032Y42318D01*
X324896Y41811D01*
X324695Y41327D01*
X324433Y40873D01*
X324114Y40457D01*
X323743Y40086D01*
X323327Y39767D01*
X322873Y39505D01*
X322389Y39304D01*
X321882Y39168D01*
X321362Y39100D01*
X320838Y39100D01*
X320318Y39168D01*
X319811Y39304D01*
X319327Y39505D01*
X318873Y39767D01*
X318457Y40086D01*
X318086Y40457D01*
X317767Y40873D01*
X317505Y41327D01*
X317304Y41811D01*
X317168Y42318D01*
X317100Y42838D01*
X317100Y43362D01*
X313100Y43362D02*
X313168Y43882D01*
X313304Y44389D01*
X313505Y44873D01*
X313767Y45327D01*
X314086Y45743D01*
X314457Y46114D01*
X314873Y46433D01*
X315327Y46695D01*
X315811Y46896D01*
X316318Y47032D01*
X316838Y47100D01*
X317362Y47100D01*
X317882Y47032D01*
X318389Y46896D01*
X318873Y46695D01*
X319327Y46433D01*
X319743Y46114D01*
X320114Y45743D01*
X320433Y45327D01*
X320695Y44873D01*
X320896Y44389D01*
X321032Y43882D01*
X321100Y43362D01*
X321100Y42838D01*
X321032Y42318D01*
X320896Y41811D01*
X320695Y41327D01*
X320433Y40873D01*
X320114Y40457D01*
X319743Y40086D01*
X319327Y39767D01*
X318873Y39505D01*
X318389Y39304D01*
X317882Y39168D01*
X317362Y39100D01*
X316838Y39100D01*
X316318Y39168D01*
X315811Y39304D01*
X315327Y39505D01*
X314873Y39767D01*
X314457Y40086D01*
X314086Y40457D01*
X313767Y40873D01*
X313505Y41327D01*
X313304Y41811D01*
X313168Y42318D01*
X313100Y42838D01*
X313100Y43362D01*
X325100Y43362D02*
X325168Y43882D01*
X325304Y44389D01*
X325505Y44873D01*
X325767Y45327D01*
X326086Y45743D01*
X326457Y46114D01*
X326873Y46433D01*
X327327Y46695D01*
X327811Y46896D01*
X328318Y47032D01*
X328838Y47100D01*
X329362Y47100D01*
X329882Y47032D01*
X330389Y46896D01*
X330873Y46695D01*
X331327Y46433D01*
X331743Y46114D01*
X332114Y45743D01*
X332433Y45327D01*
X332695Y44873D01*
X332896Y44389D01*
X333032Y43882D01*
X333100Y43362D01*
X333100Y42838D01*
X333032Y42318D01*
X332896Y41811D01*
X332695Y41327D01*
X332433Y40873D01*
X332114Y40457D01*
X331743Y40086D01*
X331327Y39767D01*
X330873Y39505D01*
X330389Y39304D01*
X329882Y39168D01*
X329362Y39100D01*
X328838Y39100D01*
X328318Y39168D01*
X327811Y39304D01*
X327327Y39505D01*
X326873Y39767D01*
X326457Y40086D01*
X326086Y40457D01*
X325767Y40873D01*
X325505Y41327D01*
X325304Y41811D01*
X325168Y42318D01*
X325100Y42838D01*
X325100Y43362D01*
X329100Y43362D02*
X329168Y43882D01*
X329304Y44389D01*
X329505Y44873D01*
X329767Y45327D01*
X330086Y45743D01*
X330457Y46114D01*
X330873Y46433D01*
X331327Y46695D01*
X331811Y46896D01*
X332318Y47032D01*
X332838Y47100D01*
X333362Y47100D01*
X333882Y47032D01*
X334389Y46896D01*
X334873Y46695D01*
X335327Y46433D01*
X335743Y46114D01*
X336114Y45743D01*
X336433Y45327D01*
X336695Y44873D01*
X336896Y44389D01*
X337032Y43882D01*
X337100Y43362D01*
X337100Y42838D01*
X337032Y42318D01*
X336896Y41811D01*
X336695Y41327D01*
X336433Y40873D01*
X336114Y40457D01*
X335743Y40086D01*
X335327Y39767D01*
X334873Y39505D01*
X334389Y39304D01*
X333882Y39168D01*
X333362Y39100D01*
X332838Y39100D01*
X332318Y39168D01*
X331811Y39304D01*
X331327Y39505D01*
X330873Y39767D01*
X330457Y40086D01*
X330086Y40457D01*
X329767Y40873D01*
X329505Y41327D01*
X329304Y41811D01*
X329168Y42318D01*
X329100Y42838D01*
X329100Y43362D01*
M02*
