G04 EAGLE Gerber RS-274X export*
G75*
%MOMM*%
%FSLAX34Y34*%
%LPD*%
%INSilkscreen Top*%
%IPPOS*%
%AMOC8*
5,1,8,0,0,1.08239X$1,22.5*%
G01*
%ADD10C,0.050800*%
%ADD11C,0.406400*%
%ADD12C,0.025400*%
%ADD13C,0.152400*%
%ADD14C,0.203200*%
%ADD15C,0.076200*%
%ADD16R,0.406400X0.711200*%
%ADD17C,0.127000*%


D10*
X177546Y28815D02*
X177546Y26839D01*
X177544Y26773D01*
X177539Y26706D01*
X177529Y26641D01*
X177516Y26575D01*
X177500Y26511D01*
X177480Y26448D01*
X177456Y26386D01*
X177429Y26325D01*
X177398Y26266D01*
X177364Y26209D01*
X177327Y26153D01*
X177287Y26100D01*
X177245Y26049D01*
X177199Y26001D01*
X177151Y25955D01*
X177100Y25913D01*
X177047Y25873D01*
X176991Y25836D01*
X176934Y25802D01*
X176875Y25771D01*
X176814Y25744D01*
X176752Y25720D01*
X176689Y25700D01*
X176625Y25684D01*
X176559Y25671D01*
X176494Y25661D01*
X176427Y25656D01*
X176361Y25654D01*
X173990Y25654D01*
X173924Y25656D01*
X173857Y25661D01*
X173792Y25671D01*
X173726Y25684D01*
X173662Y25700D01*
X173599Y25720D01*
X173537Y25744D01*
X173476Y25771D01*
X173417Y25802D01*
X173360Y25836D01*
X173304Y25873D01*
X173251Y25913D01*
X173200Y25955D01*
X173152Y26001D01*
X173106Y26049D01*
X173064Y26100D01*
X173024Y26153D01*
X172987Y26209D01*
X172953Y26266D01*
X172922Y26325D01*
X172895Y26386D01*
X172871Y26448D01*
X172851Y26511D01*
X172835Y26575D01*
X172822Y26641D01*
X172812Y26706D01*
X172807Y26773D01*
X172805Y26839D01*
X172805Y28815D01*
X178731Y28815D01*
X178797Y28813D01*
X178864Y28808D01*
X178929Y28798D01*
X178995Y28785D01*
X179059Y28769D01*
X179122Y28749D01*
X179184Y28725D01*
X179245Y28698D01*
X179304Y28667D01*
X179361Y28633D01*
X179417Y28596D01*
X179470Y28556D01*
X179521Y28514D01*
X179569Y28468D01*
X179615Y28420D01*
X179657Y28369D01*
X179697Y28316D01*
X179734Y28260D01*
X179768Y28203D01*
X179799Y28144D01*
X179826Y28083D01*
X179850Y28021D01*
X179870Y27958D01*
X179886Y27894D01*
X179899Y27828D01*
X179909Y27763D01*
X179914Y27696D01*
X179916Y27630D01*
X179917Y27630D02*
X179917Y26049D01*
X177546Y31839D02*
X172805Y31839D01*
X170829Y31641D02*
X170434Y31641D01*
X170434Y32036D01*
X170829Y32036D01*
X170829Y31641D01*
X172805Y34032D02*
X172805Y36402D01*
X170434Y34822D02*
X176361Y34822D01*
X176427Y34824D01*
X176494Y34829D01*
X176559Y34839D01*
X176625Y34852D01*
X176689Y34868D01*
X176752Y34888D01*
X176814Y34912D01*
X176875Y34939D01*
X176934Y34970D01*
X176991Y35004D01*
X177047Y35041D01*
X177100Y35081D01*
X177151Y35123D01*
X177199Y35169D01*
X177245Y35217D01*
X177287Y35268D01*
X177327Y35321D01*
X177364Y35377D01*
X177398Y35434D01*
X177429Y35493D01*
X177456Y35554D01*
X177480Y35616D01*
X177500Y35679D01*
X177516Y35743D01*
X177529Y35809D01*
X177539Y35874D01*
X177544Y35941D01*
X177546Y36007D01*
X177546Y36402D01*
X177546Y39174D02*
X170434Y39174D01*
X172805Y39174D02*
X172805Y41149D01*
X172807Y41215D01*
X172812Y41282D01*
X172822Y41347D01*
X172835Y41413D01*
X172851Y41477D01*
X172871Y41540D01*
X172895Y41602D01*
X172922Y41663D01*
X172953Y41722D01*
X172987Y41779D01*
X173024Y41835D01*
X173064Y41888D01*
X173106Y41939D01*
X173152Y41987D01*
X173200Y42033D01*
X173251Y42075D01*
X173304Y42115D01*
X173360Y42152D01*
X173417Y42186D01*
X173476Y42217D01*
X173536Y42244D01*
X173599Y42267D01*
X173662Y42288D01*
X173726Y42304D01*
X173791Y42317D01*
X173857Y42327D01*
X173924Y42332D01*
X173990Y42334D01*
X173990Y42335D02*
X177546Y42335D01*
X176361Y45574D02*
X172805Y45574D01*
X176361Y45575D02*
X176427Y45577D01*
X176494Y45582D01*
X176559Y45592D01*
X176625Y45605D01*
X176689Y45621D01*
X176752Y45641D01*
X176814Y45665D01*
X176875Y45692D01*
X176934Y45723D01*
X176991Y45757D01*
X177047Y45794D01*
X177100Y45834D01*
X177151Y45876D01*
X177199Y45922D01*
X177245Y45970D01*
X177287Y46021D01*
X177327Y46074D01*
X177364Y46130D01*
X177398Y46187D01*
X177429Y46246D01*
X177456Y46307D01*
X177480Y46369D01*
X177500Y46432D01*
X177516Y46496D01*
X177529Y46562D01*
X177539Y46627D01*
X177544Y46694D01*
X177546Y46760D01*
X177546Y48735D01*
X172805Y48735D01*
X170434Y52008D02*
X177546Y52008D01*
X177546Y53983D01*
X177544Y54049D01*
X177539Y54116D01*
X177529Y54181D01*
X177516Y54247D01*
X177500Y54311D01*
X177480Y54374D01*
X177456Y54436D01*
X177429Y54497D01*
X177398Y54556D01*
X177364Y54613D01*
X177327Y54669D01*
X177287Y54722D01*
X177245Y54773D01*
X177199Y54821D01*
X177151Y54867D01*
X177100Y54909D01*
X177047Y54949D01*
X176991Y54986D01*
X176934Y55020D01*
X176875Y55051D01*
X176814Y55078D01*
X176752Y55102D01*
X176689Y55122D01*
X176625Y55138D01*
X176559Y55151D01*
X176494Y55161D01*
X176427Y55166D01*
X176361Y55168D01*
X173990Y55168D01*
X173924Y55166D01*
X173857Y55161D01*
X173792Y55151D01*
X173726Y55138D01*
X173662Y55122D01*
X173599Y55102D01*
X173537Y55078D01*
X173476Y55051D01*
X173417Y55020D01*
X173360Y54986D01*
X173304Y54949D01*
X173251Y54909D01*
X173200Y54867D01*
X173152Y54821D01*
X173106Y54773D01*
X173064Y54722D01*
X173024Y54669D01*
X172987Y54613D01*
X172953Y54556D01*
X172922Y54497D01*
X172895Y54436D01*
X172871Y54374D01*
X172851Y54311D01*
X172835Y54247D01*
X172822Y54181D01*
X172812Y54116D01*
X172807Y54049D01*
X172805Y53983D01*
X172805Y52008D01*
X177151Y57701D02*
X177546Y57701D01*
X177151Y57701D02*
X177151Y58097D01*
X177546Y58097D01*
X177546Y57701D01*
X177546Y61855D02*
X177546Y63435D01*
X177546Y61855D02*
X177544Y61789D01*
X177539Y61722D01*
X177529Y61657D01*
X177516Y61591D01*
X177500Y61527D01*
X177480Y61464D01*
X177456Y61402D01*
X177429Y61341D01*
X177398Y61282D01*
X177364Y61225D01*
X177327Y61169D01*
X177287Y61116D01*
X177245Y61065D01*
X177199Y61017D01*
X177151Y60971D01*
X177100Y60929D01*
X177047Y60889D01*
X176991Y60852D01*
X176934Y60818D01*
X176875Y60787D01*
X176814Y60760D01*
X176752Y60736D01*
X176689Y60716D01*
X176625Y60700D01*
X176559Y60687D01*
X176494Y60677D01*
X176427Y60672D01*
X176361Y60670D01*
X176361Y60669D02*
X173990Y60669D01*
X173990Y60670D02*
X173924Y60672D01*
X173857Y60677D01*
X173792Y60687D01*
X173726Y60700D01*
X173662Y60716D01*
X173599Y60736D01*
X173537Y60760D01*
X173476Y60787D01*
X173417Y60818D01*
X173360Y60852D01*
X173304Y60889D01*
X173251Y60929D01*
X173200Y60971D01*
X173152Y61017D01*
X173106Y61065D01*
X173064Y61116D01*
X173024Y61169D01*
X172987Y61225D01*
X172953Y61282D01*
X172922Y61341D01*
X172895Y61402D01*
X172871Y61464D01*
X172851Y61527D01*
X172835Y61591D01*
X172822Y61657D01*
X172812Y61722D01*
X172807Y61789D01*
X172805Y61855D01*
X172805Y63435D01*
X174385Y65920D02*
X175966Y65920D01*
X174385Y65920D02*
X174306Y65922D01*
X174228Y65928D01*
X174150Y65938D01*
X174072Y65951D01*
X173995Y65969D01*
X173919Y65990D01*
X173845Y66015D01*
X173771Y66044D01*
X173699Y66076D01*
X173629Y66112D01*
X173561Y66152D01*
X173495Y66195D01*
X173431Y66241D01*
X173369Y66290D01*
X173310Y66342D01*
X173254Y66397D01*
X173200Y66455D01*
X173150Y66515D01*
X173102Y66578D01*
X173058Y66643D01*
X173017Y66710D01*
X172979Y66779D01*
X172945Y66850D01*
X172914Y66923D01*
X172887Y66997D01*
X172864Y67072D01*
X172845Y67148D01*
X172829Y67226D01*
X172817Y67304D01*
X172809Y67382D01*
X172805Y67461D01*
X172805Y67539D01*
X172809Y67618D01*
X172817Y67696D01*
X172829Y67774D01*
X172845Y67852D01*
X172864Y67928D01*
X172887Y68003D01*
X172914Y68077D01*
X172945Y68150D01*
X172979Y68221D01*
X173017Y68290D01*
X173058Y68357D01*
X173102Y68422D01*
X173150Y68485D01*
X173200Y68545D01*
X173254Y68603D01*
X173310Y68658D01*
X173369Y68710D01*
X173431Y68759D01*
X173495Y68805D01*
X173561Y68848D01*
X173629Y68888D01*
X173699Y68924D01*
X173771Y68956D01*
X173845Y68985D01*
X173919Y69010D01*
X173995Y69031D01*
X174072Y69049D01*
X174150Y69062D01*
X174228Y69072D01*
X174306Y69078D01*
X174385Y69080D01*
X174385Y69081D02*
X175966Y69081D01*
X175966Y69080D02*
X176045Y69078D01*
X176123Y69072D01*
X176201Y69062D01*
X176279Y69049D01*
X176356Y69031D01*
X176432Y69010D01*
X176506Y68985D01*
X176580Y68956D01*
X176652Y68924D01*
X176722Y68888D01*
X176790Y68848D01*
X176856Y68805D01*
X176920Y68759D01*
X176982Y68710D01*
X177041Y68658D01*
X177097Y68603D01*
X177151Y68545D01*
X177201Y68485D01*
X177249Y68422D01*
X177293Y68357D01*
X177334Y68290D01*
X177372Y68221D01*
X177406Y68150D01*
X177437Y68077D01*
X177464Y68003D01*
X177487Y67928D01*
X177506Y67852D01*
X177522Y67774D01*
X177534Y67696D01*
X177542Y67618D01*
X177546Y67539D01*
X177546Y67461D01*
X177542Y67382D01*
X177534Y67304D01*
X177522Y67226D01*
X177506Y67148D01*
X177487Y67072D01*
X177464Y66997D01*
X177437Y66923D01*
X177406Y66850D01*
X177372Y66779D01*
X177334Y66710D01*
X177293Y66643D01*
X177249Y66578D01*
X177201Y66515D01*
X177151Y66455D01*
X177097Y66397D01*
X177041Y66342D01*
X176982Y66290D01*
X176920Y66241D01*
X176856Y66195D01*
X176790Y66152D01*
X176722Y66112D01*
X176652Y66076D01*
X176580Y66044D01*
X176506Y66015D01*
X176432Y65990D01*
X176356Y65969D01*
X176279Y65951D01*
X176201Y65938D01*
X176123Y65928D01*
X176045Y65922D01*
X175966Y65920D01*
X177546Y72216D02*
X172805Y72216D01*
X172805Y75772D01*
X172807Y75838D01*
X172812Y75905D01*
X172822Y75970D01*
X172835Y76036D01*
X172851Y76100D01*
X172871Y76163D01*
X172895Y76225D01*
X172922Y76286D01*
X172953Y76345D01*
X172987Y76402D01*
X173024Y76458D01*
X173064Y76511D01*
X173106Y76562D01*
X173152Y76610D01*
X173200Y76656D01*
X173251Y76698D01*
X173304Y76738D01*
X173360Y76775D01*
X173417Y76809D01*
X173476Y76840D01*
X173537Y76867D01*
X173599Y76891D01*
X173662Y76911D01*
X173726Y76927D01*
X173792Y76940D01*
X173857Y76950D01*
X173924Y76955D01*
X173990Y76957D01*
X177546Y76957D01*
X177546Y74587D02*
X172805Y74587D01*
X178336Y79864D02*
X169644Y83025D01*
X170434Y85840D02*
X177546Y85840D01*
X177546Y87816D01*
X177544Y87882D01*
X177539Y87949D01*
X177529Y88014D01*
X177516Y88080D01*
X177500Y88144D01*
X177480Y88207D01*
X177456Y88269D01*
X177429Y88330D01*
X177398Y88389D01*
X177364Y88446D01*
X177327Y88502D01*
X177287Y88555D01*
X177245Y88606D01*
X177199Y88654D01*
X177151Y88700D01*
X177100Y88742D01*
X177047Y88782D01*
X176991Y88819D01*
X176934Y88853D01*
X176875Y88884D01*
X176814Y88911D01*
X176752Y88935D01*
X176689Y88955D01*
X176625Y88971D01*
X176559Y88984D01*
X176494Y88994D01*
X176427Y88999D01*
X176361Y89001D01*
X173990Y89001D01*
X173924Y88999D01*
X173857Y88994D01*
X173792Y88984D01*
X173726Y88971D01*
X173662Y88955D01*
X173599Y88935D01*
X173537Y88911D01*
X173476Y88884D01*
X173417Y88853D01*
X173360Y88819D01*
X173304Y88782D01*
X173251Y88742D01*
X173200Y88700D01*
X173152Y88654D01*
X173106Y88606D01*
X173064Y88555D01*
X173024Y88502D01*
X172987Y88446D01*
X172953Y88389D01*
X172922Y88330D01*
X172895Y88269D01*
X172871Y88207D01*
X172851Y88144D01*
X172835Y88080D01*
X172822Y88014D01*
X172812Y87949D01*
X172807Y87882D01*
X172805Y87816D01*
X172805Y85840D01*
X172805Y92016D02*
X177546Y92016D01*
X172805Y92016D02*
X172805Y94387D01*
X173595Y94387D01*
X174780Y97902D02*
X174780Y99680D01*
X174780Y97902D02*
X174782Y97828D01*
X174788Y97755D01*
X174798Y97682D01*
X174811Y97610D01*
X174829Y97538D01*
X174850Y97468D01*
X174875Y97398D01*
X174904Y97331D01*
X174936Y97264D01*
X174971Y97200D01*
X175011Y97137D01*
X175053Y97077D01*
X175098Y97019D01*
X175147Y96964D01*
X175198Y96911D01*
X175252Y96861D01*
X175309Y96814D01*
X175368Y96770D01*
X175429Y96730D01*
X175493Y96692D01*
X175558Y96658D01*
X175625Y96628D01*
X175694Y96601D01*
X175764Y96578D01*
X175835Y96559D01*
X175907Y96543D01*
X175979Y96531D01*
X176053Y96523D01*
X176126Y96519D01*
X176200Y96519D01*
X176273Y96523D01*
X176347Y96531D01*
X176419Y96543D01*
X176491Y96559D01*
X176562Y96578D01*
X176632Y96601D01*
X176701Y96628D01*
X176768Y96658D01*
X176833Y96692D01*
X176897Y96730D01*
X176958Y96770D01*
X177017Y96814D01*
X177074Y96861D01*
X177128Y96911D01*
X177179Y96964D01*
X177228Y97019D01*
X177273Y97077D01*
X177315Y97137D01*
X177355Y97200D01*
X177390Y97264D01*
X177422Y97331D01*
X177451Y97398D01*
X177476Y97468D01*
X177497Y97538D01*
X177515Y97610D01*
X177528Y97682D01*
X177538Y97755D01*
X177544Y97828D01*
X177546Y97902D01*
X177546Y99680D01*
X173990Y99680D01*
X173924Y99678D01*
X173857Y99673D01*
X173792Y99663D01*
X173726Y99650D01*
X173662Y99634D01*
X173599Y99614D01*
X173537Y99590D01*
X173476Y99563D01*
X173417Y99532D01*
X173360Y99498D01*
X173304Y99461D01*
X173251Y99421D01*
X173200Y99379D01*
X173152Y99333D01*
X173106Y99285D01*
X173064Y99234D01*
X173024Y99181D01*
X172987Y99125D01*
X172953Y99068D01*
X172922Y99009D01*
X172895Y98948D01*
X172871Y98886D01*
X172851Y98823D01*
X172835Y98759D01*
X172822Y98693D01*
X172812Y98628D01*
X172807Y98561D01*
X172805Y98495D01*
X172805Y96915D01*
X170434Y105852D02*
X177546Y105852D01*
X177546Y103877D01*
X177544Y103811D01*
X177539Y103744D01*
X177529Y103679D01*
X177516Y103613D01*
X177500Y103549D01*
X177480Y103486D01*
X177456Y103424D01*
X177429Y103363D01*
X177398Y103304D01*
X177364Y103247D01*
X177327Y103191D01*
X177287Y103138D01*
X177245Y103087D01*
X177199Y103039D01*
X177151Y102993D01*
X177100Y102951D01*
X177047Y102911D01*
X176991Y102874D01*
X176934Y102840D01*
X176875Y102809D01*
X176814Y102782D01*
X176752Y102758D01*
X176689Y102738D01*
X176625Y102722D01*
X176559Y102709D01*
X176494Y102699D01*
X176427Y102694D01*
X176361Y102692D01*
X173990Y102692D01*
X173924Y102694D01*
X173857Y102699D01*
X173792Y102709D01*
X173726Y102722D01*
X173662Y102738D01*
X173599Y102758D01*
X173537Y102782D01*
X173476Y102809D01*
X173417Y102840D01*
X173360Y102874D01*
X173304Y102911D01*
X173251Y102951D01*
X173200Y102993D01*
X173152Y103039D01*
X173106Y103087D01*
X173064Y103138D01*
X173024Y103191D01*
X172987Y103247D01*
X172953Y103304D01*
X172922Y103363D01*
X172895Y103424D01*
X172871Y103486D01*
X172851Y103549D01*
X172835Y103613D01*
X172822Y103679D01*
X172812Y103744D01*
X172807Y103811D01*
X172805Y103877D01*
X172805Y105852D01*
X171619Y109279D02*
X177546Y109279D01*
X171619Y109279D02*
X171553Y109281D01*
X171486Y109286D01*
X171421Y109296D01*
X171355Y109309D01*
X171291Y109325D01*
X171228Y109345D01*
X171166Y109369D01*
X171105Y109396D01*
X171046Y109427D01*
X170989Y109461D01*
X170933Y109498D01*
X170880Y109538D01*
X170829Y109580D01*
X170781Y109626D01*
X170735Y109674D01*
X170693Y109725D01*
X170653Y109778D01*
X170616Y109834D01*
X170582Y109891D01*
X170551Y109950D01*
X170524Y110010D01*
X170501Y110073D01*
X170480Y110136D01*
X170464Y110200D01*
X170451Y110265D01*
X170441Y110331D01*
X170436Y110397D01*
X170434Y110464D01*
X170434Y110859D01*
X172805Y110859D02*
X172805Y108489D01*
X174385Y112782D02*
X175966Y112782D01*
X174385Y112783D02*
X174306Y112785D01*
X174228Y112791D01*
X174150Y112801D01*
X174072Y112814D01*
X173995Y112832D01*
X173919Y112853D01*
X173845Y112878D01*
X173771Y112907D01*
X173699Y112939D01*
X173629Y112975D01*
X173561Y113015D01*
X173495Y113058D01*
X173431Y113104D01*
X173369Y113153D01*
X173310Y113205D01*
X173254Y113260D01*
X173200Y113318D01*
X173150Y113378D01*
X173102Y113441D01*
X173058Y113506D01*
X173017Y113573D01*
X172979Y113642D01*
X172945Y113713D01*
X172914Y113786D01*
X172887Y113860D01*
X172864Y113935D01*
X172845Y114011D01*
X172829Y114089D01*
X172817Y114167D01*
X172809Y114245D01*
X172805Y114324D01*
X172805Y114402D01*
X172809Y114481D01*
X172817Y114559D01*
X172829Y114637D01*
X172845Y114715D01*
X172864Y114791D01*
X172887Y114866D01*
X172914Y114940D01*
X172945Y115013D01*
X172979Y115084D01*
X173017Y115153D01*
X173058Y115220D01*
X173102Y115285D01*
X173150Y115348D01*
X173200Y115408D01*
X173254Y115466D01*
X173310Y115521D01*
X173369Y115573D01*
X173431Y115622D01*
X173495Y115668D01*
X173561Y115711D01*
X173629Y115751D01*
X173699Y115787D01*
X173771Y115819D01*
X173845Y115848D01*
X173919Y115873D01*
X173995Y115894D01*
X174072Y115912D01*
X174150Y115925D01*
X174228Y115935D01*
X174306Y115941D01*
X174385Y115943D01*
X175966Y115943D01*
X176045Y115941D01*
X176123Y115935D01*
X176201Y115925D01*
X176279Y115912D01*
X176356Y115894D01*
X176432Y115873D01*
X176506Y115848D01*
X176580Y115819D01*
X176652Y115787D01*
X176722Y115751D01*
X176790Y115711D01*
X176856Y115668D01*
X176920Y115622D01*
X176982Y115573D01*
X177041Y115521D01*
X177097Y115466D01*
X177151Y115408D01*
X177201Y115348D01*
X177249Y115285D01*
X177293Y115220D01*
X177334Y115153D01*
X177372Y115084D01*
X177406Y115013D01*
X177437Y114940D01*
X177464Y114866D01*
X177487Y114791D01*
X177506Y114715D01*
X177522Y114637D01*
X177534Y114559D01*
X177542Y114481D01*
X177546Y114402D01*
X177546Y114324D01*
X177542Y114245D01*
X177534Y114167D01*
X177522Y114089D01*
X177506Y114011D01*
X177487Y113935D01*
X177464Y113860D01*
X177437Y113786D01*
X177406Y113713D01*
X177372Y113642D01*
X177334Y113573D01*
X177293Y113506D01*
X177249Y113441D01*
X177201Y113378D01*
X177151Y113318D01*
X177097Y113260D01*
X177041Y113205D01*
X176982Y113153D01*
X176920Y113104D01*
X176856Y113058D01*
X176790Y113015D01*
X176722Y112975D01*
X176652Y112939D01*
X176580Y112907D01*
X176506Y112878D01*
X176432Y112853D01*
X176356Y112832D01*
X176279Y112814D01*
X176201Y112801D01*
X176123Y112791D01*
X176045Y112785D01*
X175966Y112783D01*
X177546Y118991D02*
X172805Y118991D01*
X172805Y121362D01*
X173595Y121362D01*
X170434Y126655D02*
X177546Y126655D01*
X177546Y124679D01*
X177544Y124613D01*
X177539Y124546D01*
X177529Y124481D01*
X177516Y124415D01*
X177500Y124351D01*
X177480Y124288D01*
X177456Y124226D01*
X177429Y124165D01*
X177398Y124106D01*
X177364Y124049D01*
X177327Y123993D01*
X177287Y123940D01*
X177245Y123889D01*
X177199Y123841D01*
X177151Y123795D01*
X177100Y123753D01*
X177047Y123713D01*
X176991Y123676D01*
X176934Y123642D01*
X176875Y123611D01*
X176814Y123584D01*
X176752Y123560D01*
X176689Y123540D01*
X176625Y123524D01*
X176559Y123511D01*
X176494Y123501D01*
X176427Y123496D01*
X176361Y123494D01*
X173990Y123494D01*
X173924Y123496D01*
X173857Y123501D01*
X173792Y123511D01*
X173726Y123524D01*
X173662Y123540D01*
X173599Y123560D01*
X173537Y123584D01*
X173476Y123611D01*
X173417Y123642D01*
X173360Y123676D01*
X173304Y123713D01*
X173251Y123753D01*
X173200Y123795D01*
X173152Y123841D01*
X173106Y123889D01*
X173064Y123940D01*
X173024Y123993D01*
X172987Y124049D01*
X172953Y124106D01*
X172922Y124165D01*
X172895Y124226D01*
X172871Y124288D01*
X172851Y124351D01*
X172835Y124415D01*
X172822Y124481D01*
X172812Y124546D01*
X172807Y124613D01*
X172805Y124679D01*
X172805Y126655D01*
X174780Y129823D02*
X174780Y134564D01*
X177546Y137700D02*
X170434Y137700D01*
X172805Y137700D02*
X172805Y139675D01*
X172807Y139741D01*
X172812Y139808D01*
X172822Y139873D01*
X172835Y139939D01*
X172851Y140003D01*
X172871Y140066D01*
X172895Y140128D01*
X172922Y140189D01*
X172953Y140248D01*
X172987Y140305D01*
X173024Y140361D01*
X173064Y140414D01*
X173106Y140465D01*
X173152Y140513D01*
X173200Y140559D01*
X173251Y140601D01*
X173304Y140641D01*
X173360Y140678D01*
X173417Y140712D01*
X173476Y140743D01*
X173536Y140770D01*
X173599Y140793D01*
X173662Y140814D01*
X173726Y140830D01*
X173791Y140843D01*
X173857Y140853D01*
X173924Y140858D01*
X173990Y140860D01*
X177546Y140860D01*
X174780Y145222D02*
X174780Y147000D01*
X174780Y145222D02*
X174782Y145148D01*
X174788Y145075D01*
X174798Y145002D01*
X174811Y144930D01*
X174829Y144858D01*
X174850Y144788D01*
X174875Y144718D01*
X174904Y144651D01*
X174936Y144584D01*
X174971Y144520D01*
X175011Y144457D01*
X175053Y144397D01*
X175098Y144339D01*
X175147Y144284D01*
X175198Y144231D01*
X175252Y144181D01*
X175309Y144134D01*
X175368Y144090D01*
X175429Y144050D01*
X175493Y144012D01*
X175558Y143978D01*
X175625Y143948D01*
X175694Y143921D01*
X175764Y143898D01*
X175835Y143879D01*
X175907Y143863D01*
X175979Y143851D01*
X176053Y143843D01*
X176126Y143839D01*
X176200Y143839D01*
X176273Y143843D01*
X176347Y143851D01*
X176419Y143863D01*
X176491Y143879D01*
X176562Y143898D01*
X176632Y143921D01*
X176701Y143948D01*
X176768Y143978D01*
X176833Y144012D01*
X176897Y144050D01*
X176958Y144090D01*
X177017Y144134D01*
X177074Y144181D01*
X177128Y144231D01*
X177179Y144284D01*
X177228Y144339D01*
X177273Y144397D01*
X177315Y144457D01*
X177355Y144520D01*
X177390Y144584D01*
X177422Y144651D01*
X177451Y144718D01*
X177476Y144788D01*
X177497Y144858D01*
X177515Y144930D01*
X177528Y145002D01*
X177538Y145075D01*
X177544Y145148D01*
X177546Y145222D01*
X177546Y147000D01*
X173990Y147000D01*
X173924Y146998D01*
X173857Y146993D01*
X173792Y146983D01*
X173726Y146970D01*
X173662Y146954D01*
X173599Y146934D01*
X173537Y146910D01*
X173476Y146883D01*
X173417Y146852D01*
X173360Y146818D01*
X173304Y146781D01*
X173251Y146741D01*
X173200Y146699D01*
X173152Y146653D01*
X173106Y146605D01*
X173064Y146554D01*
X173024Y146501D01*
X172987Y146445D01*
X172953Y146388D01*
X172922Y146329D01*
X172895Y146268D01*
X172871Y146206D01*
X172851Y146143D01*
X172835Y146079D01*
X172822Y146013D01*
X172812Y145948D01*
X172807Y145881D01*
X172805Y145815D01*
X172805Y144234D01*
X172805Y150397D02*
X177546Y150397D01*
X172805Y150397D02*
X172805Y153953D01*
X172807Y154019D01*
X172812Y154086D01*
X172822Y154151D01*
X172835Y154217D01*
X172851Y154281D01*
X172871Y154344D01*
X172895Y154406D01*
X172922Y154467D01*
X172953Y154526D01*
X172987Y154583D01*
X173024Y154639D01*
X173064Y154692D01*
X173106Y154743D01*
X173152Y154791D01*
X173200Y154837D01*
X173251Y154879D01*
X173304Y154919D01*
X173360Y154956D01*
X173417Y154990D01*
X173476Y155021D01*
X173537Y155048D01*
X173599Y155072D01*
X173662Y155092D01*
X173726Y155108D01*
X173792Y155121D01*
X173857Y155131D01*
X173924Y155136D01*
X173990Y155138D01*
X177546Y155138D01*
X177546Y152767D02*
X172805Y152767D01*
X172805Y158254D02*
X177546Y158254D01*
X170829Y158056D02*
X170434Y158056D01*
X170434Y158451D01*
X170829Y158451D01*
X170829Y158056D01*
X170434Y161118D02*
X176361Y161118D01*
X176427Y161120D01*
X176494Y161125D01*
X176559Y161135D01*
X176625Y161148D01*
X176689Y161164D01*
X176752Y161184D01*
X176814Y161208D01*
X176875Y161235D01*
X176934Y161266D01*
X176991Y161300D01*
X177047Y161337D01*
X177100Y161377D01*
X177151Y161419D01*
X177199Y161465D01*
X177245Y161513D01*
X177287Y161564D01*
X177327Y161617D01*
X177364Y161673D01*
X177398Y161730D01*
X177429Y161789D01*
X177456Y161850D01*
X177480Y161912D01*
X177500Y161975D01*
X177516Y162039D01*
X177529Y162105D01*
X177539Y162170D01*
X177544Y162237D01*
X177546Y162303D01*
X172805Y164104D02*
X172805Y166475D01*
X170434Y164894D02*
X176361Y164894D01*
X176361Y164895D02*
X176427Y164897D01*
X176494Y164902D01*
X176559Y164912D01*
X176625Y164925D01*
X176689Y164941D01*
X176752Y164961D01*
X176814Y164985D01*
X176875Y165012D01*
X176934Y165043D01*
X176991Y165077D01*
X177047Y165114D01*
X177100Y165154D01*
X177151Y165196D01*
X177199Y165242D01*
X177245Y165290D01*
X177287Y165341D01*
X177327Y165394D01*
X177364Y165450D01*
X177398Y165507D01*
X177429Y165566D01*
X177456Y165627D01*
X177480Y165689D01*
X177500Y165752D01*
X177516Y165816D01*
X177529Y165882D01*
X177539Y165947D01*
X177544Y166014D01*
X177546Y166080D01*
X177546Y166475D01*
X175966Y169018D02*
X174385Y169018D01*
X174306Y169020D01*
X174228Y169026D01*
X174150Y169036D01*
X174072Y169049D01*
X173995Y169067D01*
X173919Y169088D01*
X173845Y169113D01*
X173771Y169142D01*
X173699Y169174D01*
X173629Y169210D01*
X173561Y169250D01*
X173495Y169293D01*
X173431Y169339D01*
X173369Y169388D01*
X173310Y169440D01*
X173254Y169495D01*
X173200Y169553D01*
X173150Y169613D01*
X173102Y169676D01*
X173058Y169741D01*
X173017Y169808D01*
X172979Y169877D01*
X172945Y169948D01*
X172914Y170021D01*
X172887Y170095D01*
X172864Y170170D01*
X172845Y170246D01*
X172829Y170324D01*
X172817Y170402D01*
X172809Y170480D01*
X172805Y170559D01*
X172805Y170637D01*
X172809Y170716D01*
X172817Y170794D01*
X172829Y170872D01*
X172845Y170950D01*
X172864Y171026D01*
X172887Y171101D01*
X172914Y171175D01*
X172945Y171248D01*
X172979Y171319D01*
X173017Y171388D01*
X173058Y171455D01*
X173102Y171520D01*
X173150Y171583D01*
X173200Y171643D01*
X173254Y171701D01*
X173310Y171756D01*
X173369Y171808D01*
X173431Y171857D01*
X173495Y171903D01*
X173561Y171946D01*
X173629Y171986D01*
X173699Y172022D01*
X173771Y172054D01*
X173845Y172083D01*
X173919Y172108D01*
X173995Y172129D01*
X174072Y172147D01*
X174150Y172160D01*
X174228Y172170D01*
X174306Y172176D01*
X174385Y172178D01*
X175966Y172178D01*
X176045Y172176D01*
X176123Y172170D01*
X176201Y172160D01*
X176279Y172147D01*
X176356Y172129D01*
X176432Y172108D01*
X176506Y172083D01*
X176580Y172054D01*
X176652Y172022D01*
X176722Y171986D01*
X176790Y171946D01*
X176856Y171903D01*
X176920Y171857D01*
X176982Y171808D01*
X177041Y171756D01*
X177097Y171701D01*
X177151Y171643D01*
X177201Y171583D01*
X177249Y171520D01*
X177293Y171455D01*
X177334Y171388D01*
X177372Y171319D01*
X177406Y171248D01*
X177437Y171175D01*
X177464Y171101D01*
X177487Y171026D01*
X177506Y170950D01*
X177522Y170872D01*
X177534Y170794D01*
X177542Y170716D01*
X177546Y170637D01*
X177546Y170559D01*
X177542Y170480D01*
X177534Y170402D01*
X177522Y170324D01*
X177506Y170246D01*
X177487Y170170D01*
X177464Y170095D01*
X177437Y170021D01*
X177406Y169948D01*
X177372Y169877D01*
X177334Y169808D01*
X177293Y169741D01*
X177249Y169676D01*
X177201Y169613D01*
X177151Y169553D01*
X177097Y169495D01*
X177041Y169440D01*
X176982Y169388D01*
X176920Y169339D01*
X176856Y169293D01*
X176790Y169250D01*
X176722Y169210D01*
X176652Y169174D01*
X176580Y169142D01*
X176506Y169113D01*
X176432Y169088D01*
X176356Y169067D01*
X176279Y169049D01*
X176201Y169036D01*
X176123Y169026D01*
X176045Y169020D01*
X175966Y169018D01*
X177546Y175190D02*
X172805Y175190D01*
X172805Y177165D01*
X172807Y177231D01*
X172812Y177298D01*
X172822Y177363D01*
X172835Y177429D01*
X172851Y177493D01*
X172871Y177556D01*
X172895Y177618D01*
X172922Y177679D01*
X172953Y177738D01*
X172987Y177795D01*
X173024Y177851D01*
X173064Y177904D01*
X173106Y177955D01*
X173152Y178003D01*
X173200Y178049D01*
X173251Y178091D01*
X173304Y178131D01*
X173360Y178168D01*
X173417Y178202D01*
X173476Y178233D01*
X173536Y178260D01*
X173599Y178283D01*
X173662Y178304D01*
X173726Y178320D01*
X173791Y178333D01*
X173857Y178343D01*
X173924Y178348D01*
X173990Y178350D01*
X173990Y178351D02*
X177546Y178351D01*
D11*
X241300Y165405D02*
X241300Y164795D01*
D12*
X245736Y154178D02*
X246582Y154178D01*
X245736Y154178D02*
X245681Y154180D01*
X245625Y154185D01*
X245571Y154194D01*
X245517Y154207D01*
X245464Y154223D01*
X245412Y154242D01*
X245361Y154265D01*
X245313Y154291D01*
X245265Y154321D01*
X245220Y154353D01*
X245178Y154388D01*
X245137Y154426D01*
X245099Y154467D01*
X245064Y154509D01*
X245032Y154554D01*
X245002Y154602D01*
X244976Y154650D01*
X244953Y154701D01*
X244934Y154753D01*
X244918Y154806D01*
X244905Y154860D01*
X244896Y154914D01*
X244891Y154970D01*
X244889Y155025D01*
X244889Y157141D01*
X244891Y157199D01*
X244897Y157256D01*
X244907Y157313D01*
X244920Y157370D01*
X244938Y157425D01*
X244959Y157478D01*
X244984Y157531D01*
X245012Y157581D01*
X245044Y157629D01*
X245079Y157676D01*
X245117Y157719D01*
X245158Y157760D01*
X245201Y157798D01*
X245248Y157833D01*
X245296Y157865D01*
X245346Y157893D01*
X245399Y157918D01*
X245452Y157939D01*
X245507Y157957D01*
X245564Y157970D01*
X245621Y157980D01*
X245678Y157986D01*
X245736Y157988D01*
X246582Y157988D01*
X247946Y157141D02*
X249005Y157988D01*
X249005Y154178D01*
X250063Y154178D02*
X247946Y154178D01*
D13*
X206200Y69500D02*
X200200Y69500D01*
X200200Y57500D02*
X206200Y57500D01*
D12*
X197400Y71882D02*
X196554Y71882D01*
X196499Y71884D01*
X196443Y71889D01*
X196389Y71898D01*
X196335Y71911D01*
X196282Y71927D01*
X196230Y71946D01*
X196179Y71969D01*
X196131Y71995D01*
X196083Y72025D01*
X196038Y72057D01*
X195996Y72092D01*
X195955Y72130D01*
X195917Y72171D01*
X195882Y72213D01*
X195850Y72258D01*
X195820Y72306D01*
X195794Y72354D01*
X195771Y72405D01*
X195752Y72457D01*
X195736Y72510D01*
X195723Y72564D01*
X195714Y72618D01*
X195709Y72674D01*
X195707Y72729D01*
X195707Y74845D01*
X195709Y74903D01*
X195715Y74960D01*
X195725Y75017D01*
X195738Y75074D01*
X195756Y75129D01*
X195777Y75182D01*
X195802Y75235D01*
X195830Y75285D01*
X195862Y75333D01*
X195897Y75380D01*
X195935Y75423D01*
X195976Y75464D01*
X196019Y75502D01*
X196066Y75537D01*
X196114Y75569D01*
X196164Y75597D01*
X196217Y75622D01*
X196270Y75643D01*
X196325Y75661D01*
X196382Y75674D01*
X196439Y75684D01*
X196496Y75690D01*
X196554Y75692D01*
X197400Y75692D01*
X199929Y75693D02*
X199989Y75691D01*
X200048Y75685D01*
X200108Y75676D01*
X200166Y75663D01*
X200223Y75646D01*
X200280Y75626D01*
X200335Y75602D01*
X200388Y75575D01*
X200440Y75545D01*
X200489Y75511D01*
X200536Y75474D01*
X200581Y75435D01*
X200624Y75392D01*
X200663Y75347D01*
X200700Y75300D01*
X200734Y75251D01*
X200764Y75199D01*
X200791Y75146D01*
X200815Y75091D01*
X200835Y75034D01*
X200852Y74977D01*
X200865Y74919D01*
X200874Y74859D01*
X200880Y74800D01*
X200882Y74740D01*
X199929Y75692D02*
X199862Y75690D01*
X199795Y75685D01*
X199729Y75676D01*
X199663Y75663D01*
X199599Y75647D01*
X199535Y75627D01*
X199472Y75603D01*
X199410Y75577D01*
X199351Y75547D01*
X199293Y75514D01*
X199236Y75477D01*
X199182Y75438D01*
X199130Y75396D01*
X199081Y75351D01*
X199034Y75303D01*
X198990Y75253D01*
X198948Y75200D01*
X198910Y75145D01*
X198874Y75089D01*
X198842Y75030D01*
X198813Y74970D01*
X198787Y74908D01*
X198765Y74845D01*
X200564Y73999D02*
X200605Y74041D01*
X200644Y74086D01*
X200681Y74132D01*
X200715Y74181D01*
X200746Y74231D01*
X200773Y74283D01*
X200798Y74337D01*
X200820Y74392D01*
X200839Y74448D01*
X200854Y74505D01*
X200866Y74563D01*
X200874Y74622D01*
X200879Y74681D01*
X200881Y74740D01*
X200564Y73999D02*
X198764Y71882D01*
X200881Y71882D01*
D14*
X208200Y120500D02*
X212200Y120500D01*
X208200Y120500D02*
X194200Y120500D01*
X208200Y133500D02*
X212200Y133500D01*
X208200Y133500D02*
X194200Y133500D01*
X208200Y133500D02*
X208200Y120500D01*
D12*
X206067Y116713D02*
X206067Y112903D01*
X206067Y116713D02*
X207125Y116713D01*
X207189Y116711D01*
X207253Y116705D01*
X207316Y116696D01*
X207378Y116682D01*
X207440Y116665D01*
X207500Y116644D01*
X207559Y116620D01*
X207617Y116592D01*
X207672Y116560D01*
X207726Y116526D01*
X207777Y116488D01*
X207827Y116447D01*
X207873Y116403D01*
X207917Y116357D01*
X207958Y116307D01*
X207996Y116256D01*
X208030Y116202D01*
X208062Y116147D01*
X208090Y116089D01*
X208114Y116030D01*
X208135Y115970D01*
X208152Y115908D01*
X208166Y115846D01*
X208175Y115783D01*
X208181Y115719D01*
X208183Y115655D01*
X208184Y115655D02*
X208184Y113961D01*
X208183Y113961D02*
X208181Y113897D01*
X208175Y113833D01*
X208166Y113770D01*
X208152Y113708D01*
X208135Y113646D01*
X208114Y113586D01*
X208090Y113527D01*
X208062Y113469D01*
X208030Y113414D01*
X207996Y113360D01*
X207958Y113309D01*
X207917Y113259D01*
X207873Y113213D01*
X207827Y113169D01*
X207777Y113128D01*
X207726Y113090D01*
X207672Y113056D01*
X207617Y113024D01*
X207559Y112996D01*
X207500Y112972D01*
X207440Y112951D01*
X207378Y112934D01*
X207316Y112920D01*
X207253Y112911D01*
X207189Y112905D01*
X207125Y112903D01*
X206067Y112903D01*
X209846Y115866D02*
X210905Y116713D01*
X210905Y112903D01*
X211963Y112903D02*
X209846Y112903D01*
D14*
X271700Y31600D02*
X275700Y31600D01*
X271700Y31600D02*
X257700Y31600D01*
X271700Y44600D02*
X275700Y44600D01*
X271700Y44600D02*
X257700Y44600D01*
X271700Y44600D02*
X271700Y31600D01*
D12*
X269567Y27813D02*
X269567Y24003D01*
X269567Y27813D02*
X270625Y27813D01*
X270689Y27811D01*
X270753Y27805D01*
X270816Y27796D01*
X270878Y27782D01*
X270940Y27765D01*
X271000Y27744D01*
X271059Y27720D01*
X271117Y27692D01*
X271172Y27660D01*
X271226Y27626D01*
X271277Y27588D01*
X271327Y27547D01*
X271373Y27503D01*
X271417Y27457D01*
X271458Y27407D01*
X271496Y27356D01*
X271530Y27302D01*
X271562Y27247D01*
X271590Y27189D01*
X271614Y27130D01*
X271635Y27070D01*
X271652Y27008D01*
X271666Y26946D01*
X271675Y26883D01*
X271681Y26819D01*
X271683Y26755D01*
X271684Y26755D02*
X271684Y25061D01*
X271683Y25061D02*
X271681Y24997D01*
X271675Y24933D01*
X271666Y24870D01*
X271652Y24808D01*
X271635Y24746D01*
X271614Y24686D01*
X271590Y24627D01*
X271562Y24569D01*
X271530Y24514D01*
X271496Y24460D01*
X271458Y24409D01*
X271417Y24359D01*
X271373Y24313D01*
X271327Y24269D01*
X271277Y24228D01*
X271226Y24190D01*
X271172Y24156D01*
X271117Y24124D01*
X271059Y24096D01*
X271000Y24072D01*
X270940Y24051D01*
X270878Y24034D01*
X270816Y24020D01*
X270753Y24011D01*
X270689Y24005D01*
X270625Y24003D01*
X269567Y24003D01*
X274511Y27814D02*
X274571Y27812D01*
X274630Y27806D01*
X274690Y27797D01*
X274748Y27784D01*
X274805Y27767D01*
X274862Y27747D01*
X274917Y27723D01*
X274970Y27696D01*
X275022Y27666D01*
X275071Y27632D01*
X275118Y27595D01*
X275163Y27556D01*
X275206Y27513D01*
X275245Y27468D01*
X275282Y27421D01*
X275316Y27372D01*
X275346Y27320D01*
X275373Y27267D01*
X275397Y27212D01*
X275417Y27155D01*
X275434Y27098D01*
X275447Y27040D01*
X275456Y26980D01*
X275462Y26921D01*
X275464Y26861D01*
X274511Y27813D02*
X274444Y27811D01*
X274377Y27806D01*
X274311Y27797D01*
X274245Y27784D01*
X274181Y27768D01*
X274117Y27748D01*
X274054Y27724D01*
X273992Y27698D01*
X273933Y27668D01*
X273875Y27635D01*
X273818Y27598D01*
X273764Y27559D01*
X273712Y27517D01*
X273663Y27472D01*
X273616Y27424D01*
X273572Y27374D01*
X273530Y27321D01*
X273492Y27266D01*
X273456Y27210D01*
X273424Y27151D01*
X273395Y27091D01*
X273369Y27029D01*
X273347Y26966D01*
X275146Y26120D02*
X275187Y26162D01*
X275226Y26207D01*
X275263Y26253D01*
X275297Y26302D01*
X275328Y26352D01*
X275355Y26404D01*
X275380Y26458D01*
X275402Y26513D01*
X275421Y26569D01*
X275436Y26626D01*
X275448Y26684D01*
X275456Y26743D01*
X275461Y26802D01*
X275463Y26861D01*
X275146Y26120D02*
X273346Y24003D01*
X275463Y24003D01*
D15*
X214868Y20353D02*
X214868Y27719D01*
X216914Y27719D01*
X217003Y27717D01*
X217092Y27711D01*
X217181Y27701D01*
X217269Y27688D01*
X217357Y27671D01*
X217444Y27649D01*
X217529Y27624D01*
X217614Y27596D01*
X217697Y27563D01*
X217779Y27527D01*
X217859Y27488D01*
X217937Y27445D01*
X218013Y27399D01*
X218088Y27349D01*
X218160Y27296D01*
X218229Y27240D01*
X218296Y27181D01*
X218361Y27120D01*
X218422Y27055D01*
X218481Y26988D01*
X218537Y26919D01*
X218590Y26847D01*
X218640Y26772D01*
X218686Y26696D01*
X218729Y26618D01*
X218768Y26538D01*
X218804Y26456D01*
X218837Y26373D01*
X218865Y26288D01*
X218890Y26203D01*
X218912Y26116D01*
X218929Y26028D01*
X218942Y25940D01*
X218952Y25851D01*
X218958Y25762D01*
X218960Y25673D01*
X218960Y22399D01*
X218958Y22310D01*
X218952Y22221D01*
X218942Y22132D01*
X218929Y22044D01*
X218912Y21956D01*
X218890Y21869D01*
X218865Y21784D01*
X218837Y21699D01*
X218804Y21616D01*
X218768Y21534D01*
X218729Y21454D01*
X218686Y21376D01*
X218640Y21300D01*
X218590Y21225D01*
X218537Y21153D01*
X218481Y21084D01*
X218422Y21017D01*
X218361Y20952D01*
X218296Y20891D01*
X218229Y20832D01*
X218160Y20776D01*
X218088Y20723D01*
X218013Y20673D01*
X217937Y20627D01*
X217859Y20584D01*
X217779Y20545D01*
X217697Y20509D01*
X217614Y20476D01*
X217529Y20448D01*
X217444Y20423D01*
X217357Y20401D01*
X217269Y20384D01*
X217181Y20371D01*
X217092Y20361D01*
X217003Y20355D01*
X216914Y20353D01*
X214868Y20353D01*
X222427Y20353D02*
X224473Y20353D01*
X224562Y20355D01*
X224651Y20361D01*
X224740Y20371D01*
X224828Y20384D01*
X224916Y20401D01*
X225003Y20423D01*
X225088Y20448D01*
X225173Y20476D01*
X225256Y20509D01*
X225338Y20545D01*
X225418Y20584D01*
X225496Y20627D01*
X225572Y20673D01*
X225647Y20723D01*
X225719Y20776D01*
X225788Y20832D01*
X225855Y20891D01*
X225920Y20952D01*
X225981Y21017D01*
X226040Y21084D01*
X226096Y21153D01*
X226149Y21225D01*
X226199Y21300D01*
X226245Y21376D01*
X226288Y21454D01*
X226327Y21534D01*
X226363Y21616D01*
X226396Y21699D01*
X226424Y21784D01*
X226449Y21869D01*
X226471Y21956D01*
X226488Y22044D01*
X226501Y22132D01*
X226511Y22221D01*
X226517Y22310D01*
X226519Y22399D01*
X226517Y22488D01*
X226511Y22577D01*
X226501Y22666D01*
X226488Y22754D01*
X226471Y22842D01*
X226449Y22929D01*
X226424Y23014D01*
X226396Y23099D01*
X226363Y23182D01*
X226327Y23264D01*
X226288Y23344D01*
X226245Y23422D01*
X226199Y23498D01*
X226149Y23573D01*
X226096Y23645D01*
X226040Y23714D01*
X225981Y23781D01*
X225920Y23846D01*
X225855Y23907D01*
X225788Y23966D01*
X225719Y24022D01*
X225647Y24075D01*
X225572Y24125D01*
X225496Y24171D01*
X225418Y24214D01*
X225338Y24253D01*
X225256Y24289D01*
X225173Y24322D01*
X225088Y24350D01*
X225003Y24375D01*
X224916Y24397D01*
X224828Y24414D01*
X224740Y24427D01*
X224651Y24437D01*
X224562Y24443D01*
X224473Y24445D01*
X224882Y27719D02*
X222427Y27719D01*
X224882Y27719D02*
X224961Y27717D01*
X225040Y27711D01*
X225119Y27702D01*
X225197Y27689D01*
X225274Y27671D01*
X225350Y27651D01*
X225425Y27626D01*
X225499Y27598D01*
X225572Y27567D01*
X225643Y27531D01*
X225712Y27493D01*
X225779Y27451D01*
X225844Y27406D01*
X225907Y27358D01*
X225968Y27307D01*
X226025Y27253D01*
X226081Y27197D01*
X226133Y27138D01*
X226183Y27076D01*
X226229Y27012D01*
X226273Y26946D01*
X226313Y26878D01*
X226349Y26808D01*
X226383Y26736D01*
X226413Y26662D01*
X226439Y26588D01*
X226462Y26512D01*
X226480Y26435D01*
X226496Y26358D01*
X226507Y26279D01*
X226515Y26201D01*
X226519Y26122D01*
X226519Y26042D01*
X226515Y25963D01*
X226507Y25885D01*
X226496Y25806D01*
X226480Y25729D01*
X226462Y25652D01*
X226439Y25576D01*
X226413Y25502D01*
X226383Y25428D01*
X226349Y25356D01*
X226313Y25286D01*
X226273Y25218D01*
X226229Y25152D01*
X226183Y25088D01*
X226133Y25026D01*
X226081Y24967D01*
X226025Y24911D01*
X225968Y24857D01*
X225907Y24806D01*
X225844Y24758D01*
X225779Y24713D01*
X225712Y24671D01*
X225643Y24633D01*
X225572Y24597D01*
X225499Y24566D01*
X225425Y24538D01*
X225350Y24513D01*
X225274Y24493D01*
X225197Y24475D01*
X225119Y24462D01*
X225040Y24453D01*
X224961Y24447D01*
X224882Y24445D01*
X223245Y24445D01*
D13*
X277620Y75950D02*
X277620Y126996D01*
X230380Y126996D02*
X230380Y75950D01*
D14*
X234530Y84074D02*
X234532Y84149D01*
X234538Y84224D01*
X234548Y84299D01*
X234561Y84373D01*
X234579Y84446D01*
X234600Y84518D01*
X234625Y84589D01*
X234654Y84658D01*
X234687Y84726D01*
X234722Y84792D01*
X234762Y84856D01*
X234804Y84918D01*
X234850Y84978D01*
X234899Y85035D01*
X234951Y85089D01*
X235005Y85141D01*
X235062Y85190D01*
X235122Y85236D01*
X235184Y85278D01*
X235248Y85318D01*
X235314Y85353D01*
X235382Y85386D01*
X235451Y85415D01*
X235522Y85440D01*
X235594Y85461D01*
X235667Y85479D01*
X235741Y85492D01*
X235816Y85502D01*
X235891Y85508D01*
X235966Y85510D01*
X236041Y85508D01*
X236116Y85502D01*
X236191Y85492D01*
X236265Y85479D01*
X236338Y85461D01*
X236410Y85440D01*
X236481Y85415D01*
X236550Y85386D01*
X236618Y85353D01*
X236684Y85318D01*
X236748Y85278D01*
X236810Y85236D01*
X236870Y85190D01*
X236927Y85141D01*
X236981Y85089D01*
X237033Y85035D01*
X237082Y84978D01*
X237128Y84918D01*
X237170Y84856D01*
X237210Y84792D01*
X237245Y84726D01*
X237278Y84658D01*
X237307Y84589D01*
X237332Y84518D01*
X237353Y84446D01*
X237371Y84373D01*
X237384Y84299D01*
X237394Y84224D01*
X237400Y84149D01*
X237402Y84074D01*
X237400Y83999D01*
X237394Y83924D01*
X237384Y83849D01*
X237371Y83775D01*
X237353Y83702D01*
X237332Y83630D01*
X237307Y83559D01*
X237278Y83490D01*
X237245Y83422D01*
X237210Y83356D01*
X237170Y83292D01*
X237128Y83230D01*
X237082Y83170D01*
X237033Y83113D01*
X236981Y83059D01*
X236927Y83007D01*
X236870Y82958D01*
X236810Y82912D01*
X236748Y82870D01*
X236684Y82830D01*
X236618Y82795D01*
X236550Y82762D01*
X236481Y82733D01*
X236410Y82708D01*
X236338Y82687D01*
X236265Y82669D01*
X236191Y82656D01*
X236116Y82646D01*
X236041Y82640D01*
X235966Y82638D01*
X235891Y82640D01*
X235816Y82646D01*
X235741Y82656D01*
X235667Y82669D01*
X235594Y82687D01*
X235522Y82708D01*
X235451Y82733D01*
X235382Y82762D01*
X235314Y82795D01*
X235248Y82830D01*
X235184Y82870D01*
X235122Y82912D01*
X235062Y82958D01*
X235005Y83007D01*
X234951Y83059D01*
X234899Y83113D01*
X234850Y83170D01*
X234804Y83230D01*
X234762Y83292D01*
X234722Y83356D01*
X234687Y83422D01*
X234654Y83490D01*
X234625Y83559D01*
X234600Y83630D01*
X234579Y83702D01*
X234561Y83775D01*
X234548Y83849D01*
X234538Y83924D01*
X234532Y83999D01*
X234530Y84074D01*
D12*
X241850Y94107D02*
X241850Y97917D01*
X241427Y94107D02*
X242274Y94107D01*
X242274Y97917D02*
X241427Y97917D01*
X244555Y94107D02*
X245402Y94107D01*
X244555Y94107D02*
X244500Y94109D01*
X244444Y94114D01*
X244390Y94123D01*
X244336Y94136D01*
X244283Y94152D01*
X244231Y94171D01*
X244180Y94194D01*
X244132Y94220D01*
X244084Y94250D01*
X244039Y94282D01*
X243997Y94317D01*
X243956Y94355D01*
X243918Y94396D01*
X243883Y94438D01*
X243851Y94483D01*
X243821Y94531D01*
X243795Y94579D01*
X243772Y94630D01*
X243753Y94682D01*
X243737Y94735D01*
X243724Y94789D01*
X243715Y94843D01*
X243710Y94899D01*
X243708Y94954D01*
X243709Y94954D02*
X243709Y97070D01*
X243708Y97070D02*
X243710Y97128D01*
X243716Y97185D01*
X243726Y97242D01*
X243739Y97299D01*
X243757Y97354D01*
X243778Y97407D01*
X243803Y97460D01*
X243831Y97510D01*
X243863Y97558D01*
X243898Y97605D01*
X243936Y97648D01*
X243977Y97689D01*
X244020Y97727D01*
X244067Y97762D01*
X244115Y97794D01*
X244165Y97822D01*
X244218Y97847D01*
X244271Y97868D01*
X244326Y97886D01*
X244383Y97899D01*
X244440Y97909D01*
X244497Y97915D01*
X244555Y97917D01*
X245402Y97917D01*
X246766Y97070D02*
X247824Y97917D01*
X247824Y94107D01*
X246766Y94107D02*
X248883Y94107D01*
D14*
X204900Y88900D02*
X204900Y84300D01*
X204900Y88900D02*
X204900Y93500D01*
X204900Y88900D02*
X201800Y86562D01*
X204746Y89154D02*
X201800Y91084D01*
D12*
X194437Y96012D02*
X194437Y99822D01*
X194437Y96012D02*
X196130Y96012D01*
X197607Y96012D02*
X199300Y96012D01*
X197607Y96012D02*
X197607Y99822D01*
X199300Y99822D01*
X198877Y98129D02*
X197607Y98129D01*
X200770Y99822D02*
X200770Y96012D01*
X200770Y99822D02*
X201829Y99822D01*
X201893Y99820D01*
X201957Y99814D01*
X202020Y99805D01*
X202082Y99791D01*
X202144Y99774D01*
X202204Y99753D01*
X202263Y99729D01*
X202321Y99701D01*
X202376Y99669D01*
X202430Y99635D01*
X202481Y99597D01*
X202531Y99556D01*
X202577Y99512D01*
X202621Y99466D01*
X202662Y99416D01*
X202700Y99365D01*
X202734Y99311D01*
X202766Y99256D01*
X202794Y99198D01*
X202818Y99139D01*
X202839Y99079D01*
X202856Y99017D01*
X202870Y98955D01*
X202879Y98892D01*
X202885Y98828D01*
X202887Y98764D01*
X202887Y97070D01*
X202885Y97006D01*
X202879Y96942D01*
X202870Y96879D01*
X202856Y96817D01*
X202839Y96755D01*
X202818Y96695D01*
X202794Y96636D01*
X202766Y96578D01*
X202734Y96523D01*
X202700Y96469D01*
X202662Y96418D01*
X202621Y96368D01*
X202577Y96322D01*
X202531Y96278D01*
X202481Y96237D01*
X202430Y96199D01*
X202376Y96165D01*
X202321Y96133D01*
X202263Y96105D01*
X202204Y96081D01*
X202144Y96060D01*
X202082Y96043D01*
X202020Y96029D01*
X201957Y96020D01*
X201893Y96014D01*
X201829Y96012D01*
X200770Y96012D01*
D14*
X204900Y97000D02*
X204900Y101600D01*
X204900Y106200D01*
X204900Y101600D02*
X201800Y99262D01*
X204746Y101854D02*
X201800Y103784D01*
D12*
X194437Y108712D02*
X194437Y112522D01*
X195495Y112522D01*
X195559Y112520D01*
X195623Y112514D01*
X195686Y112505D01*
X195748Y112491D01*
X195810Y112474D01*
X195870Y112453D01*
X195929Y112429D01*
X195987Y112401D01*
X196042Y112369D01*
X196096Y112335D01*
X196147Y112297D01*
X196197Y112256D01*
X196243Y112212D01*
X196287Y112166D01*
X196328Y112116D01*
X196366Y112065D01*
X196400Y112011D01*
X196432Y111956D01*
X196460Y111898D01*
X196484Y111839D01*
X196505Y111779D01*
X196522Y111717D01*
X196536Y111655D01*
X196545Y111592D01*
X196551Y111528D01*
X196553Y111464D01*
X196551Y111400D01*
X196545Y111336D01*
X196536Y111273D01*
X196522Y111211D01*
X196505Y111149D01*
X196484Y111089D01*
X196460Y111030D01*
X196432Y110972D01*
X196400Y110917D01*
X196366Y110863D01*
X196328Y110812D01*
X196287Y110762D01*
X196243Y110716D01*
X196197Y110672D01*
X196147Y110631D01*
X196096Y110593D01*
X196042Y110559D01*
X195987Y110527D01*
X195929Y110499D01*
X195870Y110475D01*
X195810Y110454D01*
X195748Y110437D01*
X195686Y110423D01*
X195623Y110414D01*
X195559Y110408D01*
X195495Y110406D01*
X195495Y110405D02*
X194437Y110405D01*
X197777Y112522D02*
X198624Y108712D01*
X199470Y111252D01*
X200317Y108712D01*
X201164Y112522D01*
X202700Y112522D02*
X202700Y108712D01*
X202700Y112522D02*
X203759Y112522D01*
X203823Y112520D01*
X203887Y112514D01*
X203950Y112505D01*
X204012Y112491D01*
X204074Y112474D01*
X204134Y112453D01*
X204193Y112429D01*
X204251Y112401D01*
X204306Y112369D01*
X204360Y112335D01*
X204411Y112297D01*
X204461Y112256D01*
X204507Y112212D01*
X204551Y112166D01*
X204592Y112116D01*
X204630Y112065D01*
X204664Y112011D01*
X204696Y111956D01*
X204724Y111898D01*
X204748Y111839D01*
X204769Y111779D01*
X204786Y111717D01*
X204800Y111655D01*
X204809Y111592D01*
X204815Y111528D01*
X204817Y111464D01*
X204815Y111400D01*
X204809Y111336D01*
X204800Y111273D01*
X204786Y111211D01*
X204769Y111149D01*
X204748Y111089D01*
X204724Y111030D01*
X204696Y110972D01*
X204664Y110917D01*
X204630Y110863D01*
X204592Y110812D01*
X204551Y110762D01*
X204507Y110716D01*
X204461Y110672D01*
X204411Y110631D01*
X204360Y110593D01*
X204306Y110559D01*
X204251Y110527D01*
X204193Y110499D01*
X204134Y110475D01*
X204074Y110454D01*
X204012Y110437D01*
X203950Y110423D01*
X203887Y110414D01*
X203823Y110408D01*
X203759Y110406D01*
X203759Y110405D02*
X202700Y110405D01*
X203970Y110405D02*
X204817Y108712D01*
D16*
X203200Y165100D03*
D12*
X206210Y157988D02*
X206210Y154178D01*
X206210Y157988D02*
X207268Y157988D01*
X207332Y157986D01*
X207396Y157980D01*
X207459Y157971D01*
X207521Y157957D01*
X207583Y157940D01*
X207643Y157919D01*
X207702Y157895D01*
X207760Y157867D01*
X207815Y157835D01*
X207869Y157801D01*
X207920Y157763D01*
X207970Y157722D01*
X208016Y157678D01*
X208060Y157632D01*
X208101Y157582D01*
X208139Y157531D01*
X208173Y157477D01*
X208205Y157422D01*
X208233Y157364D01*
X208257Y157305D01*
X208278Y157245D01*
X208295Y157183D01*
X208309Y157121D01*
X208318Y157058D01*
X208324Y156994D01*
X208326Y156930D01*
X208324Y156866D01*
X208318Y156802D01*
X208309Y156739D01*
X208295Y156677D01*
X208278Y156615D01*
X208257Y156555D01*
X208233Y156496D01*
X208205Y156438D01*
X208173Y156383D01*
X208139Y156329D01*
X208101Y156278D01*
X208060Y156228D01*
X208016Y156182D01*
X207970Y156138D01*
X207920Y156097D01*
X207869Y156059D01*
X207815Y156025D01*
X207760Y155993D01*
X207702Y155965D01*
X207643Y155941D01*
X207583Y155920D01*
X207521Y155903D01*
X207459Y155889D01*
X207396Y155880D01*
X207332Y155874D01*
X207268Y155872D01*
X207268Y155871D02*
X206210Y155871D01*
X207480Y155871D02*
X208326Y154178D01*
X209846Y157141D02*
X210905Y157988D01*
X210905Y154178D01*
X211963Y154178D02*
X209846Y154178D01*
D16*
X241300Y152400D03*
D12*
X244310Y145288D02*
X244310Y141478D01*
X244310Y145288D02*
X245368Y145288D01*
X245432Y145286D01*
X245496Y145280D01*
X245559Y145271D01*
X245621Y145257D01*
X245683Y145240D01*
X245743Y145219D01*
X245802Y145195D01*
X245860Y145167D01*
X245915Y145135D01*
X245969Y145101D01*
X246020Y145063D01*
X246070Y145022D01*
X246116Y144978D01*
X246160Y144932D01*
X246201Y144882D01*
X246239Y144831D01*
X246273Y144777D01*
X246305Y144722D01*
X246333Y144664D01*
X246357Y144605D01*
X246378Y144545D01*
X246395Y144483D01*
X246409Y144421D01*
X246418Y144358D01*
X246424Y144294D01*
X246426Y144230D01*
X246424Y144166D01*
X246418Y144102D01*
X246409Y144039D01*
X246395Y143977D01*
X246378Y143915D01*
X246357Y143855D01*
X246333Y143796D01*
X246305Y143738D01*
X246273Y143683D01*
X246239Y143629D01*
X246201Y143578D01*
X246160Y143528D01*
X246116Y143482D01*
X246070Y143438D01*
X246020Y143397D01*
X245969Y143359D01*
X245915Y143325D01*
X245860Y143293D01*
X245802Y143265D01*
X245743Y143241D01*
X245683Y143220D01*
X245621Y143203D01*
X245559Y143189D01*
X245496Y143180D01*
X245432Y143174D01*
X245368Y143172D01*
X245368Y143171D02*
X244310Y143171D01*
X245580Y143171D02*
X246426Y141478D01*
X250064Y144336D02*
X250062Y144396D01*
X250056Y144455D01*
X250047Y144515D01*
X250034Y144573D01*
X250017Y144630D01*
X249997Y144687D01*
X249973Y144742D01*
X249946Y144795D01*
X249916Y144847D01*
X249882Y144896D01*
X249845Y144943D01*
X249806Y144988D01*
X249763Y145031D01*
X249718Y145070D01*
X249671Y145107D01*
X249622Y145141D01*
X249570Y145171D01*
X249517Y145198D01*
X249462Y145222D01*
X249405Y145242D01*
X249348Y145259D01*
X249290Y145272D01*
X249230Y145281D01*
X249171Y145287D01*
X249111Y145289D01*
X249111Y145288D02*
X249044Y145286D01*
X248977Y145281D01*
X248911Y145272D01*
X248845Y145259D01*
X248781Y145243D01*
X248717Y145223D01*
X248654Y145199D01*
X248592Y145173D01*
X248533Y145143D01*
X248475Y145110D01*
X248418Y145073D01*
X248364Y145034D01*
X248312Y144992D01*
X248263Y144947D01*
X248216Y144899D01*
X248172Y144849D01*
X248130Y144796D01*
X248092Y144741D01*
X248056Y144685D01*
X248024Y144626D01*
X247995Y144566D01*
X247969Y144504D01*
X247947Y144441D01*
X249746Y143595D02*
X249787Y143637D01*
X249826Y143682D01*
X249863Y143728D01*
X249897Y143777D01*
X249928Y143827D01*
X249955Y143879D01*
X249980Y143933D01*
X250002Y143988D01*
X250021Y144044D01*
X250036Y144101D01*
X250048Y144159D01*
X250056Y144218D01*
X250061Y144277D01*
X250063Y144336D01*
X249746Y143595D02*
X247946Y141478D01*
X250063Y141478D01*
D16*
X279400Y152400D03*
D12*
X282410Y145288D02*
X282410Y141478D01*
X282410Y145288D02*
X283468Y145288D01*
X283532Y145286D01*
X283596Y145280D01*
X283659Y145271D01*
X283721Y145257D01*
X283783Y145240D01*
X283843Y145219D01*
X283902Y145195D01*
X283960Y145167D01*
X284015Y145135D01*
X284069Y145101D01*
X284120Y145063D01*
X284170Y145022D01*
X284216Y144978D01*
X284260Y144932D01*
X284301Y144882D01*
X284339Y144831D01*
X284373Y144777D01*
X284405Y144722D01*
X284433Y144664D01*
X284457Y144605D01*
X284478Y144545D01*
X284495Y144483D01*
X284509Y144421D01*
X284518Y144358D01*
X284524Y144294D01*
X284526Y144230D01*
X284524Y144166D01*
X284518Y144102D01*
X284509Y144039D01*
X284495Y143977D01*
X284478Y143915D01*
X284457Y143855D01*
X284433Y143796D01*
X284405Y143738D01*
X284373Y143683D01*
X284339Y143629D01*
X284301Y143578D01*
X284260Y143528D01*
X284216Y143482D01*
X284170Y143438D01*
X284120Y143397D01*
X284069Y143359D01*
X284015Y143325D01*
X283960Y143293D01*
X283902Y143265D01*
X283843Y143241D01*
X283783Y143220D01*
X283721Y143203D01*
X283659Y143189D01*
X283596Y143180D01*
X283532Y143174D01*
X283468Y143172D01*
X283468Y143171D02*
X282410Y143171D01*
X283680Y143171D02*
X284526Y141478D01*
X286046Y141478D02*
X287105Y141478D01*
X287169Y141480D01*
X287233Y141486D01*
X287296Y141495D01*
X287358Y141509D01*
X287420Y141526D01*
X287480Y141547D01*
X287539Y141571D01*
X287597Y141599D01*
X287652Y141631D01*
X287706Y141665D01*
X287757Y141703D01*
X287807Y141744D01*
X287853Y141788D01*
X287897Y141834D01*
X287938Y141884D01*
X287976Y141935D01*
X288010Y141989D01*
X288042Y142044D01*
X288070Y142102D01*
X288094Y142161D01*
X288115Y142221D01*
X288132Y142283D01*
X288146Y142345D01*
X288155Y142408D01*
X288161Y142472D01*
X288163Y142536D01*
X288161Y142600D01*
X288155Y142664D01*
X288146Y142727D01*
X288132Y142789D01*
X288115Y142851D01*
X288094Y142911D01*
X288070Y142970D01*
X288042Y143028D01*
X288010Y143083D01*
X287976Y143137D01*
X287938Y143188D01*
X287897Y143238D01*
X287853Y143284D01*
X287807Y143328D01*
X287757Y143369D01*
X287706Y143407D01*
X287652Y143441D01*
X287597Y143473D01*
X287539Y143501D01*
X287480Y143525D01*
X287420Y143546D01*
X287358Y143563D01*
X287296Y143577D01*
X287233Y143586D01*
X287169Y143592D01*
X287105Y143594D01*
X287316Y145288D02*
X286046Y145288D01*
X287316Y145288D02*
X287373Y145286D01*
X287429Y145280D01*
X287485Y145271D01*
X287540Y145258D01*
X287594Y145241D01*
X287647Y145221D01*
X287698Y145197D01*
X287748Y145170D01*
X287795Y145139D01*
X287841Y145106D01*
X287884Y145069D01*
X287925Y145030D01*
X287963Y144988D01*
X287998Y144943D01*
X288030Y144897D01*
X288059Y144848D01*
X288084Y144798D01*
X288106Y144745D01*
X288125Y144692D01*
X288140Y144637D01*
X288151Y144582D01*
X288159Y144526D01*
X288163Y144469D01*
X288163Y144413D01*
X288159Y144356D01*
X288151Y144300D01*
X288140Y144245D01*
X288125Y144190D01*
X288106Y144137D01*
X288084Y144084D01*
X288059Y144034D01*
X288030Y143985D01*
X287998Y143939D01*
X287963Y143894D01*
X287925Y143852D01*
X287884Y143813D01*
X287841Y143776D01*
X287795Y143743D01*
X287748Y143712D01*
X287698Y143685D01*
X287647Y143661D01*
X287594Y143641D01*
X287540Y143624D01*
X287485Y143611D01*
X287429Y143602D01*
X287373Y143596D01*
X287316Y143594D01*
X287316Y143595D02*
X286470Y143595D01*
D16*
X279400Y165100D03*
D12*
X282410Y157988D02*
X282410Y154178D01*
X282410Y157988D02*
X283468Y157988D01*
X283532Y157986D01*
X283596Y157980D01*
X283659Y157971D01*
X283721Y157957D01*
X283783Y157940D01*
X283843Y157919D01*
X283902Y157895D01*
X283960Y157867D01*
X284015Y157835D01*
X284069Y157801D01*
X284120Y157763D01*
X284170Y157722D01*
X284216Y157678D01*
X284260Y157632D01*
X284301Y157582D01*
X284339Y157531D01*
X284373Y157477D01*
X284405Y157422D01*
X284433Y157364D01*
X284457Y157305D01*
X284478Y157245D01*
X284495Y157183D01*
X284509Y157121D01*
X284518Y157058D01*
X284524Y156994D01*
X284526Y156930D01*
X284524Y156866D01*
X284518Y156802D01*
X284509Y156739D01*
X284495Y156677D01*
X284478Y156615D01*
X284457Y156555D01*
X284433Y156496D01*
X284405Y156438D01*
X284373Y156383D01*
X284339Y156329D01*
X284301Y156278D01*
X284260Y156228D01*
X284216Y156182D01*
X284170Y156138D01*
X284120Y156097D01*
X284069Y156059D01*
X284015Y156025D01*
X283960Y155993D01*
X283902Y155965D01*
X283843Y155941D01*
X283783Y155920D01*
X283721Y155903D01*
X283659Y155889D01*
X283596Y155880D01*
X283532Y155874D01*
X283468Y155872D01*
X283468Y155871D02*
X282410Y155871D01*
X283680Y155871D02*
X284526Y154178D01*
X286046Y155025D02*
X286893Y157988D01*
X286046Y155025D02*
X288163Y155025D01*
X287528Y155871D02*
X287528Y154178D01*
D16*
X203200Y152400D03*
D12*
X206210Y145288D02*
X206210Y141478D01*
X206210Y145288D02*
X207268Y145288D01*
X207332Y145286D01*
X207396Y145280D01*
X207459Y145271D01*
X207521Y145257D01*
X207583Y145240D01*
X207643Y145219D01*
X207702Y145195D01*
X207760Y145167D01*
X207815Y145135D01*
X207869Y145101D01*
X207920Y145063D01*
X207970Y145022D01*
X208016Y144978D01*
X208060Y144932D01*
X208101Y144882D01*
X208139Y144831D01*
X208173Y144777D01*
X208205Y144722D01*
X208233Y144664D01*
X208257Y144605D01*
X208278Y144545D01*
X208295Y144483D01*
X208309Y144421D01*
X208318Y144358D01*
X208324Y144294D01*
X208326Y144230D01*
X208324Y144166D01*
X208318Y144102D01*
X208309Y144039D01*
X208295Y143977D01*
X208278Y143915D01*
X208257Y143855D01*
X208233Y143796D01*
X208205Y143738D01*
X208173Y143683D01*
X208139Y143629D01*
X208101Y143578D01*
X208060Y143528D01*
X208016Y143482D01*
X207970Y143438D01*
X207920Y143397D01*
X207869Y143359D01*
X207815Y143325D01*
X207760Y143293D01*
X207702Y143265D01*
X207643Y143241D01*
X207583Y143220D01*
X207521Y143203D01*
X207459Y143189D01*
X207396Y143180D01*
X207332Y143174D01*
X207268Y143172D01*
X207268Y143171D02*
X206210Y143171D01*
X207480Y143171D02*
X208326Y141478D01*
X209846Y141478D02*
X211116Y141478D01*
X211171Y141480D01*
X211227Y141485D01*
X211281Y141494D01*
X211335Y141507D01*
X211388Y141523D01*
X211440Y141542D01*
X211491Y141565D01*
X211540Y141591D01*
X211587Y141621D01*
X211632Y141653D01*
X211674Y141688D01*
X211715Y141726D01*
X211753Y141767D01*
X211788Y141809D01*
X211820Y141854D01*
X211850Y141902D01*
X211876Y141950D01*
X211899Y142001D01*
X211918Y142053D01*
X211934Y142106D01*
X211947Y142160D01*
X211956Y142214D01*
X211961Y142270D01*
X211963Y142325D01*
X211963Y142748D01*
X211961Y142803D01*
X211956Y142859D01*
X211947Y142913D01*
X211934Y142967D01*
X211918Y143020D01*
X211899Y143072D01*
X211876Y143123D01*
X211850Y143172D01*
X211820Y143219D01*
X211788Y143264D01*
X211753Y143306D01*
X211715Y143347D01*
X211674Y143385D01*
X211632Y143420D01*
X211587Y143452D01*
X211540Y143482D01*
X211491Y143508D01*
X211440Y143531D01*
X211388Y143550D01*
X211335Y143566D01*
X211281Y143579D01*
X211227Y143588D01*
X211171Y143593D01*
X211116Y143595D01*
X209846Y143595D01*
X209846Y145288D01*
X211963Y145288D01*
D14*
X355600Y161600D02*
X355600Y41600D01*
X343400Y41600D01*
X343400Y161600D02*
X355600Y161600D01*
X313400Y141600D02*
X313400Y61600D01*
D17*
X427136Y39265D02*
X427136Y35511D01*
X427134Y35446D01*
X427128Y35382D01*
X427118Y35318D01*
X427105Y35254D01*
X427087Y35192D01*
X427066Y35131D01*
X427042Y35071D01*
X427013Y35013D01*
X426981Y34956D01*
X426946Y34902D01*
X426908Y34850D01*
X426866Y34800D01*
X426822Y34753D01*
X426775Y34709D01*
X426725Y34667D01*
X426673Y34629D01*
X426619Y34594D01*
X426562Y34562D01*
X426504Y34533D01*
X426444Y34509D01*
X426383Y34488D01*
X426321Y34470D01*
X426257Y34457D01*
X426193Y34447D01*
X426129Y34441D01*
X426064Y34439D01*
X425527Y34439D01*
X430084Y38193D02*
X431424Y39265D01*
X431424Y34439D01*
X430084Y34439D02*
X432765Y34439D01*
M02*
