G04 EAGLE Gerber RS-274X export*
G75*
%MOMM*%
%FSLAX34Y34*%
%LPD*%
%INSoldermask Top*%
%IPPOS*%
%AMOC8*
5,1,8,0,0,1.08239X$1,22.5*%
G01*
%ADD10R,0.903200X1.103200*%
%ADD11R,1.003200X1.403200*%
%ADD12R,0.833200X1.033200*%
%ADD13R,1.603200X1.603200*%
%ADD14R,0.812800X2.413000*%
%ADD15R,1.003200X1.003200*%
%ADD16R,2.703200X1.003200*%
%ADD17C,1.981200*%
%ADD18C,1.303200*%
%ADD19C,1.003200*%
%ADD20C,0.959600*%


D10*
X247800Y165100D03*
X234800Y165100D03*
D11*
X194200Y63500D03*
X212200Y63500D03*
D12*
X214700Y127000D03*
X191700Y127000D03*
X278200Y38100D03*
X255200Y38100D03*
D13*
X234900Y38100D03*
X196900Y38100D03*
D14*
X234950Y67818D03*
X247650Y67818D03*
X260350Y67818D03*
X273050Y67818D03*
X273050Y135128D03*
X260350Y135128D03*
X247650Y135128D03*
X234950Y135128D03*
D15*
X210700Y88900D03*
X195700Y88900D03*
X210700Y101600D03*
X195700Y101600D03*
D10*
X209700Y165100D03*
X196700Y165100D03*
X247800Y152400D03*
X234800Y152400D03*
X285900Y152400D03*
X272900Y152400D03*
X285900Y165100D03*
X272900Y165100D03*
X209700Y152400D03*
X196700Y152400D03*
D16*
X296900Y91330D03*
X296900Y111870D03*
X296900Y66092D03*
X296900Y136600D03*
D17*
X316210Y43100D02*
X333990Y43100D01*
X333990Y160100D02*
X316210Y160100D01*
D18*
X324400Y79100D03*
X324400Y124100D03*
D19*
X321100Y160100D03*
X317100Y160100D03*
X329100Y160100D03*
X333100Y160100D03*
X321100Y43100D03*
X317100Y43100D03*
X329100Y43100D03*
X333100Y43100D03*
D20*
X219456Y137160D03*
X281940Y126492D03*
X252984Y117348D03*
X277368Y92964D03*
X205740Y126492D03*
X205740Y76200D03*
X198120Y111252D03*
X198120Y51816D03*
X295656Y149352D03*
X257556Y155448D03*
X228600Y105156D03*
X248412Y85344D03*
X248412Y50292D03*
X291084Y126492D03*
M02*
