G04 EAGLE Gerber RS-274X export*
G75*
%MOMM*%
%FSLAX34Y34*%
%LPD*%
%INTop Copper*%
%IPPOS*%
%AMOC8*
5,1,8,0,0,1.08239X$1,22.5*%
G01*
%ADD10R,0.700000X0.900000*%
%ADD11R,0.800000X1.200000*%
%ADD12R,0.630000X0.830000*%
%ADD13R,1.400000X1.400000*%
%ADD14R,2.209800X0.609600*%
%ADD15C,1.879600*%
%ADD16R,0.800000X0.800000*%
%ADD17R,6.200000X5.800000*%
%ADD18R,3.000000X1.600000*%
%ADD19R,2.500000X0.800000*%
%ADD20C,1.778000*%
%ADD21C,0.152400*%
%ADD22C,0.756400*%


D10*
X285600Y368300D03*
X298600Y368300D03*
D11*
X245000Y317500D03*
X263000Y317500D03*
D12*
X153600Y241300D03*
X176600Y241300D03*
X280600Y317500D03*
X303600Y317500D03*
D13*
X247700Y279400D03*
X285700Y279400D03*
D14*
X186182Y260350D03*
X186182Y273050D03*
X186182Y285750D03*
X186182Y298450D03*
X118872Y298450D03*
X118872Y285750D03*
X118872Y273050D03*
X118872Y260350D03*
D15*
X241300Y241300D03*
X266700Y241300D03*
X292100Y241300D03*
X88900Y368300D03*
X88900Y342900D03*
X88900Y317500D03*
X88900Y292100D03*
X88900Y266700D03*
X88900Y241300D03*
D16*
X208400Y292100D03*
X223400Y292100D03*
X208400Y266700D03*
X223400Y266700D03*
D10*
X247500Y342900D03*
X260500Y342900D03*
X120500Y241300D03*
X133500Y241300D03*
X247500Y368300D03*
X260500Y368300D03*
X285600Y342900D03*
X298600Y342900D03*
X196700Y241300D03*
X209700Y241300D03*
D17*
X141300Y342900D03*
D18*
X213100Y320100D03*
X213100Y365700D03*
D19*
X322300Y294530D03*
X322300Y315070D03*
X322300Y269292D03*
X322300Y339800D03*
D20*
X341610Y246300D02*
X359390Y246300D01*
X359390Y363300D02*
X341610Y363300D01*
D21*
X153924Y259080D02*
X153924Y242316D01*
X234696Y339852D02*
X243840Y339852D01*
X246888Y342900D01*
X153924Y242316D02*
X153600Y241300D01*
X246888Y342900D02*
X247500Y342900D01*
X260604Y355092D02*
X260604Y367284D01*
X265176Y350520D02*
X266700Y348996D01*
X265176Y350520D02*
X260604Y355092D01*
X266700Y348996D02*
X266700Y336804D01*
X265176Y335280D01*
X256032Y335280D01*
X248412Y342900D01*
X260604Y367284D02*
X260500Y368300D01*
X248412Y342900D02*
X247500Y342900D01*
X323088Y313944D02*
X339852Y313944D01*
X344424Y309372D01*
X356616Y309372D01*
X367284Y320040D01*
X367284Y333756D01*
X353568Y347472D01*
X306324Y347472D01*
X303276Y350520D01*
X265176Y350520D01*
X322300Y315070D02*
X323088Y313944D01*
D22*
X153924Y259080D03*
X234696Y339852D03*
D21*
X281940Y318516D02*
X295656Y332232D01*
X297180Y332232D01*
X312420Y304800D02*
X321564Y295656D01*
X281940Y318516D02*
X280600Y317500D01*
X321564Y295656D02*
X322300Y294530D01*
X120396Y242316D02*
X117348Y242316D01*
X111252Y248412D01*
X120396Y242316D02*
X120500Y241300D01*
D22*
X297180Y332232D03*
X312420Y304800D03*
X111252Y248412D03*
D21*
X286512Y379476D02*
X297180Y368808D01*
X286512Y379476D02*
X178308Y379476D01*
X141732Y342900D01*
X297180Y368808D02*
X298600Y368300D01*
X141732Y342900D02*
X141300Y342900D01*
X284988Y342900D02*
X284988Y339852D01*
X263652Y318516D01*
X284988Y342900D02*
X285600Y342900D01*
X263652Y318516D02*
X263000Y317500D01*
X185928Y324612D02*
X185928Y298704D01*
X185928Y324612D02*
X195072Y333756D01*
X246888Y333756D01*
X262128Y318516D01*
X186182Y298450D02*
X185928Y298704D01*
X262128Y318516D02*
X263000Y317500D01*
X304800Y316992D02*
X304800Y286512D01*
X307848Y283464D02*
X321564Y269748D01*
X307848Y283464D02*
X304800Y286512D01*
X304800Y316992D02*
X303600Y317500D01*
X321564Y269748D02*
X322300Y269292D01*
X196596Y242316D02*
X176784Y242316D01*
X176600Y241300D01*
X196596Y242316D02*
X196700Y241300D01*
X198120Y242316D02*
X208788Y252984D01*
X198120Y242316D02*
X196700Y241300D01*
X266700Y242316D02*
X307848Y283464D01*
X266700Y242316D02*
X266700Y241300D01*
X262128Y297180D02*
X262128Y316992D01*
X263000Y317500D01*
X298704Y368808D02*
X326136Y368808D01*
X336804Y379476D01*
X364236Y379476D01*
X374904Y368808D01*
X374904Y283464D01*
X356616Y265176D01*
X326136Y265176D01*
X323088Y268224D01*
X298600Y368300D02*
X298704Y368808D01*
X322300Y269292D02*
X323088Y268224D01*
D22*
X208788Y252984D03*
X262128Y297180D03*
D21*
X246888Y367284D02*
X214884Y367284D01*
X213360Y365760D01*
X246888Y367284D02*
X247500Y368300D01*
X213360Y365760D02*
X213100Y365700D01*
X271272Y368808D02*
X284988Y368808D01*
X271272Y368808D02*
X263652Y376428D01*
X256032Y376428D01*
X248412Y368808D01*
X284988Y368808D02*
X285600Y368300D01*
X248412Y368808D02*
X247500Y368300D01*
X222504Y274320D02*
X222504Y266700D01*
X222504Y274320D02*
X217932Y278892D01*
X217932Y284988D01*
X214884Y288036D01*
X214884Y297180D01*
X202692Y309372D01*
X196596Y309372D01*
X195072Y310896D01*
X195072Y329184D01*
X196596Y330708D01*
X231648Y330708D01*
X243840Y318516D01*
X223400Y266700D02*
X222504Y266700D01*
X245000Y317500D02*
X243840Y318516D01*
X284988Y278892D02*
X254508Y248412D01*
X254508Y236220D01*
X262128Y228600D01*
X278892Y228600D01*
X291084Y240792D01*
X284988Y278892D02*
X285700Y279400D01*
X292100Y241300D02*
X291084Y240792D01*
X144780Y260604D02*
X118872Y260604D01*
X118872Y260350D01*
X192024Y307848D02*
X195072Y310896D01*
X248412Y356616D02*
X248412Y367284D01*
X247500Y368300D01*
D22*
X144780Y260604D03*
X192024Y307848D03*
X248412Y356616D03*
D21*
X251460Y350520D02*
X259080Y342900D01*
X251460Y350520D02*
X207264Y350520D01*
X175260Y318516D01*
X175260Y306324D01*
X172212Y303276D01*
X172212Y281940D01*
X179832Y274320D01*
X185928Y274320D01*
X259080Y342900D02*
X260500Y342900D01*
X185928Y274320D02*
X186182Y273050D01*
X89916Y283464D02*
X89916Y291084D01*
X89916Y283464D02*
X106680Y266700D01*
X156972Y266700D01*
X172212Y281940D01*
X89916Y291084D02*
X88900Y292100D01*
X109728Y307848D02*
X118872Y298704D01*
X109728Y307848D02*
X108204Y307848D01*
X100584Y315468D01*
X100584Y356616D01*
X88900Y368300D01*
X118872Y298704D02*
X118872Y298450D01*
X118872Y274320D02*
X112776Y274320D01*
X100584Y286512D01*
X100584Y306324D01*
X89916Y316992D01*
X118872Y274320D02*
X118872Y273050D01*
X89916Y316992D02*
X88900Y317500D01*
X120396Y254508D02*
X132588Y242316D01*
X120396Y254508D02*
X102108Y254508D01*
X89916Y266700D01*
X132588Y242316D02*
X133500Y241300D01*
X89916Y266700D02*
X88900Y266700D01*
X187452Y284988D02*
X192024Y284988D01*
X199644Y277368D01*
X199644Y256032D01*
X192024Y248412D01*
X172212Y248412D01*
X158496Y234696D01*
X140208Y234696D01*
X134112Y240792D01*
X186182Y285750D02*
X187452Y284988D01*
X134112Y240792D02*
X133500Y241300D01*
X208788Y286512D02*
X208788Y291084D01*
X208788Y286512D02*
X214884Y280416D01*
X214884Y246888D01*
X210312Y242316D01*
X208788Y291084D02*
X208400Y292100D01*
X210312Y242316D02*
X209700Y241300D01*
X213360Y313944D02*
X213360Y320040D01*
X213360Y313944D02*
X237744Y289560D01*
X237744Y245364D01*
X240792Y242316D01*
X213360Y320040D02*
X213100Y320100D01*
X240792Y242316D02*
X241300Y241300D01*
X208788Y266700D02*
X208788Y277368D01*
X284988Y330708D02*
X297180Y342900D01*
X208788Y266700D02*
X208400Y266700D01*
X297180Y342900D02*
X298600Y342900D01*
D22*
X208788Y277368D03*
X284988Y330708D03*
D21*
X185928Y259080D02*
X163068Y259080D01*
X185928Y259080D02*
X186182Y260350D01*
D22*
X163068Y259080D03*
D21*
X224028Y277368D02*
X224028Y291084D01*
X224028Y277368D02*
X230124Y271272D01*
X230124Y249936D01*
X211836Y231648D01*
X115824Y231648D01*
X92964Y254508D01*
X83820Y254508D01*
X76200Y262128D01*
X76200Y330708D01*
X88392Y342900D01*
X223400Y292100D02*
X224028Y291084D01*
X124968Y286512D02*
X118872Y286512D01*
X124968Y286512D02*
X132588Y294132D01*
X132588Y303276D01*
X124968Y310896D01*
X109728Y310896D01*
X103632Y316992D01*
X103632Y370332D01*
X92964Y381000D01*
X83820Y381000D01*
X76200Y373380D01*
X76200Y355092D01*
X88392Y342900D01*
X118872Y286512D02*
X118872Y285750D01*
X88900Y342900D02*
X88392Y342900D01*
X248412Y280416D02*
X254508Y280416D01*
X312420Y338328D01*
X321564Y338328D01*
X248412Y280416D02*
X247700Y279400D01*
X321564Y338328D02*
X322300Y339800D01*
M02*
