G04 EAGLE Gerber RS-274X export*
G75*
%MOMM*%
%FSLAX34Y34*%
%LPD*%
%IN*%
%IPPOS*%
%AMOC8*
5,1,8,0,0,1.08239X$1,22.5*%
G01*
%ADD10C,0.254000*%


D10*
X63500Y215900D02*
X390400Y215900D01*
X390400Y393600D01*
X63500Y393600D01*
X63500Y215900D01*
X344300Y282609D02*
X344369Y283223D01*
X344507Y283825D01*
X344711Y284408D01*
X344979Y284965D01*
X345307Y285488D01*
X345693Y285971D01*
X346129Y286408D01*
X346612Y286793D01*
X347135Y287121D01*
X347692Y287389D01*
X348275Y287593D01*
X348877Y287731D01*
X349491Y287800D01*
X350109Y287800D01*
X350723Y287731D01*
X351325Y287593D01*
X351908Y287389D01*
X352465Y287121D01*
X352988Y286793D01*
X353471Y286408D01*
X353908Y285971D01*
X354293Y285488D01*
X354621Y284965D01*
X354889Y284408D01*
X355093Y283825D01*
X355231Y283223D01*
X355300Y282609D01*
X355300Y281991D01*
X355231Y281377D01*
X355093Y280775D01*
X354889Y280192D01*
X354621Y279635D01*
X354293Y279112D01*
X353908Y278629D01*
X353471Y278193D01*
X352988Y277807D01*
X352465Y277479D01*
X351908Y277211D01*
X351325Y277007D01*
X350723Y276869D01*
X350109Y276800D01*
X349491Y276800D01*
X348877Y276869D01*
X348275Y277007D01*
X347692Y277211D01*
X347135Y277479D01*
X346612Y277807D01*
X346129Y278193D01*
X345693Y278629D01*
X345307Y279112D01*
X344979Y279635D01*
X344711Y280192D01*
X344507Y280775D01*
X344369Y281377D01*
X344300Y281991D01*
X344300Y282609D01*
X344300Y327609D02*
X344369Y328223D01*
X344507Y328825D01*
X344711Y329408D01*
X344979Y329965D01*
X345307Y330488D01*
X345693Y330971D01*
X346129Y331408D01*
X346612Y331793D01*
X347135Y332121D01*
X347692Y332389D01*
X348275Y332593D01*
X348877Y332731D01*
X349491Y332800D01*
X350109Y332800D01*
X350723Y332731D01*
X351325Y332593D01*
X351908Y332389D01*
X352465Y332121D01*
X352988Y331793D01*
X353471Y331408D01*
X353908Y330971D01*
X354293Y330488D01*
X354621Y329965D01*
X354889Y329408D01*
X355093Y328825D01*
X355231Y328223D01*
X355300Y327609D01*
X355300Y326991D01*
X355231Y326377D01*
X355093Y325775D01*
X354889Y325192D01*
X354621Y324635D01*
X354293Y324112D01*
X353908Y323629D01*
X353471Y323193D01*
X352988Y322807D01*
X352465Y322479D01*
X351908Y322211D01*
X351325Y322007D01*
X350723Y321869D01*
X350109Y321800D01*
X349491Y321800D01*
X348877Y321869D01*
X348275Y322007D01*
X347692Y322211D01*
X347135Y322479D01*
X346612Y322807D01*
X346129Y323193D01*
X345693Y323629D01*
X345307Y324112D01*
X344979Y324635D01*
X344711Y325192D01*
X344507Y325775D01*
X344369Y326377D01*
X344300Y326991D01*
X344300Y327609D01*
X342500Y363562D02*
X342568Y364082D01*
X342704Y364589D01*
X342905Y365073D01*
X343167Y365527D01*
X343486Y365943D01*
X343857Y366314D01*
X344273Y366633D01*
X344727Y366895D01*
X345211Y367096D01*
X345718Y367232D01*
X346238Y367300D01*
X346762Y367300D01*
X347282Y367232D01*
X347789Y367096D01*
X348273Y366895D01*
X348727Y366633D01*
X349143Y366314D01*
X349514Y365943D01*
X349833Y365527D01*
X350095Y365073D01*
X350296Y364589D01*
X350432Y364082D01*
X350500Y363562D01*
X350500Y363038D01*
X350432Y362518D01*
X350296Y362011D01*
X350095Y361527D01*
X349833Y361073D01*
X349514Y360657D01*
X349143Y360286D01*
X348727Y359967D01*
X348273Y359705D01*
X347789Y359504D01*
X347282Y359368D01*
X346762Y359300D01*
X346238Y359300D01*
X345718Y359368D01*
X345211Y359504D01*
X344727Y359705D01*
X344273Y359967D01*
X343857Y360286D01*
X343486Y360657D01*
X343167Y361073D01*
X342905Y361527D01*
X342704Y362011D01*
X342568Y362518D01*
X342500Y363038D01*
X342500Y363562D01*
X338500Y363562D02*
X338568Y364082D01*
X338704Y364589D01*
X338905Y365073D01*
X339167Y365527D01*
X339486Y365943D01*
X339857Y366314D01*
X340273Y366633D01*
X340727Y366895D01*
X341211Y367096D01*
X341718Y367232D01*
X342238Y367300D01*
X342762Y367300D01*
X343282Y367232D01*
X343789Y367096D01*
X344273Y366895D01*
X344727Y366633D01*
X345143Y366314D01*
X345514Y365943D01*
X345833Y365527D01*
X346095Y365073D01*
X346296Y364589D01*
X346432Y364082D01*
X346500Y363562D01*
X346500Y363038D01*
X346432Y362518D01*
X346296Y362011D01*
X346095Y361527D01*
X345833Y361073D01*
X345514Y360657D01*
X345143Y360286D01*
X344727Y359967D01*
X344273Y359705D01*
X343789Y359504D01*
X343282Y359368D01*
X342762Y359300D01*
X342238Y359300D01*
X341718Y359368D01*
X341211Y359504D01*
X340727Y359705D01*
X340273Y359967D01*
X339857Y360286D01*
X339486Y360657D01*
X339167Y361073D01*
X338905Y361527D01*
X338704Y362011D01*
X338568Y362518D01*
X338500Y363038D01*
X338500Y363562D01*
X350500Y363562D02*
X350568Y364082D01*
X350704Y364589D01*
X350905Y365073D01*
X351167Y365527D01*
X351486Y365943D01*
X351857Y366314D01*
X352273Y366633D01*
X352727Y366895D01*
X353211Y367096D01*
X353718Y367232D01*
X354238Y367300D01*
X354762Y367300D01*
X355282Y367232D01*
X355789Y367096D01*
X356273Y366895D01*
X356727Y366633D01*
X357143Y366314D01*
X357514Y365943D01*
X357833Y365527D01*
X358095Y365073D01*
X358296Y364589D01*
X358432Y364082D01*
X358500Y363562D01*
X358500Y363038D01*
X358432Y362518D01*
X358296Y362011D01*
X358095Y361527D01*
X357833Y361073D01*
X357514Y360657D01*
X357143Y360286D01*
X356727Y359967D01*
X356273Y359705D01*
X355789Y359504D01*
X355282Y359368D01*
X354762Y359300D01*
X354238Y359300D01*
X353718Y359368D01*
X353211Y359504D01*
X352727Y359705D01*
X352273Y359967D01*
X351857Y360286D01*
X351486Y360657D01*
X351167Y361073D01*
X350905Y361527D01*
X350704Y362011D01*
X350568Y362518D01*
X350500Y363038D01*
X350500Y363562D01*
X354500Y363562D02*
X354568Y364082D01*
X354704Y364589D01*
X354905Y365073D01*
X355167Y365527D01*
X355486Y365943D01*
X355857Y366314D01*
X356273Y366633D01*
X356727Y366895D01*
X357211Y367096D01*
X357718Y367232D01*
X358238Y367300D01*
X358762Y367300D01*
X359282Y367232D01*
X359789Y367096D01*
X360273Y366895D01*
X360727Y366633D01*
X361143Y366314D01*
X361514Y365943D01*
X361833Y365527D01*
X362095Y365073D01*
X362296Y364589D01*
X362432Y364082D01*
X362500Y363562D01*
X362500Y363038D01*
X362432Y362518D01*
X362296Y362011D01*
X362095Y361527D01*
X361833Y361073D01*
X361514Y360657D01*
X361143Y360286D01*
X360727Y359967D01*
X360273Y359705D01*
X359789Y359504D01*
X359282Y359368D01*
X358762Y359300D01*
X358238Y359300D01*
X357718Y359368D01*
X357211Y359504D01*
X356727Y359705D01*
X356273Y359967D01*
X355857Y360286D01*
X355486Y360657D01*
X355167Y361073D01*
X354905Y361527D01*
X354704Y362011D01*
X354568Y362518D01*
X354500Y363038D01*
X354500Y363562D01*
X342500Y246562D02*
X342568Y247082D01*
X342704Y247589D01*
X342905Y248073D01*
X343167Y248527D01*
X343486Y248943D01*
X343857Y249314D01*
X344273Y249633D01*
X344727Y249895D01*
X345211Y250096D01*
X345718Y250232D01*
X346238Y250300D01*
X346762Y250300D01*
X347282Y250232D01*
X347789Y250096D01*
X348273Y249895D01*
X348727Y249633D01*
X349143Y249314D01*
X349514Y248943D01*
X349833Y248527D01*
X350095Y248073D01*
X350296Y247589D01*
X350432Y247082D01*
X350500Y246562D01*
X350500Y246038D01*
X350432Y245518D01*
X350296Y245011D01*
X350095Y244527D01*
X349833Y244073D01*
X349514Y243657D01*
X349143Y243286D01*
X348727Y242967D01*
X348273Y242705D01*
X347789Y242504D01*
X347282Y242368D01*
X346762Y242300D01*
X346238Y242300D01*
X345718Y242368D01*
X345211Y242504D01*
X344727Y242705D01*
X344273Y242967D01*
X343857Y243286D01*
X343486Y243657D01*
X343167Y244073D01*
X342905Y244527D01*
X342704Y245011D01*
X342568Y245518D01*
X342500Y246038D01*
X342500Y246562D01*
X338500Y246562D02*
X338568Y247082D01*
X338704Y247589D01*
X338905Y248073D01*
X339167Y248527D01*
X339486Y248943D01*
X339857Y249314D01*
X340273Y249633D01*
X340727Y249895D01*
X341211Y250096D01*
X341718Y250232D01*
X342238Y250300D01*
X342762Y250300D01*
X343282Y250232D01*
X343789Y250096D01*
X344273Y249895D01*
X344727Y249633D01*
X345143Y249314D01*
X345514Y248943D01*
X345833Y248527D01*
X346095Y248073D01*
X346296Y247589D01*
X346432Y247082D01*
X346500Y246562D01*
X346500Y246038D01*
X346432Y245518D01*
X346296Y245011D01*
X346095Y244527D01*
X345833Y244073D01*
X345514Y243657D01*
X345143Y243286D01*
X344727Y242967D01*
X344273Y242705D01*
X343789Y242504D01*
X343282Y242368D01*
X342762Y242300D01*
X342238Y242300D01*
X341718Y242368D01*
X341211Y242504D01*
X340727Y242705D01*
X340273Y242967D01*
X339857Y243286D01*
X339486Y243657D01*
X339167Y244073D01*
X338905Y244527D01*
X338704Y245011D01*
X338568Y245518D01*
X338500Y246038D01*
X338500Y246562D01*
X350500Y246562D02*
X350568Y247082D01*
X350704Y247589D01*
X350905Y248073D01*
X351167Y248527D01*
X351486Y248943D01*
X351857Y249314D01*
X352273Y249633D01*
X352727Y249895D01*
X353211Y250096D01*
X353718Y250232D01*
X354238Y250300D01*
X354762Y250300D01*
X355282Y250232D01*
X355789Y250096D01*
X356273Y249895D01*
X356727Y249633D01*
X357143Y249314D01*
X357514Y248943D01*
X357833Y248527D01*
X358095Y248073D01*
X358296Y247589D01*
X358432Y247082D01*
X358500Y246562D01*
X358500Y246038D01*
X358432Y245518D01*
X358296Y245011D01*
X358095Y244527D01*
X357833Y244073D01*
X357514Y243657D01*
X357143Y243286D01*
X356727Y242967D01*
X356273Y242705D01*
X355789Y242504D01*
X355282Y242368D01*
X354762Y242300D01*
X354238Y242300D01*
X353718Y242368D01*
X353211Y242504D01*
X352727Y242705D01*
X352273Y242967D01*
X351857Y243286D01*
X351486Y243657D01*
X351167Y244073D01*
X350905Y244527D01*
X350704Y245011D01*
X350568Y245518D01*
X350500Y246038D01*
X350500Y246562D01*
X354500Y246562D02*
X354568Y247082D01*
X354704Y247589D01*
X354905Y248073D01*
X355167Y248527D01*
X355486Y248943D01*
X355857Y249314D01*
X356273Y249633D01*
X356727Y249895D01*
X357211Y250096D01*
X357718Y250232D01*
X358238Y250300D01*
X358762Y250300D01*
X359282Y250232D01*
X359789Y250096D01*
X360273Y249895D01*
X360727Y249633D01*
X361143Y249314D01*
X361514Y248943D01*
X361833Y248527D01*
X362095Y248073D01*
X362296Y247589D01*
X362432Y247082D01*
X362500Y246562D01*
X362500Y246038D01*
X362432Y245518D01*
X362296Y245011D01*
X362095Y244527D01*
X361833Y244073D01*
X361514Y243657D01*
X361143Y243286D01*
X360727Y242967D01*
X360273Y242705D01*
X359789Y242504D01*
X359282Y242368D01*
X358762Y242300D01*
X358238Y242300D01*
X357718Y242368D01*
X357211Y242504D01*
X356727Y242705D01*
X356273Y242967D01*
X355857Y243286D01*
X355486Y243657D01*
X355167Y244073D01*
X354905Y244527D01*
X354704Y245011D01*
X354568Y245518D01*
X354500Y246038D01*
X354500Y246562D01*
M02*
