G04 EAGLE Gerber RS-274X export*
G75*
%MOMM*%
%FSLAX34Y34*%
%LPD*%
%INSilkscreen Top*%
%IPPOS*%
%AMOC8*
5,1,8,0,0,1.08239X$1,22.5*%
G01*
%ADD10C,0.050800*%
%ADD11C,0.406400*%
%ADD12C,0.025400*%
%ADD13C,0.152400*%
%ADD14C,0.203200*%
%ADD15C,0.101600*%
%ADD16C,0.127000*%
%ADD17R,0.406400X0.711200*%
%ADD18R,0.762000X0.863600*%


D10*
X232015Y381254D02*
X230039Y381254D01*
X229973Y381256D01*
X229906Y381261D01*
X229841Y381271D01*
X229775Y381284D01*
X229711Y381300D01*
X229648Y381320D01*
X229586Y381344D01*
X229525Y381371D01*
X229466Y381402D01*
X229409Y381436D01*
X229353Y381473D01*
X229300Y381513D01*
X229249Y381555D01*
X229201Y381601D01*
X229155Y381649D01*
X229113Y381700D01*
X229073Y381753D01*
X229036Y381809D01*
X229002Y381866D01*
X228971Y381925D01*
X228944Y381986D01*
X228920Y382048D01*
X228900Y382111D01*
X228884Y382175D01*
X228871Y382241D01*
X228861Y382306D01*
X228856Y382373D01*
X228854Y382439D01*
X228854Y384810D01*
X228856Y384876D01*
X228861Y384943D01*
X228871Y385008D01*
X228884Y385074D01*
X228900Y385138D01*
X228920Y385201D01*
X228944Y385263D01*
X228971Y385324D01*
X229002Y385383D01*
X229036Y385440D01*
X229073Y385496D01*
X229113Y385549D01*
X229155Y385600D01*
X229201Y385648D01*
X229249Y385694D01*
X229300Y385736D01*
X229353Y385776D01*
X229409Y385813D01*
X229466Y385847D01*
X229525Y385878D01*
X229586Y385905D01*
X229648Y385929D01*
X229711Y385949D01*
X229775Y385965D01*
X229841Y385978D01*
X229906Y385988D01*
X229973Y385993D01*
X230039Y385995D01*
X232015Y385995D01*
X232015Y380069D01*
X232013Y380003D01*
X232008Y379936D01*
X231998Y379871D01*
X231985Y379805D01*
X231969Y379741D01*
X231949Y379678D01*
X231925Y379616D01*
X231898Y379555D01*
X231867Y379496D01*
X231833Y379439D01*
X231796Y379383D01*
X231756Y379330D01*
X231714Y379279D01*
X231668Y379231D01*
X231620Y379185D01*
X231569Y379143D01*
X231516Y379103D01*
X231460Y379066D01*
X231403Y379032D01*
X231344Y379001D01*
X231284Y378974D01*
X231221Y378951D01*
X231158Y378930D01*
X231094Y378914D01*
X231029Y378901D01*
X230963Y378891D01*
X230896Y378886D01*
X230830Y378884D01*
X230830Y378883D02*
X229249Y378883D01*
X235039Y381254D02*
X235039Y385995D01*
X234841Y387971D02*
X234841Y388366D01*
X235236Y388366D01*
X235236Y387971D01*
X234841Y387971D01*
X237232Y385995D02*
X239602Y385995D01*
X238022Y388366D02*
X238022Y382439D01*
X238024Y382373D01*
X238029Y382306D01*
X238039Y382241D01*
X238052Y382175D01*
X238068Y382111D01*
X238088Y382048D01*
X238112Y381986D01*
X238139Y381925D01*
X238170Y381866D01*
X238204Y381809D01*
X238241Y381753D01*
X238281Y381700D01*
X238323Y381649D01*
X238369Y381601D01*
X238417Y381555D01*
X238468Y381513D01*
X238521Y381473D01*
X238577Y381436D01*
X238634Y381402D01*
X238693Y381371D01*
X238754Y381344D01*
X238816Y381320D01*
X238879Y381300D01*
X238943Y381284D01*
X239009Y381271D01*
X239074Y381261D01*
X239141Y381256D01*
X239207Y381254D01*
X239602Y381254D01*
X242374Y381254D02*
X242374Y388366D01*
X242374Y385995D02*
X244349Y385995D01*
X244415Y385993D01*
X244482Y385988D01*
X244547Y385978D01*
X244613Y385965D01*
X244677Y385949D01*
X244740Y385929D01*
X244802Y385905D01*
X244863Y385878D01*
X244922Y385847D01*
X244979Y385813D01*
X245035Y385776D01*
X245088Y385736D01*
X245139Y385694D01*
X245187Y385648D01*
X245233Y385600D01*
X245275Y385549D01*
X245315Y385496D01*
X245352Y385440D01*
X245386Y385383D01*
X245417Y385324D01*
X245444Y385264D01*
X245467Y385201D01*
X245488Y385138D01*
X245504Y385074D01*
X245517Y385009D01*
X245527Y384943D01*
X245532Y384876D01*
X245534Y384810D01*
X245535Y384810D02*
X245535Y381254D01*
X248774Y382439D02*
X248774Y385995D01*
X248775Y382439D02*
X248777Y382373D01*
X248782Y382306D01*
X248792Y382241D01*
X248805Y382175D01*
X248821Y382111D01*
X248841Y382048D01*
X248865Y381986D01*
X248892Y381925D01*
X248923Y381866D01*
X248957Y381809D01*
X248994Y381753D01*
X249034Y381700D01*
X249076Y381649D01*
X249122Y381601D01*
X249170Y381555D01*
X249221Y381513D01*
X249274Y381473D01*
X249330Y381436D01*
X249387Y381402D01*
X249446Y381371D01*
X249507Y381344D01*
X249569Y381320D01*
X249632Y381300D01*
X249696Y381284D01*
X249762Y381271D01*
X249827Y381261D01*
X249894Y381256D01*
X249960Y381254D01*
X251935Y381254D01*
X251935Y385995D01*
X255208Y388366D02*
X255208Y381254D01*
X257183Y381254D01*
X257249Y381256D01*
X257316Y381261D01*
X257381Y381271D01*
X257447Y381284D01*
X257511Y381300D01*
X257574Y381320D01*
X257636Y381344D01*
X257697Y381371D01*
X257756Y381402D01*
X257813Y381436D01*
X257869Y381473D01*
X257922Y381513D01*
X257973Y381555D01*
X258021Y381601D01*
X258067Y381649D01*
X258109Y381700D01*
X258149Y381753D01*
X258186Y381809D01*
X258220Y381866D01*
X258251Y381925D01*
X258278Y381985D01*
X258301Y382048D01*
X258322Y382111D01*
X258338Y382175D01*
X258351Y382240D01*
X258361Y382306D01*
X258366Y382373D01*
X258368Y382439D01*
X258368Y384810D01*
X258366Y384876D01*
X258361Y384943D01*
X258351Y385008D01*
X258338Y385074D01*
X258322Y385138D01*
X258302Y385201D01*
X258278Y385263D01*
X258251Y385324D01*
X258220Y385383D01*
X258186Y385440D01*
X258149Y385496D01*
X258109Y385549D01*
X258067Y385600D01*
X258021Y385648D01*
X257973Y385694D01*
X257922Y385736D01*
X257869Y385776D01*
X257813Y385813D01*
X257756Y385847D01*
X257697Y385878D01*
X257636Y385905D01*
X257574Y385929D01*
X257511Y385949D01*
X257447Y385965D01*
X257381Y385978D01*
X257316Y385988D01*
X257249Y385993D01*
X257183Y385995D01*
X255208Y385995D01*
X260901Y381649D02*
X260901Y381254D01*
X260901Y381649D02*
X261297Y381649D01*
X261297Y381254D01*
X260901Y381254D01*
X265055Y381254D02*
X266635Y381254D01*
X265055Y381254D02*
X264989Y381256D01*
X264922Y381261D01*
X264857Y381271D01*
X264791Y381284D01*
X264727Y381300D01*
X264664Y381320D01*
X264602Y381344D01*
X264541Y381371D01*
X264482Y381402D01*
X264425Y381436D01*
X264369Y381473D01*
X264316Y381513D01*
X264265Y381555D01*
X264217Y381601D01*
X264171Y381649D01*
X264129Y381700D01*
X264089Y381753D01*
X264052Y381809D01*
X264018Y381866D01*
X263987Y381925D01*
X263960Y381986D01*
X263936Y382048D01*
X263916Y382111D01*
X263900Y382175D01*
X263887Y382241D01*
X263877Y382306D01*
X263872Y382373D01*
X263870Y382439D01*
X263869Y382439D02*
X263869Y384810D01*
X263870Y384810D02*
X263872Y384876D01*
X263877Y384943D01*
X263887Y385008D01*
X263900Y385074D01*
X263916Y385138D01*
X263936Y385201D01*
X263960Y385263D01*
X263987Y385324D01*
X264018Y385383D01*
X264052Y385440D01*
X264089Y385496D01*
X264129Y385549D01*
X264171Y385600D01*
X264217Y385648D01*
X264265Y385694D01*
X264316Y385736D01*
X264369Y385776D01*
X264425Y385813D01*
X264482Y385847D01*
X264541Y385878D01*
X264602Y385905D01*
X264664Y385929D01*
X264727Y385949D01*
X264791Y385965D01*
X264857Y385978D01*
X264922Y385988D01*
X264989Y385993D01*
X265055Y385995D01*
X266635Y385995D01*
X269120Y384415D02*
X269120Y382834D01*
X269120Y384415D02*
X269122Y384494D01*
X269128Y384572D01*
X269138Y384650D01*
X269151Y384728D01*
X269169Y384805D01*
X269190Y384881D01*
X269215Y384955D01*
X269244Y385029D01*
X269276Y385101D01*
X269312Y385171D01*
X269352Y385239D01*
X269395Y385305D01*
X269441Y385369D01*
X269490Y385431D01*
X269542Y385490D01*
X269597Y385546D01*
X269655Y385600D01*
X269715Y385650D01*
X269778Y385698D01*
X269843Y385742D01*
X269910Y385783D01*
X269979Y385821D01*
X270050Y385855D01*
X270123Y385886D01*
X270197Y385913D01*
X270272Y385936D01*
X270348Y385955D01*
X270426Y385971D01*
X270504Y385983D01*
X270582Y385991D01*
X270661Y385995D01*
X270739Y385995D01*
X270818Y385991D01*
X270896Y385983D01*
X270974Y385971D01*
X271052Y385955D01*
X271128Y385936D01*
X271203Y385913D01*
X271277Y385886D01*
X271350Y385855D01*
X271421Y385821D01*
X271490Y385783D01*
X271557Y385742D01*
X271622Y385698D01*
X271685Y385650D01*
X271745Y385600D01*
X271803Y385546D01*
X271858Y385490D01*
X271910Y385431D01*
X271959Y385369D01*
X272005Y385305D01*
X272048Y385239D01*
X272088Y385171D01*
X272124Y385101D01*
X272156Y385029D01*
X272185Y384955D01*
X272210Y384881D01*
X272231Y384805D01*
X272249Y384728D01*
X272262Y384650D01*
X272272Y384572D01*
X272278Y384494D01*
X272280Y384415D01*
X272281Y384415D02*
X272281Y382834D01*
X272280Y382834D02*
X272278Y382755D01*
X272272Y382677D01*
X272262Y382599D01*
X272249Y382521D01*
X272231Y382444D01*
X272210Y382368D01*
X272185Y382294D01*
X272156Y382220D01*
X272124Y382148D01*
X272088Y382078D01*
X272048Y382010D01*
X272005Y381944D01*
X271959Y381880D01*
X271910Y381818D01*
X271858Y381759D01*
X271803Y381703D01*
X271745Y381649D01*
X271685Y381599D01*
X271622Y381551D01*
X271557Y381507D01*
X271490Y381466D01*
X271421Y381428D01*
X271350Y381394D01*
X271277Y381363D01*
X271203Y381336D01*
X271128Y381313D01*
X271052Y381294D01*
X270974Y381278D01*
X270896Y381266D01*
X270818Y381258D01*
X270739Y381254D01*
X270661Y381254D01*
X270582Y381258D01*
X270504Y381266D01*
X270426Y381278D01*
X270348Y381294D01*
X270272Y381313D01*
X270197Y381336D01*
X270123Y381363D01*
X270050Y381394D01*
X269979Y381428D01*
X269910Y381466D01*
X269843Y381507D01*
X269778Y381551D01*
X269715Y381599D01*
X269655Y381649D01*
X269597Y381703D01*
X269542Y381759D01*
X269490Y381818D01*
X269441Y381880D01*
X269395Y381944D01*
X269352Y382010D01*
X269312Y382078D01*
X269276Y382148D01*
X269244Y382220D01*
X269215Y382294D01*
X269190Y382368D01*
X269169Y382444D01*
X269151Y382521D01*
X269138Y382599D01*
X269128Y382677D01*
X269122Y382755D01*
X269120Y382834D01*
X275416Y381254D02*
X275416Y385995D01*
X278972Y385995D01*
X279038Y385993D01*
X279105Y385988D01*
X279170Y385978D01*
X279236Y385965D01*
X279300Y385949D01*
X279363Y385929D01*
X279425Y385905D01*
X279486Y385878D01*
X279545Y385847D01*
X279602Y385813D01*
X279658Y385776D01*
X279711Y385736D01*
X279762Y385694D01*
X279810Y385648D01*
X279856Y385600D01*
X279898Y385549D01*
X279938Y385496D01*
X279975Y385440D01*
X280009Y385383D01*
X280040Y385324D01*
X280067Y385263D01*
X280091Y385201D01*
X280111Y385138D01*
X280127Y385074D01*
X280140Y385008D01*
X280150Y384943D01*
X280155Y384876D01*
X280157Y384810D01*
X280157Y381254D01*
X277787Y381254D02*
X277787Y385995D01*
X283064Y380464D02*
X286225Y389156D01*
X289040Y388366D02*
X289040Y381254D01*
X291016Y381254D01*
X291082Y381256D01*
X291149Y381261D01*
X291214Y381271D01*
X291280Y381284D01*
X291344Y381300D01*
X291407Y381320D01*
X291469Y381344D01*
X291530Y381371D01*
X291589Y381402D01*
X291646Y381436D01*
X291702Y381473D01*
X291755Y381513D01*
X291806Y381555D01*
X291854Y381601D01*
X291900Y381649D01*
X291942Y381700D01*
X291982Y381753D01*
X292019Y381809D01*
X292053Y381866D01*
X292084Y381925D01*
X292111Y381985D01*
X292134Y382048D01*
X292155Y382111D01*
X292171Y382175D01*
X292184Y382240D01*
X292194Y382306D01*
X292199Y382373D01*
X292201Y382439D01*
X292201Y384810D01*
X292199Y384876D01*
X292194Y384943D01*
X292184Y385008D01*
X292171Y385074D01*
X292155Y385138D01*
X292135Y385201D01*
X292111Y385263D01*
X292084Y385324D01*
X292053Y385383D01*
X292019Y385440D01*
X291982Y385496D01*
X291942Y385549D01*
X291900Y385600D01*
X291854Y385648D01*
X291806Y385694D01*
X291755Y385736D01*
X291702Y385776D01*
X291646Y385813D01*
X291589Y385847D01*
X291530Y385878D01*
X291469Y385905D01*
X291407Y385929D01*
X291344Y385949D01*
X291280Y385965D01*
X291214Y385978D01*
X291149Y385988D01*
X291082Y385993D01*
X291016Y385995D01*
X289040Y385995D01*
X295216Y385995D02*
X295216Y381254D01*
X295216Y385995D02*
X297587Y385995D01*
X297587Y385205D01*
X301102Y384020D02*
X302880Y384020D01*
X301102Y384020D02*
X301028Y384018D01*
X300955Y384012D01*
X300882Y384002D01*
X300810Y383989D01*
X300738Y383971D01*
X300668Y383950D01*
X300598Y383925D01*
X300531Y383896D01*
X300464Y383864D01*
X300400Y383829D01*
X300337Y383789D01*
X300277Y383747D01*
X300219Y383702D01*
X300164Y383653D01*
X300111Y383602D01*
X300061Y383548D01*
X300014Y383491D01*
X299970Y383432D01*
X299930Y383371D01*
X299892Y383307D01*
X299858Y383242D01*
X299828Y383175D01*
X299801Y383106D01*
X299778Y383036D01*
X299759Y382965D01*
X299743Y382893D01*
X299731Y382821D01*
X299723Y382747D01*
X299719Y382674D01*
X299719Y382600D01*
X299723Y382527D01*
X299731Y382453D01*
X299743Y382381D01*
X299759Y382309D01*
X299778Y382238D01*
X299801Y382168D01*
X299828Y382099D01*
X299858Y382032D01*
X299892Y381967D01*
X299930Y381903D01*
X299970Y381842D01*
X300014Y381783D01*
X300061Y381726D01*
X300111Y381672D01*
X300164Y381621D01*
X300219Y381572D01*
X300277Y381527D01*
X300337Y381485D01*
X300400Y381445D01*
X300464Y381410D01*
X300531Y381378D01*
X300598Y381349D01*
X300668Y381324D01*
X300738Y381303D01*
X300810Y381285D01*
X300882Y381272D01*
X300955Y381262D01*
X301028Y381256D01*
X301102Y381254D01*
X302880Y381254D01*
X302880Y384810D01*
X302878Y384876D01*
X302873Y384943D01*
X302863Y385008D01*
X302850Y385074D01*
X302834Y385138D01*
X302814Y385201D01*
X302790Y385263D01*
X302763Y385324D01*
X302732Y385383D01*
X302698Y385440D01*
X302661Y385496D01*
X302621Y385549D01*
X302579Y385600D01*
X302533Y385648D01*
X302485Y385694D01*
X302434Y385736D01*
X302381Y385776D01*
X302325Y385813D01*
X302268Y385847D01*
X302209Y385878D01*
X302148Y385905D01*
X302086Y385929D01*
X302023Y385949D01*
X301959Y385965D01*
X301893Y385978D01*
X301828Y385988D01*
X301761Y385993D01*
X301695Y385995D01*
X300115Y385995D01*
X309052Y388366D02*
X309052Y381254D01*
X307077Y381254D01*
X307011Y381256D01*
X306944Y381261D01*
X306879Y381271D01*
X306813Y381284D01*
X306749Y381300D01*
X306686Y381320D01*
X306624Y381344D01*
X306563Y381371D01*
X306504Y381402D01*
X306447Y381436D01*
X306391Y381473D01*
X306338Y381513D01*
X306287Y381555D01*
X306239Y381601D01*
X306193Y381649D01*
X306151Y381700D01*
X306111Y381753D01*
X306074Y381809D01*
X306040Y381866D01*
X306009Y381925D01*
X305982Y381986D01*
X305958Y382048D01*
X305938Y382111D01*
X305922Y382175D01*
X305909Y382241D01*
X305899Y382306D01*
X305894Y382373D01*
X305892Y382439D01*
X305892Y384810D01*
X305894Y384876D01*
X305899Y384943D01*
X305909Y385008D01*
X305922Y385074D01*
X305938Y385138D01*
X305958Y385201D01*
X305982Y385263D01*
X306009Y385324D01*
X306040Y385383D01*
X306074Y385440D01*
X306111Y385496D01*
X306151Y385549D01*
X306193Y385600D01*
X306239Y385648D01*
X306287Y385694D01*
X306338Y385736D01*
X306391Y385776D01*
X306447Y385813D01*
X306504Y385847D01*
X306563Y385878D01*
X306624Y385905D01*
X306686Y385929D01*
X306749Y385949D01*
X306813Y385965D01*
X306879Y385978D01*
X306944Y385988D01*
X307011Y385993D01*
X307077Y385995D01*
X309052Y385995D01*
X312479Y387181D02*
X312479Y381254D01*
X312479Y387181D02*
X312481Y387247D01*
X312486Y387314D01*
X312496Y387379D01*
X312509Y387445D01*
X312525Y387509D01*
X312545Y387572D01*
X312569Y387634D01*
X312596Y387695D01*
X312627Y387754D01*
X312661Y387811D01*
X312698Y387867D01*
X312738Y387920D01*
X312780Y387971D01*
X312826Y388019D01*
X312874Y388065D01*
X312925Y388107D01*
X312978Y388147D01*
X313034Y388184D01*
X313091Y388218D01*
X313150Y388249D01*
X313210Y388276D01*
X313273Y388299D01*
X313336Y388320D01*
X313400Y388336D01*
X313465Y388349D01*
X313531Y388359D01*
X313598Y388364D01*
X313664Y388366D01*
X314059Y388366D01*
X314059Y385995D02*
X311689Y385995D01*
X315982Y384415D02*
X315982Y382834D01*
X315983Y384415D02*
X315985Y384494D01*
X315991Y384572D01*
X316001Y384650D01*
X316014Y384728D01*
X316032Y384805D01*
X316053Y384881D01*
X316078Y384955D01*
X316107Y385029D01*
X316139Y385101D01*
X316175Y385171D01*
X316215Y385239D01*
X316258Y385305D01*
X316304Y385369D01*
X316353Y385431D01*
X316405Y385490D01*
X316460Y385546D01*
X316518Y385600D01*
X316578Y385650D01*
X316641Y385698D01*
X316706Y385742D01*
X316773Y385783D01*
X316842Y385821D01*
X316913Y385855D01*
X316986Y385886D01*
X317060Y385913D01*
X317135Y385936D01*
X317211Y385955D01*
X317289Y385971D01*
X317367Y385983D01*
X317445Y385991D01*
X317524Y385995D01*
X317602Y385995D01*
X317681Y385991D01*
X317759Y385983D01*
X317837Y385971D01*
X317915Y385955D01*
X317991Y385936D01*
X318066Y385913D01*
X318140Y385886D01*
X318213Y385855D01*
X318284Y385821D01*
X318353Y385783D01*
X318420Y385742D01*
X318485Y385698D01*
X318548Y385650D01*
X318608Y385600D01*
X318666Y385546D01*
X318721Y385490D01*
X318773Y385431D01*
X318822Y385369D01*
X318868Y385305D01*
X318911Y385239D01*
X318951Y385171D01*
X318987Y385101D01*
X319019Y385029D01*
X319048Y384955D01*
X319073Y384881D01*
X319094Y384805D01*
X319112Y384728D01*
X319125Y384650D01*
X319135Y384572D01*
X319141Y384494D01*
X319143Y384415D01*
X319143Y382834D01*
X319141Y382755D01*
X319135Y382677D01*
X319125Y382599D01*
X319112Y382521D01*
X319094Y382444D01*
X319073Y382368D01*
X319048Y382294D01*
X319019Y382220D01*
X318987Y382148D01*
X318951Y382078D01*
X318911Y382010D01*
X318868Y381944D01*
X318822Y381880D01*
X318773Y381818D01*
X318721Y381759D01*
X318666Y381703D01*
X318608Y381649D01*
X318548Y381599D01*
X318485Y381551D01*
X318420Y381507D01*
X318353Y381466D01*
X318284Y381428D01*
X318213Y381394D01*
X318140Y381363D01*
X318066Y381336D01*
X317991Y381313D01*
X317915Y381294D01*
X317837Y381278D01*
X317759Y381266D01*
X317681Y381258D01*
X317602Y381254D01*
X317524Y381254D01*
X317445Y381258D01*
X317367Y381266D01*
X317289Y381278D01*
X317211Y381294D01*
X317135Y381313D01*
X317060Y381336D01*
X316986Y381363D01*
X316913Y381394D01*
X316842Y381428D01*
X316773Y381466D01*
X316706Y381507D01*
X316641Y381551D01*
X316578Y381599D01*
X316518Y381649D01*
X316460Y381703D01*
X316405Y381759D01*
X316353Y381818D01*
X316304Y381880D01*
X316258Y381944D01*
X316215Y382010D01*
X316175Y382078D01*
X316139Y382148D01*
X316107Y382220D01*
X316078Y382294D01*
X316053Y382368D01*
X316032Y382444D01*
X316014Y382521D01*
X316001Y382599D01*
X315991Y382677D01*
X315985Y382755D01*
X315983Y382834D01*
X322191Y381254D02*
X322191Y385995D01*
X324562Y385995D01*
X324562Y385205D01*
X329855Y388366D02*
X329855Y381254D01*
X327879Y381254D01*
X327813Y381256D01*
X327746Y381261D01*
X327681Y381271D01*
X327615Y381284D01*
X327551Y381300D01*
X327488Y381320D01*
X327426Y381344D01*
X327365Y381371D01*
X327306Y381402D01*
X327249Y381436D01*
X327193Y381473D01*
X327140Y381513D01*
X327089Y381555D01*
X327041Y381601D01*
X326995Y381649D01*
X326953Y381700D01*
X326913Y381753D01*
X326876Y381809D01*
X326842Y381866D01*
X326811Y381925D01*
X326784Y381986D01*
X326760Y382048D01*
X326740Y382111D01*
X326724Y382175D01*
X326711Y382241D01*
X326701Y382306D01*
X326696Y382373D01*
X326694Y382439D01*
X326694Y384810D01*
X326696Y384876D01*
X326701Y384943D01*
X326711Y385008D01*
X326724Y385074D01*
X326740Y385138D01*
X326760Y385201D01*
X326784Y385263D01*
X326811Y385324D01*
X326842Y385383D01*
X326876Y385440D01*
X326913Y385496D01*
X326953Y385549D01*
X326995Y385600D01*
X327041Y385648D01*
X327089Y385694D01*
X327140Y385736D01*
X327193Y385776D01*
X327249Y385813D01*
X327306Y385847D01*
X327365Y385878D01*
X327426Y385905D01*
X327488Y385929D01*
X327551Y385949D01*
X327615Y385965D01*
X327681Y385978D01*
X327746Y385988D01*
X327813Y385993D01*
X327879Y385995D01*
X329855Y385995D01*
X333023Y384020D02*
X337764Y384020D01*
X340900Y381254D02*
X340900Y388366D01*
X340900Y385995D02*
X342875Y385995D01*
X342941Y385993D01*
X343008Y385988D01*
X343073Y385978D01*
X343139Y385965D01*
X343203Y385949D01*
X343266Y385929D01*
X343328Y385905D01*
X343389Y385878D01*
X343448Y385847D01*
X343505Y385813D01*
X343561Y385776D01*
X343614Y385736D01*
X343665Y385694D01*
X343713Y385648D01*
X343759Y385600D01*
X343801Y385549D01*
X343841Y385496D01*
X343878Y385440D01*
X343912Y385383D01*
X343943Y385324D01*
X343970Y385264D01*
X343993Y385201D01*
X344014Y385138D01*
X344030Y385074D01*
X344043Y385009D01*
X344053Y384943D01*
X344058Y384876D01*
X344060Y384810D01*
X344060Y381254D01*
X348422Y384020D02*
X350200Y384020D01*
X348422Y384020D02*
X348348Y384018D01*
X348275Y384012D01*
X348202Y384002D01*
X348130Y383989D01*
X348058Y383971D01*
X347988Y383950D01*
X347918Y383925D01*
X347851Y383896D01*
X347784Y383864D01*
X347720Y383829D01*
X347657Y383789D01*
X347597Y383747D01*
X347539Y383702D01*
X347484Y383653D01*
X347431Y383602D01*
X347381Y383548D01*
X347334Y383491D01*
X347290Y383432D01*
X347250Y383371D01*
X347212Y383307D01*
X347178Y383242D01*
X347148Y383175D01*
X347121Y383106D01*
X347098Y383036D01*
X347079Y382965D01*
X347063Y382893D01*
X347051Y382821D01*
X347043Y382747D01*
X347039Y382674D01*
X347039Y382600D01*
X347043Y382527D01*
X347051Y382453D01*
X347063Y382381D01*
X347079Y382309D01*
X347098Y382238D01*
X347121Y382168D01*
X347148Y382099D01*
X347178Y382032D01*
X347212Y381967D01*
X347250Y381903D01*
X347290Y381842D01*
X347334Y381783D01*
X347381Y381726D01*
X347431Y381672D01*
X347484Y381621D01*
X347539Y381572D01*
X347597Y381527D01*
X347657Y381485D01*
X347720Y381445D01*
X347784Y381410D01*
X347851Y381378D01*
X347918Y381349D01*
X347988Y381324D01*
X348058Y381303D01*
X348130Y381285D01*
X348202Y381272D01*
X348275Y381262D01*
X348348Y381256D01*
X348422Y381254D01*
X350200Y381254D01*
X350200Y384810D01*
X350198Y384876D01*
X350193Y384943D01*
X350183Y385008D01*
X350170Y385074D01*
X350154Y385138D01*
X350134Y385201D01*
X350110Y385263D01*
X350083Y385324D01*
X350052Y385383D01*
X350018Y385440D01*
X349981Y385496D01*
X349941Y385549D01*
X349899Y385600D01*
X349853Y385648D01*
X349805Y385694D01*
X349754Y385736D01*
X349701Y385776D01*
X349645Y385813D01*
X349588Y385847D01*
X349529Y385878D01*
X349468Y385905D01*
X349406Y385929D01*
X349343Y385949D01*
X349279Y385965D01*
X349213Y385978D01*
X349148Y385988D01*
X349081Y385993D01*
X349015Y385995D01*
X347434Y385995D01*
X353597Y385995D02*
X353597Y381254D01*
X353597Y385995D02*
X357153Y385995D01*
X357219Y385993D01*
X357286Y385988D01*
X357351Y385978D01*
X357417Y385965D01*
X357481Y385949D01*
X357544Y385929D01*
X357606Y385905D01*
X357667Y385878D01*
X357726Y385847D01*
X357783Y385813D01*
X357839Y385776D01*
X357892Y385736D01*
X357943Y385694D01*
X357991Y385648D01*
X358037Y385600D01*
X358079Y385549D01*
X358119Y385496D01*
X358156Y385440D01*
X358190Y385383D01*
X358221Y385324D01*
X358248Y385263D01*
X358272Y385201D01*
X358292Y385138D01*
X358308Y385074D01*
X358321Y385008D01*
X358331Y384943D01*
X358336Y384876D01*
X358338Y384810D01*
X358338Y381254D01*
X355967Y381254D02*
X355967Y385995D01*
X361454Y385995D02*
X361454Y381254D01*
X361256Y387971D02*
X361256Y388366D01*
X361651Y388366D01*
X361651Y387971D01*
X361256Y387971D01*
X364318Y388366D02*
X364318Y382439D01*
X364320Y382373D01*
X364325Y382306D01*
X364335Y382241D01*
X364348Y382175D01*
X364364Y382111D01*
X364384Y382048D01*
X364408Y381986D01*
X364435Y381925D01*
X364466Y381866D01*
X364500Y381809D01*
X364537Y381753D01*
X364577Y381700D01*
X364619Y381649D01*
X364665Y381601D01*
X364713Y381555D01*
X364764Y381513D01*
X364817Y381473D01*
X364873Y381436D01*
X364930Y381402D01*
X364989Y381371D01*
X365050Y381344D01*
X365112Y381320D01*
X365175Y381300D01*
X365239Y381284D01*
X365305Y381271D01*
X365370Y381261D01*
X365437Y381256D01*
X365503Y381254D01*
X367304Y385995D02*
X369675Y385995D01*
X368094Y388366D02*
X368094Y382439D01*
X368095Y382439D02*
X368097Y382373D01*
X368102Y382306D01*
X368112Y382241D01*
X368125Y382175D01*
X368141Y382111D01*
X368161Y382048D01*
X368185Y381986D01*
X368212Y381925D01*
X368243Y381866D01*
X368277Y381809D01*
X368314Y381753D01*
X368354Y381700D01*
X368396Y381649D01*
X368442Y381601D01*
X368490Y381555D01*
X368541Y381513D01*
X368594Y381473D01*
X368650Y381436D01*
X368707Y381402D01*
X368766Y381371D01*
X368827Y381344D01*
X368889Y381320D01*
X368952Y381300D01*
X369016Y381284D01*
X369082Y381271D01*
X369147Y381261D01*
X369214Y381256D01*
X369280Y381254D01*
X369675Y381254D01*
X372218Y382834D02*
X372218Y384415D01*
X372220Y384494D01*
X372226Y384572D01*
X372236Y384650D01*
X372249Y384728D01*
X372267Y384805D01*
X372288Y384881D01*
X372313Y384955D01*
X372342Y385029D01*
X372374Y385101D01*
X372410Y385171D01*
X372450Y385239D01*
X372493Y385305D01*
X372539Y385369D01*
X372588Y385431D01*
X372640Y385490D01*
X372695Y385546D01*
X372753Y385600D01*
X372813Y385650D01*
X372876Y385698D01*
X372941Y385742D01*
X373008Y385783D01*
X373077Y385821D01*
X373148Y385855D01*
X373221Y385886D01*
X373295Y385913D01*
X373370Y385936D01*
X373446Y385955D01*
X373524Y385971D01*
X373602Y385983D01*
X373680Y385991D01*
X373759Y385995D01*
X373837Y385995D01*
X373916Y385991D01*
X373994Y385983D01*
X374072Y385971D01*
X374150Y385955D01*
X374226Y385936D01*
X374301Y385913D01*
X374375Y385886D01*
X374448Y385855D01*
X374519Y385821D01*
X374588Y385783D01*
X374655Y385742D01*
X374720Y385698D01*
X374783Y385650D01*
X374843Y385600D01*
X374901Y385546D01*
X374956Y385490D01*
X375008Y385431D01*
X375057Y385369D01*
X375103Y385305D01*
X375146Y385239D01*
X375186Y385171D01*
X375222Y385101D01*
X375254Y385029D01*
X375283Y384955D01*
X375308Y384881D01*
X375329Y384805D01*
X375347Y384728D01*
X375360Y384650D01*
X375370Y384572D01*
X375376Y384494D01*
X375378Y384415D01*
X375378Y382834D01*
X375376Y382755D01*
X375370Y382677D01*
X375360Y382599D01*
X375347Y382521D01*
X375329Y382444D01*
X375308Y382368D01*
X375283Y382294D01*
X375254Y382220D01*
X375222Y382148D01*
X375186Y382078D01*
X375146Y382010D01*
X375103Y381944D01*
X375057Y381880D01*
X375008Y381818D01*
X374956Y381759D01*
X374901Y381703D01*
X374843Y381649D01*
X374783Y381599D01*
X374720Y381551D01*
X374655Y381507D01*
X374588Y381466D01*
X374519Y381428D01*
X374448Y381394D01*
X374375Y381363D01*
X374301Y381336D01*
X374226Y381313D01*
X374150Y381294D01*
X374072Y381278D01*
X373994Y381266D01*
X373916Y381258D01*
X373837Y381254D01*
X373759Y381254D01*
X373680Y381258D01*
X373602Y381266D01*
X373524Y381278D01*
X373446Y381294D01*
X373370Y381313D01*
X373295Y381336D01*
X373221Y381363D01*
X373148Y381394D01*
X373077Y381428D01*
X373008Y381466D01*
X372941Y381507D01*
X372876Y381551D01*
X372813Y381599D01*
X372753Y381649D01*
X372695Y381703D01*
X372640Y381759D01*
X372588Y381818D01*
X372539Y381880D01*
X372493Y381944D01*
X372450Y382010D01*
X372410Y382078D01*
X372374Y382148D01*
X372342Y382220D01*
X372313Y382294D01*
X372288Y382368D01*
X372267Y382444D01*
X372249Y382521D01*
X372236Y382599D01*
X372226Y382677D01*
X372220Y382755D01*
X372218Y382834D01*
X378390Y381254D02*
X378390Y385995D01*
X380365Y385995D01*
X380431Y385993D01*
X380498Y385988D01*
X380563Y385978D01*
X380629Y385965D01*
X380693Y385949D01*
X380756Y385929D01*
X380818Y385905D01*
X380879Y385878D01*
X380938Y385847D01*
X380995Y385813D01*
X381051Y385776D01*
X381104Y385736D01*
X381155Y385694D01*
X381203Y385648D01*
X381249Y385600D01*
X381291Y385549D01*
X381331Y385496D01*
X381368Y385440D01*
X381402Y385383D01*
X381433Y385324D01*
X381460Y385264D01*
X381483Y385201D01*
X381504Y385138D01*
X381520Y385074D01*
X381533Y385009D01*
X381543Y384943D01*
X381548Y384876D01*
X381550Y384810D01*
X381551Y384810D02*
X381551Y381254D01*
D11*
X292100Y368605D02*
X292100Y367995D01*
D12*
X285030Y375412D02*
X284184Y375412D01*
X284129Y375414D01*
X284073Y375419D01*
X284019Y375428D01*
X283965Y375441D01*
X283912Y375457D01*
X283860Y375476D01*
X283809Y375499D01*
X283761Y375525D01*
X283713Y375555D01*
X283668Y375587D01*
X283626Y375622D01*
X283585Y375660D01*
X283547Y375701D01*
X283512Y375743D01*
X283480Y375788D01*
X283450Y375836D01*
X283424Y375884D01*
X283401Y375935D01*
X283382Y375987D01*
X283366Y376040D01*
X283353Y376094D01*
X283344Y376148D01*
X283339Y376204D01*
X283337Y376259D01*
X283337Y378375D01*
X283339Y378433D01*
X283345Y378490D01*
X283355Y378547D01*
X283368Y378604D01*
X283386Y378659D01*
X283407Y378712D01*
X283432Y378765D01*
X283460Y378815D01*
X283492Y378863D01*
X283527Y378910D01*
X283565Y378953D01*
X283606Y378994D01*
X283649Y379032D01*
X283696Y379067D01*
X283744Y379099D01*
X283794Y379127D01*
X283847Y379152D01*
X283900Y379173D01*
X283955Y379191D01*
X284012Y379204D01*
X284069Y379214D01*
X284126Y379220D01*
X284184Y379222D01*
X285030Y379222D01*
X286394Y378375D02*
X287453Y379222D01*
X287453Y375412D01*
X288511Y375412D02*
X286394Y375412D01*
D13*
X257000Y323500D02*
X251000Y323500D01*
X251000Y311500D02*
X257000Y311500D01*
D12*
X248200Y325882D02*
X247354Y325882D01*
X247299Y325884D01*
X247243Y325889D01*
X247189Y325898D01*
X247135Y325911D01*
X247082Y325927D01*
X247030Y325946D01*
X246979Y325969D01*
X246931Y325995D01*
X246883Y326025D01*
X246838Y326057D01*
X246796Y326092D01*
X246755Y326130D01*
X246717Y326171D01*
X246682Y326213D01*
X246650Y326258D01*
X246620Y326306D01*
X246594Y326354D01*
X246571Y326405D01*
X246552Y326457D01*
X246536Y326510D01*
X246523Y326564D01*
X246514Y326618D01*
X246509Y326674D01*
X246507Y326729D01*
X246507Y328845D01*
X246509Y328903D01*
X246515Y328960D01*
X246525Y329017D01*
X246538Y329074D01*
X246556Y329129D01*
X246577Y329182D01*
X246602Y329235D01*
X246630Y329285D01*
X246662Y329333D01*
X246697Y329380D01*
X246735Y329423D01*
X246776Y329464D01*
X246819Y329502D01*
X246866Y329537D01*
X246914Y329569D01*
X246964Y329597D01*
X247017Y329622D01*
X247070Y329643D01*
X247125Y329661D01*
X247182Y329674D01*
X247239Y329684D01*
X247296Y329690D01*
X247354Y329692D01*
X248200Y329692D01*
X250729Y329693D02*
X250789Y329691D01*
X250848Y329685D01*
X250908Y329676D01*
X250966Y329663D01*
X251023Y329646D01*
X251080Y329626D01*
X251135Y329602D01*
X251188Y329575D01*
X251240Y329545D01*
X251289Y329511D01*
X251336Y329474D01*
X251381Y329435D01*
X251424Y329392D01*
X251463Y329347D01*
X251500Y329300D01*
X251534Y329251D01*
X251564Y329199D01*
X251591Y329146D01*
X251615Y329091D01*
X251635Y329034D01*
X251652Y328977D01*
X251665Y328919D01*
X251674Y328859D01*
X251680Y328800D01*
X251682Y328740D01*
X250729Y329692D02*
X250662Y329690D01*
X250595Y329685D01*
X250529Y329676D01*
X250463Y329663D01*
X250399Y329647D01*
X250335Y329627D01*
X250272Y329603D01*
X250210Y329577D01*
X250151Y329547D01*
X250093Y329514D01*
X250036Y329477D01*
X249982Y329438D01*
X249930Y329396D01*
X249881Y329351D01*
X249834Y329303D01*
X249790Y329253D01*
X249748Y329200D01*
X249710Y329145D01*
X249674Y329089D01*
X249642Y329030D01*
X249613Y328970D01*
X249587Y328908D01*
X249565Y328845D01*
X251364Y327999D02*
X251405Y328041D01*
X251444Y328086D01*
X251481Y328132D01*
X251515Y328181D01*
X251546Y328231D01*
X251573Y328283D01*
X251598Y328337D01*
X251620Y328392D01*
X251639Y328448D01*
X251654Y328505D01*
X251666Y328563D01*
X251674Y328622D01*
X251679Y328681D01*
X251681Y328740D01*
X251364Y327999D02*
X249564Y325882D01*
X251681Y325882D01*
D14*
X160100Y247800D02*
X156100Y247800D01*
X160100Y247800D02*
X174100Y247800D01*
X160100Y234800D02*
X156100Y234800D01*
X160100Y234800D02*
X174100Y234800D01*
X160100Y234800D02*
X160100Y247800D01*
D12*
X156337Y251587D02*
X156337Y255397D01*
X157395Y255397D01*
X157459Y255395D01*
X157523Y255389D01*
X157586Y255380D01*
X157648Y255366D01*
X157710Y255349D01*
X157770Y255328D01*
X157829Y255304D01*
X157887Y255276D01*
X157942Y255244D01*
X157996Y255210D01*
X158047Y255172D01*
X158097Y255131D01*
X158143Y255087D01*
X158187Y255041D01*
X158228Y254991D01*
X158266Y254940D01*
X158300Y254886D01*
X158332Y254831D01*
X158360Y254773D01*
X158384Y254714D01*
X158405Y254654D01*
X158422Y254592D01*
X158436Y254530D01*
X158445Y254467D01*
X158451Y254403D01*
X158453Y254339D01*
X158454Y254339D02*
X158454Y252645D01*
X158453Y252645D02*
X158451Y252581D01*
X158445Y252517D01*
X158436Y252454D01*
X158422Y252392D01*
X158405Y252330D01*
X158384Y252270D01*
X158360Y252211D01*
X158332Y252153D01*
X158300Y252098D01*
X158266Y252044D01*
X158228Y251993D01*
X158187Y251943D01*
X158143Y251897D01*
X158097Y251853D01*
X158047Y251812D01*
X157996Y251774D01*
X157942Y251740D01*
X157887Y251708D01*
X157829Y251680D01*
X157770Y251656D01*
X157710Y251635D01*
X157648Y251618D01*
X157586Y251604D01*
X157523Y251595D01*
X157459Y251589D01*
X157395Y251587D01*
X156337Y251587D01*
X160117Y254550D02*
X161175Y255397D01*
X161175Y251587D01*
X160117Y251587D02*
X162233Y251587D01*
D14*
X283100Y324000D02*
X287100Y324000D01*
X301100Y324000D01*
X287100Y311000D02*
X283100Y311000D01*
X287100Y311000D02*
X301100Y311000D01*
X287100Y311000D02*
X287100Y324000D01*
D12*
X283337Y327787D02*
X283337Y331597D01*
X284395Y331597D01*
X284459Y331595D01*
X284523Y331589D01*
X284586Y331580D01*
X284648Y331566D01*
X284710Y331549D01*
X284770Y331528D01*
X284829Y331504D01*
X284887Y331476D01*
X284942Y331444D01*
X284996Y331410D01*
X285047Y331372D01*
X285097Y331331D01*
X285143Y331287D01*
X285187Y331241D01*
X285228Y331191D01*
X285266Y331140D01*
X285300Y331086D01*
X285332Y331031D01*
X285360Y330973D01*
X285384Y330914D01*
X285405Y330854D01*
X285422Y330792D01*
X285436Y330730D01*
X285445Y330667D01*
X285451Y330603D01*
X285453Y330539D01*
X285454Y330539D02*
X285454Y328845D01*
X285453Y328845D02*
X285451Y328781D01*
X285445Y328717D01*
X285436Y328654D01*
X285422Y328592D01*
X285405Y328530D01*
X285384Y328470D01*
X285360Y328411D01*
X285332Y328353D01*
X285300Y328298D01*
X285266Y328244D01*
X285228Y328193D01*
X285187Y328143D01*
X285143Y328097D01*
X285097Y328053D01*
X285047Y328012D01*
X284996Y327974D01*
X284942Y327940D01*
X284887Y327908D01*
X284829Y327880D01*
X284770Y327856D01*
X284710Y327835D01*
X284648Y327818D01*
X284586Y327804D01*
X284523Y327795D01*
X284459Y327789D01*
X284395Y327787D01*
X283337Y327787D01*
X288281Y331598D02*
X288341Y331596D01*
X288400Y331590D01*
X288460Y331581D01*
X288518Y331568D01*
X288575Y331551D01*
X288632Y331531D01*
X288687Y331507D01*
X288740Y331480D01*
X288792Y331450D01*
X288841Y331416D01*
X288888Y331379D01*
X288933Y331340D01*
X288976Y331297D01*
X289015Y331252D01*
X289052Y331205D01*
X289086Y331156D01*
X289116Y331104D01*
X289143Y331051D01*
X289167Y330996D01*
X289187Y330939D01*
X289204Y330882D01*
X289217Y330824D01*
X289226Y330764D01*
X289232Y330705D01*
X289234Y330645D01*
X288281Y331597D02*
X288214Y331595D01*
X288147Y331590D01*
X288081Y331581D01*
X288015Y331568D01*
X287951Y331552D01*
X287887Y331532D01*
X287824Y331508D01*
X287762Y331482D01*
X287703Y331452D01*
X287645Y331419D01*
X287588Y331382D01*
X287534Y331343D01*
X287482Y331301D01*
X287433Y331256D01*
X287386Y331208D01*
X287342Y331158D01*
X287300Y331105D01*
X287262Y331050D01*
X287226Y330994D01*
X287194Y330935D01*
X287165Y330875D01*
X287139Y330813D01*
X287117Y330750D01*
X288916Y329904D02*
X288957Y329946D01*
X288996Y329991D01*
X289033Y330037D01*
X289067Y330086D01*
X289098Y330136D01*
X289125Y330188D01*
X289150Y330242D01*
X289172Y330297D01*
X289191Y330353D01*
X289206Y330410D01*
X289218Y330468D01*
X289226Y330527D01*
X289231Y330586D01*
X289233Y330645D01*
X288916Y329904D02*
X287117Y327787D01*
X289233Y327787D01*
D15*
X256208Y301592D02*
X256208Y289908D01*
X256208Y301592D02*
X259454Y301592D01*
X259567Y301590D01*
X259680Y301584D01*
X259793Y301574D01*
X259906Y301560D01*
X260018Y301543D01*
X260129Y301521D01*
X260239Y301496D01*
X260349Y301466D01*
X260457Y301433D01*
X260564Y301396D01*
X260670Y301356D01*
X260774Y301311D01*
X260877Y301263D01*
X260978Y301212D01*
X261077Y301157D01*
X261174Y301099D01*
X261269Y301037D01*
X261362Y300972D01*
X261452Y300904D01*
X261540Y300833D01*
X261626Y300758D01*
X261709Y300681D01*
X261789Y300601D01*
X261866Y300518D01*
X261941Y300432D01*
X262012Y300344D01*
X262080Y300254D01*
X262145Y300161D01*
X262207Y300066D01*
X262265Y299969D01*
X262320Y299870D01*
X262371Y299769D01*
X262419Y299666D01*
X262464Y299562D01*
X262504Y299456D01*
X262541Y299349D01*
X262574Y299241D01*
X262604Y299131D01*
X262629Y299021D01*
X262651Y298910D01*
X262668Y298798D01*
X262682Y298685D01*
X262692Y298572D01*
X262698Y298459D01*
X262700Y298346D01*
X262699Y298346D02*
X262699Y293154D01*
X262700Y293154D02*
X262698Y293041D01*
X262692Y292928D01*
X262682Y292815D01*
X262668Y292702D01*
X262651Y292590D01*
X262629Y292479D01*
X262604Y292369D01*
X262574Y292259D01*
X262541Y292151D01*
X262504Y292044D01*
X262464Y291938D01*
X262419Y291834D01*
X262371Y291731D01*
X262320Y291630D01*
X262265Y291531D01*
X262207Y291434D01*
X262145Y291339D01*
X262080Y291246D01*
X262012Y291156D01*
X261941Y291068D01*
X261866Y290982D01*
X261789Y290899D01*
X261709Y290819D01*
X261626Y290742D01*
X261540Y290667D01*
X261452Y290596D01*
X261362Y290528D01*
X261269Y290463D01*
X261174Y290401D01*
X261077Y290343D01*
X260978Y290288D01*
X260877Y290237D01*
X260774Y290189D01*
X260670Y290144D01*
X260564Y290104D01*
X260457Y290067D01*
X260349Y290034D01*
X260239Y290004D01*
X260129Y289979D01*
X260018Y289957D01*
X259906Y289940D01*
X259793Y289926D01*
X259680Y289916D01*
X259567Y289910D01*
X259454Y289908D01*
X256208Y289908D01*
X268019Y289908D02*
X271265Y289908D01*
X271378Y289910D01*
X271491Y289916D01*
X271604Y289926D01*
X271717Y289940D01*
X271829Y289957D01*
X271940Y289979D01*
X272050Y290004D01*
X272160Y290034D01*
X272268Y290067D01*
X272375Y290104D01*
X272481Y290144D01*
X272585Y290189D01*
X272688Y290237D01*
X272789Y290288D01*
X272888Y290343D01*
X272985Y290401D01*
X273080Y290463D01*
X273173Y290528D01*
X273263Y290596D01*
X273351Y290667D01*
X273437Y290742D01*
X273520Y290819D01*
X273600Y290899D01*
X273677Y290982D01*
X273752Y291068D01*
X273823Y291156D01*
X273891Y291246D01*
X273956Y291339D01*
X274018Y291434D01*
X274076Y291531D01*
X274131Y291630D01*
X274182Y291731D01*
X274230Y291834D01*
X274275Y291938D01*
X274315Y292044D01*
X274352Y292151D01*
X274385Y292259D01*
X274415Y292369D01*
X274440Y292479D01*
X274462Y292590D01*
X274479Y292702D01*
X274493Y292815D01*
X274503Y292928D01*
X274509Y293041D01*
X274511Y293154D01*
X274509Y293267D01*
X274503Y293380D01*
X274493Y293493D01*
X274479Y293606D01*
X274462Y293718D01*
X274440Y293829D01*
X274415Y293939D01*
X274385Y294049D01*
X274352Y294157D01*
X274315Y294264D01*
X274275Y294370D01*
X274230Y294474D01*
X274182Y294577D01*
X274131Y294678D01*
X274076Y294777D01*
X274018Y294874D01*
X273956Y294969D01*
X273891Y295062D01*
X273823Y295152D01*
X273752Y295240D01*
X273677Y295326D01*
X273600Y295409D01*
X273520Y295489D01*
X273437Y295566D01*
X273351Y295641D01*
X273263Y295712D01*
X273173Y295780D01*
X273080Y295845D01*
X272985Y295907D01*
X272888Y295965D01*
X272789Y296020D01*
X272688Y296071D01*
X272585Y296119D01*
X272481Y296164D01*
X272375Y296204D01*
X272268Y296241D01*
X272160Y296274D01*
X272050Y296304D01*
X271940Y296329D01*
X271829Y296351D01*
X271717Y296368D01*
X271604Y296382D01*
X271491Y296392D01*
X271378Y296398D01*
X271265Y296400D01*
X271914Y301592D02*
X268019Y301592D01*
X271914Y301592D02*
X272015Y301590D01*
X272115Y301584D01*
X272215Y301574D01*
X272315Y301561D01*
X272414Y301543D01*
X272513Y301522D01*
X272610Y301497D01*
X272707Y301468D01*
X272802Y301435D01*
X272896Y301399D01*
X272988Y301359D01*
X273079Y301316D01*
X273168Y301269D01*
X273255Y301219D01*
X273341Y301165D01*
X273424Y301108D01*
X273504Y301048D01*
X273583Y300985D01*
X273659Y300918D01*
X273732Y300849D01*
X273802Y300777D01*
X273870Y300703D01*
X273935Y300626D01*
X273996Y300546D01*
X274055Y300464D01*
X274110Y300380D01*
X274162Y300294D01*
X274211Y300206D01*
X274256Y300116D01*
X274298Y300024D01*
X274336Y299931D01*
X274370Y299836D01*
X274401Y299741D01*
X274428Y299644D01*
X274451Y299546D01*
X274471Y299447D01*
X274486Y299347D01*
X274498Y299247D01*
X274506Y299147D01*
X274510Y299046D01*
X274510Y298946D01*
X274506Y298845D01*
X274498Y298745D01*
X274486Y298645D01*
X274471Y298545D01*
X274451Y298446D01*
X274428Y298348D01*
X274401Y298251D01*
X274370Y298156D01*
X274336Y298061D01*
X274298Y297968D01*
X274256Y297876D01*
X274211Y297786D01*
X274162Y297698D01*
X274110Y297612D01*
X274055Y297528D01*
X273996Y297446D01*
X273935Y297366D01*
X273870Y297289D01*
X273802Y297215D01*
X273732Y297143D01*
X273659Y297074D01*
X273583Y297007D01*
X273504Y296944D01*
X273424Y296884D01*
X273341Y296827D01*
X273255Y296773D01*
X273168Y296723D01*
X273079Y296676D01*
X272988Y296633D01*
X272896Y296593D01*
X272802Y296557D01*
X272707Y296524D01*
X272610Y296495D01*
X272513Y296470D01*
X272414Y296449D01*
X272315Y296431D01*
X272215Y296418D01*
X272115Y296408D01*
X272015Y296402D01*
X271914Y296400D01*
X271914Y296399D02*
X269317Y296399D01*
D13*
X178050Y303020D02*
X127004Y303020D01*
X127004Y255780D02*
X178050Y255780D01*
D14*
X168490Y261366D02*
X168492Y261441D01*
X168498Y261516D01*
X168508Y261591D01*
X168521Y261665D01*
X168539Y261738D01*
X168560Y261810D01*
X168585Y261881D01*
X168614Y261950D01*
X168647Y262018D01*
X168682Y262084D01*
X168722Y262148D01*
X168764Y262210D01*
X168810Y262270D01*
X168859Y262327D01*
X168911Y262381D01*
X168965Y262433D01*
X169022Y262482D01*
X169082Y262528D01*
X169144Y262570D01*
X169208Y262610D01*
X169274Y262645D01*
X169342Y262678D01*
X169411Y262707D01*
X169482Y262732D01*
X169554Y262753D01*
X169627Y262771D01*
X169701Y262784D01*
X169776Y262794D01*
X169851Y262800D01*
X169926Y262802D01*
X170001Y262800D01*
X170076Y262794D01*
X170151Y262784D01*
X170225Y262771D01*
X170298Y262753D01*
X170370Y262732D01*
X170441Y262707D01*
X170510Y262678D01*
X170578Y262645D01*
X170644Y262610D01*
X170708Y262570D01*
X170770Y262528D01*
X170830Y262482D01*
X170887Y262433D01*
X170941Y262381D01*
X170993Y262327D01*
X171042Y262270D01*
X171088Y262210D01*
X171130Y262148D01*
X171170Y262084D01*
X171205Y262018D01*
X171238Y261950D01*
X171267Y261881D01*
X171292Y261810D01*
X171313Y261738D01*
X171331Y261665D01*
X171344Y261591D01*
X171354Y261516D01*
X171360Y261441D01*
X171362Y261366D01*
X171360Y261291D01*
X171354Y261216D01*
X171344Y261141D01*
X171331Y261067D01*
X171313Y260994D01*
X171292Y260922D01*
X171267Y260851D01*
X171238Y260782D01*
X171205Y260714D01*
X171170Y260648D01*
X171130Y260584D01*
X171088Y260522D01*
X171042Y260462D01*
X170993Y260405D01*
X170941Y260351D01*
X170887Y260299D01*
X170830Y260250D01*
X170770Y260204D01*
X170708Y260162D01*
X170644Y260122D01*
X170578Y260087D01*
X170510Y260054D01*
X170441Y260025D01*
X170370Y260000D01*
X170298Y259979D01*
X170225Y259961D01*
X170151Y259948D01*
X170076Y259938D01*
X170001Y259932D01*
X169926Y259930D01*
X169851Y259932D01*
X169776Y259938D01*
X169701Y259948D01*
X169627Y259961D01*
X169554Y259979D01*
X169482Y260000D01*
X169411Y260025D01*
X169342Y260054D01*
X169274Y260087D01*
X169208Y260122D01*
X169144Y260162D01*
X169082Y260204D01*
X169022Y260250D01*
X168965Y260299D01*
X168911Y260351D01*
X168859Y260405D01*
X168810Y260462D01*
X168764Y260522D01*
X168722Y260584D01*
X168682Y260648D01*
X168647Y260714D01*
X168614Y260782D01*
X168585Y260851D01*
X168560Y260922D01*
X168539Y260994D01*
X168521Y261067D01*
X168508Y261141D01*
X168498Y261216D01*
X168492Y261291D01*
X168490Y261366D01*
D12*
X159893Y267250D02*
X156083Y267250D01*
X159893Y266827D02*
X159893Y267674D01*
X156083Y267674D02*
X156083Y266827D01*
X159893Y269955D02*
X159893Y270802D01*
X159893Y269955D02*
X159891Y269897D01*
X159885Y269840D01*
X159875Y269783D01*
X159862Y269726D01*
X159844Y269671D01*
X159823Y269618D01*
X159798Y269565D01*
X159770Y269515D01*
X159738Y269467D01*
X159703Y269420D01*
X159665Y269377D01*
X159624Y269336D01*
X159581Y269298D01*
X159534Y269263D01*
X159486Y269231D01*
X159436Y269203D01*
X159383Y269178D01*
X159330Y269157D01*
X159275Y269139D01*
X159218Y269126D01*
X159161Y269116D01*
X159104Y269110D01*
X159046Y269108D01*
X159046Y269109D02*
X156930Y269109D01*
X156930Y269108D02*
X156872Y269110D01*
X156815Y269116D01*
X156758Y269126D01*
X156701Y269139D01*
X156646Y269157D01*
X156593Y269178D01*
X156540Y269203D01*
X156490Y269231D01*
X156442Y269263D01*
X156395Y269298D01*
X156352Y269336D01*
X156311Y269377D01*
X156273Y269420D01*
X156238Y269467D01*
X156206Y269515D01*
X156178Y269565D01*
X156153Y269618D01*
X156132Y269671D01*
X156114Y269726D01*
X156101Y269783D01*
X156091Y269840D01*
X156085Y269897D01*
X156083Y269955D01*
X156083Y270802D01*
X156930Y272166D02*
X156083Y273224D01*
X159893Y273224D01*
X159893Y272166D02*
X159893Y274283D01*
D14*
X279400Y247650D02*
X285750Y254000D01*
X298450Y254000D01*
X304800Y247650D01*
X304800Y234950D02*
X298450Y228600D01*
X285750Y228600D01*
X279400Y234950D01*
X247650Y254000D02*
X234950Y254000D01*
X247650Y254000D02*
X254000Y247650D01*
X254000Y234950D02*
X247650Y228600D01*
X254000Y247650D02*
X260350Y254000D01*
X273050Y254000D01*
X279400Y247650D01*
X279400Y234950D02*
X273050Y228600D01*
X260350Y228600D01*
X254000Y234950D01*
X228600Y234950D02*
X228600Y247650D01*
X234950Y254000D01*
X228600Y234950D02*
X234950Y228600D01*
X247650Y228600D01*
X304800Y234950D02*
X304800Y247650D01*
D16*
X232283Y262763D02*
X232283Y271653D01*
X232283Y262763D02*
X232281Y262663D01*
X232275Y262564D01*
X232265Y262464D01*
X232252Y262366D01*
X232234Y262267D01*
X232213Y262170D01*
X232188Y262074D01*
X232159Y261978D01*
X232126Y261884D01*
X232090Y261791D01*
X232050Y261700D01*
X232006Y261610D01*
X231959Y261522D01*
X231909Y261436D01*
X231855Y261352D01*
X231798Y261270D01*
X231738Y261191D01*
X231674Y261113D01*
X231608Y261039D01*
X231539Y260967D01*
X231467Y260898D01*
X231393Y260832D01*
X231315Y260768D01*
X231236Y260708D01*
X231154Y260651D01*
X231070Y260597D01*
X230984Y260547D01*
X230896Y260500D01*
X230806Y260456D01*
X230715Y260416D01*
X230622Y260380D01*
X230528Y260347D01*
X230432Y260318D01*
X230336Y260293D01*
X230239Y260272D01*
X230140Y260254D01*
X230042Y260241D01*
X229942Y260231D01*
X229843Y260225D01*
X229743Y260223D01*
X228473Y260223D01*
X238263Y260223D02*
X238263Y271653D01*
X241438Y271653D01*
X241549Y271651D01*
X241659Y271645D01*
X241770Y271636D01*
X241880Y271622D01*
X241989Y271605D01*
X242098Y271584D01*
X242206Y271559D01*
X242313Y271530D01*
X242419Y271498D01*
X242524Y271462D01*
X242627Y271422D01*
X242729Y271379D01*
X242830Y271332D01*
X242929Y271281D01*
X243026Y271228D01*
X243120Y271171D01*
X243213Y271110D01*
X243304Y271047D01*
X243393Y270980D01*
X243479Y270910D01*
X243562Y270837D01*
X243644Y270762D01*
X243722Y270684D01*
X243797Y270602D01*
X243870Y270519D01*
X243940Y270433D01*
X244007Y270344D01*
X244070Y270253D01*
X244131Y270160D01*
X244188Y270065D01*
X244241Y269969D01*
X244292Y269870D01*
X244339Y269769D01*
X244382Y269667D01*
X244422Y269564D01*
X244458Y269459D01*
X244490Y269353D01*
X244519Y269246D01*
X244544Y269138D01*
X244565Y269029D01*
X244582Y268920D01*
X244596Y268810D01*
X244605Y268699D01*
X244611Y268589D01*
X244613Y268478D01*
X244611Y268367D01*
X244605Y268257D01*
X244596Y268146D01*
X244582Y268036D01*
X244565Y267927D01*
X244544Y267818D01*
X244519Y267710D01*
X244490Y267603D01*
X244458Y267497D01*
X244422Y267392D01*
X244382Y267289D01*
X244339Y267187D01*
X244292Y267086D01*
X244241Y266987D01*
X244188Y266890D01*
X244131Y266796D01*
X244070Y266703D01*
X244007Y266612D01*
X243940Y266523D01*
X243870Y266437D01*
X243797Y266354D01*
X243722Y266272D01*
X243644Y266194D01*
X243562Y266119D01*
X243479Y266046D01*
X243393Y265976D01*
X243304Y265909D01*
X243213Y265846D01*
X243120Y265785D01*
X243025Y265728D01*
X242929Y265675D01*
X242830Y265624D01*
X242729Y265577D01*
X242627Y265534D01*
X242524Y265494D01*
X242419Y265458D01*
X242313Y265426D01*
X242206Y265397D01*
X242098Y265372D01*
X241989Y265351D01*
X241880Y265334D01*
X241770Y265320D01*
X241659Y265311D01*
X241549Y265305D01*
X241438Y265303D01*
X238263Y265303D01*
X252614Y271654D02*
X252718Y271652D01*
X252823Y271646D01*
X252927Y271637D01*
X253030Y271624D01*
X253133Y271606D01*
X253235Y271586D01*
X253337Y271561D01*
X253437Y271533D01*
X253537Y271501D01*
X253635Y271465D01*
X253732Y271426D01*
X253827Y271384D01*
X253921Y271338D01*
X254013Y271288D01*
X254103Y271236D01*
X254191Y271180D01*
X254277Y271120D01*
X254361Y271058D01*
X254442Y270993D01*
X254521Y270925D01*
X254598Y270853D01*
X254671Y270780D01*
X254743Y270703D01*
X254811Y270624D01*
X254876Y270543D01*
X254938Y270459D01*
X254998Y270373D01*
X255054Y270285D01*
X255106Y270195D01*
X255156Y270103D01*
X255202Y270009D01*
X255244Y269914D01*
X255283Y269817D01*
X255319Y269719D01*
X255351Y269619D01*
X255379Y269519D01*
X255404Y269417D01*
X255424Y269315D01*
X255442Y269212D01*
X255455Y269109D01*
X255464Y269005D01*
X255470Y268900D01*
X255472Y268796D01*
X252614Y271653D02*
X252496Y271651D01*
X252377Y271645D01*
X252259Y271636D01*
X252142Y271623D01*
X252025Y271605D01*
X251908Y271585D01*
X251792Y271560D01*
X251677Y271532D01*
X251564Y271499D01*
X251451Y271464D01*
X251339Y271424D01*
X251229Y271382D01*
X251120Y271335D01*
X251012Y271285D01*
X250907Y271232D01*
X250803Y271175D01*
X250701Y271115D01*
X250601Y271052D01*
X250503Y270985D01*
X250407Y270916D01*
X250314Y270843D01*
X250223Y270767D01*
X250134Y270689D01*
X250048Y270607D01*
X249965Y270523D01*
X249884Y270437D01*
X249807Y270347D01*
X249732Y270256D01*
X249660Y270162D01*
X249591Y270065D01*
X249526Y269967D01*
X249463Y269866D01*
X249404Y269763D01*
X249348Y269659D01*
X249296Y269553D01*
X249247Y269445D01*
X249202Y269336D01*
X249160Y269225D01*
X249122Y269113D01*
X254520Y266574D02*
X254596Y266649D01*
X254671Y266728D01*
X254742Y266809D01*
X254811Y266893D01*
X254876Y266979D01*
X254938Y267067D01*
X254998Y267157D01*
X255054Y267249D01*
X255107Y267344D01*
X255156Y267440D01*
X255202Y267538D01*
X255245Y267637D01*
X255284Y267738D01*
X255319Y267840D01*
X255351Y267943D01*
X255379Y268047D01*
X255404Y268152D01*
X255425Y268259D01*
X255442Y268365D01*
X255455Y268472D01*
X255464Y268580D01*
X255470Y268688D01*
X255472Y268796D01*
X254519Y266573D02*
X249122Y260223D01*
X255472Y260223D01*
D14*
X101600Y247650D02*
X95250Y254000D01*
X101600Y247650D02*
X101600Y234950D01*
X95250Y228600D01*
X82550Y228600D02*
X76200Y234950D01*
X76200Y247650D01*
X82550Y254000D01*
X101600Y285750D02*
X101600Y298450D01*
X101600Y285750D02*
X95250Y279400D01*
X82550Y279400D02*
X76200Y285750D01*
X95250Y279400D02*
X101600Y273050D01*
X101600Y260350D01*
X95250Y254000D01*
X82550Y254000D02*
X76200Y260350D01*
X76200Y273050D01*
X82550Y279400D01*
X101600Y323850D02*
X95250Y330200D01*
X101600Y323850D02*
X101600Y311150D01*
X95250Y304800D01*
X82550Y304800D02*
X76200Y311150D01*
X76200Y323850D01*
X82550Y330200D01*
X95250Y304800D02*
X101600Y298450D01*
X82550Y304800D02*
X76200Y298450D01*
X76200Y285750D01*
X101600Y361950D02*
X101600Y374650D01*
X101600Y361950D02*
X95250Y355600D01*
X82550Y355600D02*
X76200Y361950D01*
X95250Y355600D02*
X101600Y349250D01*
X101600Y336550D01*
X95250Y330200D01*
X82550Y330200D02*
X76200Y336550D01*
X76200Y349250D01*
X82550Y355600D01*
X82550Y381000D02*
X95250Y381000D01*
X101600Y374650D01*
X82550Y381000D02*
X76200Y374650D01*
X76200Y361950D01*
X82550Y228600D02*
X95250Y228600D01*
D16*
X107823Y357938D02*
X116713Y357938D01*
X116813Y357936D01*
X116912Y357930D01*
X117012Y357920D01*
X117110Y357907D01*
X117209Y357889D01*
X117306Y357868D01*
X117402Y357843D01*
X117498Y357814D01*
X117592Y357781D01*
X117685Y357745D01*
X117776Y357705D01*
X117866Y357661D01*
X117954Y357614D01*
X118040Y357564D01*
X118124Y357510D01*
X118206Y357453D01*
X118285Y357393D01*
X118363Y357329D01*
X118437Y357263D01*
X118509Y357194D01*
X118578Y357122D01*
X118644Y357048D01*
X118708Y356970D01*
X118768Y356891D01*
X118825Y356809D01*
X118879Y356725D01*
X118929Y356639D01*
X118976Y356551D01*
X119020Y356461D01*
X119060Y356370D01*
X119096Y356277D01*
X119129Y356183D01*
X119158Y356087D01*
X119183Y355991D01*
X119204Y355894D01*
X119222Y355795D01*
X119235Y355697D01*
X119245Y355597D01*
X119251Y355498D01*
X119253Y355398D01*
X119253Y354128D01*
X119253Y363919D02*
X107823Y363919D01*
X107823Y367094D01*
X107825Y367205D01*
X107831Y367315D01*
X107840Y367426D01*
X107854Y367536D01*
X107871Y367645D01*
X107892Y367754D01*
X107917Y367862D01*
X107946Y367969D01*
X107978Y368075D01*
X108014Y368180D01*
X108054Y368283D01*
X108097Y368385D01*
X108144Y368486D01*
X108195Y368585D01*
X108248Y368682D01*
X108305Y368776D01*
X108366Y368869D01*
X108429Y368960D01*
X108496Y369049D01*
X108566Y369135D01*
X108639Y369218D01*
X108714Y369300D01*
X108792Y369378D01*
X108874Y369453D01*
X108957Y369526D01*
X109043Y369596D01*
X109132Y369663D01*
X109223Y369726D01*
X109316Y369787D01*
X109411Y369844D01*
X109507Y369897D01*
X109606Y369948D01*
X109707Y369995D01*
X109809Y370038D01*
X109912Y370078D01*
X110017Y370114D01*
X110123Y370146D01*
X110230Y370175D01*
X110338Y370200D01*
X110447Y370221D01*
X110556Y370238D01*
X110666Y370252D01*
X110777Y370261D01*
X110887Y370267D01*
X110998Y370269D01*
X111109Y370267D01*
X111219Y370261D01*
X111330Y370252D01*
X111440Y370238D01*
X111549Y370221D01*
X111658Y370200D01*
X111766Y370175D01*
X111873Y370146D01*
X111979Y370114D01*
X112084Y370078D01*
X112187Y370038D01*
X112289Y369995D01*
X112390Y369948D01*
X112489Y369897D01*
X112586Y369844D01*
X112680Y369787D01*
X112773Y369726D01*
X112864Y369663D01*
X112953Y369596D01*
X113039Y369526D01*
X113122Y369453D01*
X113204Y369378D01*
X113282Y369300D01*
X113357Y369218D01*
X113430Y369135D01*
X113500Y369049D01*
X113567Y368960D01*
X113630Y368869D01*
X113691Y368776D01*
X113748Y368682D01*
X113801Y368585D01*
X113852Y368486D01*
X113899Y368385D01*
X113942Y368283D01*
X113982Y368180D01*
X114018Y368075D01*
X114050Y367969D01*
X114079Y367862D01*
X114104Y367754D01*
X114125Y367645D01*
X114142Y367536D01*
X114156Y367426D01*
X114165Y367315D01*
X114171Y367205D01*
X114173Y367094D01*
X114173Y363919D01*
X119253Y374777D02*
X119253Y377952D01*
X119251Y378063D01*
X119245Y378173D01*
X119236Y378284D01*
X119222Y378394D01*
X119205Y378503D01*
X119184Y378612D01*
X119159Y378720D01*
X119130Y378827D01*
X119098Y378933D01*
X119062Y379038D01*
X119022Y379141D01*
X118979Y379243D01*
X118932Y379344D01*
X118881Y379443D01*
X118828Y379540D01*
X118771Y379634D01*
X118710Y379727D01*
X118647Y379818D01*
X118580Y379907D01*
X118510Y379993D01*
X118437Y380076D01*
X118362Y380158D01*
X118284Y380236D01*
X118202Y380311D01*
X118119Y380384D01*
X118033Y380454D01*
X117944Y380521D01*
X117853Y380584D01*
X117760Y380645D01*
X117666Y380702D01*
X117569Y380755D01*
X117470Y380806D01*
X117369Y380853D01*
X117267Y380896D01*
X117164Y380936D01*
X117059Y380972D01*
X116953Y381004D01*
X116846Y381033D01*
X116738Y381058D01*
X116629Y381079D01*
X116520Y381096D01*
X116410Y381110D01*
X116299Y381119D01*
X116189Y381125D01*
X116078Y381127D01*
X115967Y381125D01*
X115857Y381119D01*
X115746Y381110D01*
X115636Y381096D01*
X115527Y381079D01*
X115418Y381058D01*
X115310Y381033D01*
X115203Y381004D01*
X115097Y380972D01*
X114992Y380936D01*
X114889Y380896D01*
X114787Y380853D01*
X114686Y380806D01*
X114587Y380755D01*
X114491Y380702D01*
X114396Y380645D01*
X114303Y380584D01*
X114212Y380521D01*
X114123Y380454D01*
X114037Y380384D01*
X113954Y380311D01*
X113872Y380236D01*
X113794Y380158D01*
X113719Y380076D01*
X113646Y379993D01*
X113576Y379907D01*
X113509Y379818D01*
X113446Y379727D01*
X113385Y379634D01*
X113328Y379540D01*
X113275Y379443D01*
X113224Y379344D01*
X113177Y379243D01*
X113134Y379141D01*
X113094Y379038D01*
X113058Y378933D01*
X113026Y378827D01*
X112997Y378720D01*
X112972Y378612D01*
X112951Y378503D01*
X112934Y378394D01*
X112920Y378284D01*
X112911Y378173D01*
X112905Y378063D01*
X112903Y377952D01*
X107823Y378587D02*
X107823Y374777D01*
X107823Y378587D02*
X107825Y378687D01*
X107831Y378786D01*
X107841Y378886D01*
X107854Y378984D01*
X107872Y379083D01*
X107893Y379180D01*
X107918Y379276D01*
X107947Y379372D01*
X107980Y379466D01*
X108016Y379559D01*
X108056Y379650D01*
X108100Y379740D01*
X108147Y379828D01*
X108197Y379914D01*
X108251Y379998D01*
X108308Y380080D01*
X108368Y380159D01*
X108432Y380237D01*
X108498Y380311D01*
X108567Y380383D01*
X108639Y380452D01*
X108713Y380518D01*
X108791Y380582D01*
X108870Y380642D01*
X108952Y380699D01*
X109036Y380753D01*
X109122Y380803D01*
X109210Y380850D01*
X109300Y380894D01*
X109391Y380934D01*
X109484Y380970D01*
X109578Y381003D01*
X109674Y381032D01*
X109770Y381057D01*
X109867Y381078D01*
X109966Y381096D01*
X110064Y381109D01*
X110164Y381119D01*
X110263Y381125D01*
X110363Y381127D01*
X110463Y381125D01*
X110562Y381119D01*
X110662Y381109D01*
X110760Y381096D01*
X110859Y381078D01*
X110956Y381057D01*
X111052Y381032D01*
X111148Y381003D01*
X111242Y380970D01*
X111335Y380934D01*
X111426Y380894D01*
X111516Y380850D01*
X111604Y380803D01*
X111690Y380753D01*
X111774Y380699D01*
X111856Y380642D01*
X111935Y380582D01*
X112013Y380518D01*
X112087Y380452D01*
X112159Y380383D01*
X112228Y380311D01*
X112294Y380237D01*
X112358Y380159D01*
X112418Y380080D01*
X112475Y379998D01*
X112529Y379914D01*
X112579Y379828D01*
X112626Y379740D01*
X112670Y379650D01*
X112710Y379559D01*
X112746Y379466D01*
X112779Y379372D01*
X112808Y379276D01*
X112833Y379180D01*
X112854Y379083D01*
X112872Y378984D01*
X112885Y378886D01*
X112895Y378786D01*
X112901Y378687D01*
X112903Y378587D01*
X112903Y376047D01*
D14*
X214200Y296700D02*
X214200Y292100D01*
X214200Y287500D01*
X214200Y292100D02*
X217300Y294438D01*
X214354Y291846D02*
X217300Y289916D01*
D12*
X216213Y284988D02*
X216213Y281178D01*
X217906Y281178D01*
X219383Y281178D02*
X221076Y281178D01*
X219383Y281178D02*
X219383Y284988D01*
X221076Y284988D01*
X220653Y283295D02*
X219383Y283295D01*
X222546Y284988D02*
X222546Y281178D01*
X222546Y284988D02*
X223605Y284988D01*
X223669Y284986D01*
X223733Y284980D01*
X223796Y284971D01*
X223858Y284957D01*
X223920Y284940D01*
X223980Y284919D01*
X224039Y284895D01*
X224097Y284867D01*
X224152Y284835D01*
X224206Y284801D01*
X224257Y284763D01*
X224307Y284722D01*
X224353Y284678D01*
X224397Y284632D01*
X224438Y284582D01*
X224476Y284531D01*
X224510Y284477D01*
X224542Y284422D01*
X224570Y284364D01*
X224594Y284305D01*
X224615Y284245D01*
X224632Y284183D01*
X224646Y284121D01*
X224655Y284058D01*
X224661Y283994D01*
X224663Y283930D01*
X224663Y282236D01*
X224661Y282172D01*
X224655Y282108D01*
X224646Y282045D01*
X224632Y281983D01*
X224615Y281921D01*
X224594Y281861D01*
X224570Y281802D01*
X224542Y281744D01*
X224510Y281689D01*
X224476Y281635D01*
X224438Y281584D01*
X224397Y281534D01*
X224353Y281488D01*
X224307Y281444D01*
X224257Y281403D01*
X224206Y281365D01*
X224152Y281331D01*
X224097Y281299D01*
X224039Y281271D01*
X223980Y281247D01*
X223920Y281226D01*
X223858Y281209D01*
X223796Y281195D01*
X223733Y281186D01*
X223669Y281180D01*
X223605Y281178D01*
X222546Y281178D01*
D14*
X214200Y271300D02*
X214200Y266700D01*
X214200Y262100D01*
X214200Y266700D02*
X217300Y269038D01*
X214354Y266446D02*
X217300Y264516D01*
D12*
X214283Y259588D02*
X214283Y255778D01*
X214283Y259588D02*
X215341Y259588D01*
X215405Y259586D01*
X215469Y259580D01*
X215532Y259571D01*
X215594Y259557D01*
X215656Y259540D01*
X215716Y259519D01*
X215775Y259495D01*
X215833Y259467D01*
X215888Y259435D01*
X215942Y259401D01*
X215993Y259363D01*
X216043Y259322D01*
X216089Y259278D01*
X216133Y259232D01*
X216174Y259182D01*
X216212Y259131D01*
X216246Y259077D01*
X216278Y259022D01*
X216306Y258964D01*
X216330Y258905D01*
X216351Y258845D01*
X216368Y258783D01*
X216382Y258721D01*
X216391Y258658D01*
X216397Y258594D01*
X216399Y258530D01*
X216397Y258466D01*
X216391Y258402D01*
X216382Y258339D01*
X216368Y258277D01*
X216351Y258215D01*
X216330Y258155D01*
X216306Y258096D01*
X216278Y258038D01*
X216246Y257983D01*
X216212Y257929D01*
X216174Y257878D01*
X216133Y257828D01*
X216089Y257782D01*
X216043Y257738D01*
X215993Y257697D01*
X215942Y257659D01*
X215888Y257625D01*
X215833Y257593D01*
X215775Y257565D01*
X215716Y257541D01*
X215656Y257520D01*
X215594Y257503D01*
X215532Y257489D01*
X215469Y257480D01*
X215405Y257474D01*
X215341Y257472D01*
X215341Y257471D02*
X214283Y257471D01*
X217623Y259588D02*
X218470Y255778D01*
X219317Y258318D01*
X220163Y255778D01*
X221010Y259588D01*
X222546Y259588D02*
X222546Y255778D01*
X222546Y259588D02*
X223605Y259588D01*
X223669Y259586D01*
X223733Y259580D01*
X223796Y259571D01*
X223858Y259557D01*
X223920Y259540D01*
X223980Y259519D01*
X224039Y259495D01*
X224097Y259467D01*
X224152Y259435D01*
X224206Y259401D01*
X224257Y259363D01*
X224307Y259322D01*
X224353Y259278D01*
X224397Y259232D01*
X224438Y259182D01*
X224476Y259131D01*
X224510Y259077D01*
X224542Y259022D01*
X224570Y258964D01*
X224594Y258905D01*
X224615Y258845D01*
X224632Y258783D01*
X224646Y258721D01*
X224655Y258658D01*
X224661Y258594D01*
X224663Y258530D01*
X224661Y258466D01*
X224655Y258402D01*
X224646Y258339D01*
X224632Y258277D01*
X224615Y258215D01*
X224594Y258155D01*
X224570Y258096D01*
X224542Y258038D01*
X224510Y257983D01*
X224476Y257929D01*
X224438Y257878D01*
X224397Y257828D01*
X224353Y257782D01*
X224307Y257738D01*
X224257Y257697D01*
X224206Y257659D01*
X224152Y257625D01*
X224097Y257593D01*
X224039Y257565D01*
X223980Y257541D01*
X223920Y257520D01*
X223858Y257503D01*
X223796Y257489D01*
X223733Y257480D01*
X223669Y257474D01*
X223605Y257472D01*
X223605Y257471D02*
X222546Y257471D01*
X223816Y257471D02*
X224663Y255778D01*
D17*
X254000Y342900D03*
D12*
X245237Y350012D02*
X245237Y353822D01*
X246295Y353822D01*
X246359Y353820D01*
X246423Y353814D01*
X246486Y353805D01*
X246548Y353791D01*
X246610Y353774D01*
X246670Y353753D01*
X246729Y353729D01*
X246787Y353701D01*
X246842Y353669D01*
X246896Y353635D01*
X246947Y353597D01*
X246997Y353556D01*
X247043Y353512D01*
X247087Y353466D01*
X247128Y353416D01*
X247166Y353365D01*
X247200Y353311D01*
X247232Y353256D01*
X247260Y353198D01*
X247284Y353139D01*
X247305Y353079D01*
X247322Y353017D01*
X247336Y352955D01*
X247345Y352892D01*
X247351Y352828D01*
X247353Y352764D01*
X247351Y352700D01*
X247345Y352636D01*
X247336Y352573D01*
X247322Y352511D01*
X247305Y352449D01*
X247284Y352389D01*
X247260Y352330D01*
X247232Y352272D01*
X247200Y352217D01*
X247166Y352163D01*
X247128Y352112D01*
X247087Y352062D01*
X247043Y352016D01*
X246997Y351972D01*
X246947Y351931D01*
X246896Y351893D01*
X246842Y351859D01*
X246787Y351827D01*
X246729Y351799D01*
X246670Y351775D01*
X246610Y351754D01*
X246548Y351737D01*
X246486Y351723D01*
X246423Y351714D01*
X246359Y351708D01*
X246295Y351706D01*
X246295Y351705D02*
X245237Y351705D01*
X246507Y351705D02*
X247354Y350012D01*
X248874Y352975D02*
X249932Y353822D01*
X249932Y350012D01*
X248874Y350012D02*
X250990Y350012D01*
D17*
X127000Y241300D03*
D12*
X118237Y248412D02*
X118237Y252222D01*
X119295Y252222D01*
X119359Y252220D01*
X119423Y252214D01*
X119486Y252205D01*
X119548Y252191D01*
X119610Y252174D01*
X119670Y252153D01*
X119729Y252129D01*
X119787Y252101D01*
X119842Y252069D01*
X119896Y252035D01*
X119947Y251997D01*
X119997Y251956D01*
X120043Y251912D01*
X120087Y251866D01*
X120128Y251816D01*
X120166Y251765D01*
X120200Y251711D01*
X120232Y251656D01*
X120260Y251598D01*
X120284Y251539D01*
X120305Y251479D01*
X120322Y251417D01*
X120336Y251355D01*
X120345Y251292D01*
X120351Y251228D01*
X120353Y251164D01*
X120351Y251100D01*
X120345Y251036D01*
X120336Y250973D01*
X120322Y250911D01*
X120305Y250849D01*
X120284Y250789D01*
X120260Y250730D01*
X120232Y250672D01*
X120200Y250617D01*
X120166Y250563D01*
X120128Y250512D01*
X120087Y250462D01*
X120043Y250416D01*
X119997Y250372D01*
X119947Y250331D01*
X119896Y250293D01*
X119842Y250259D01*
X119787Y250227D01*
X119729Y250199D01*
X119670Y250175D01*
X119610Y250154D01*
X119548Y250137D01*
X119486Y250123D01*
X119423Y250114D01*
X119359Y250108D01*
X119295Y250106D01*
X119295Y250105D02*
X118237Y250105D01*
X119507Y250105D02*
X120354Y248412D01*
X123991Y251270D02*
X123989Y251330D01*
X123983Y251389D01*
X123974Y251449D01*
X123961Y251507D01*
X123944Y251564D01*
X123924Y251621D01*
X123900Y251676D01*
X123873Y251729D01*
X123843Y251781D01*
X123809Y251830D01*
X123772Y251877D01*
X123733Y251922D01*
X123690Y251965D01*
X123645Y252004D01*
X123598Y252041D01*
X123549Y252075D01*
X123497Y252105D01*
X123444Y252132D01*
X123389Y252156D01*
X123332Y252176D01*
X123275Y252193D01*
X123217Y252206D01*
X123157Y252215D01*
X123098Y252221D01*
X123038Y252223D01*
X123038Y252222D02*
X122971Y252220D01*
X122904Y252215D01*
X122838Y252206D01*
X122772Y252193D01*
X122708Y252177D01*
X122644Y252157D01*
X122581Y252133D01*
X122519Y252107D01*
X122460Y252077D01*
X122402Y252044D01*
X122345Y252007D01*
X122291Y251968D01*
X122239Y251926D01*
X122190Y251881D01*
X122143Y251833D01*
X122099Y251783D01*
X122057Y251730D01*
X122019Y251675D01*
X121983Y251619D01*
X121951Y251560D01*
X121922Y251500D01*
X121896Y251438D01*
X121874Y251375D01*
X123673Y250529D02*
X123714Y250571D01*
X123753Y250616D01*
X123790Y250662D01*
X123824Y250711D01*
X123855Y250761D01*
X123882Y250813D01*
X123907Y250867D01*
X123929Y250922D01*
X123948Y250978D01*
X123963Y251035D01*
X123975Y251093D01*
X123983Y251152D01*
X123988Y251211D01*
X123990Y251270D01*
X123673Y250529D02*
X121874Y248412D01*
X123990Y248412D01*
D17*
X254000Y368300D03*
D12*
X245237Y375412D02*
X245237Y379222D01*
X246295Y379222D01*
X246359Y379220D01*
X246423Y379214D01*
X246486Y379205D01*
X246548Y379191D01*
X246610Y379174D01*
X246670Y379153D01*
X246729Y379129D01*
X246787Y379101D01*
X246842Y379069D01*
X246896Y379035D01*
X246947Y378997D01*
X246997Y378956D01*
X247043Y378912D01*
X247087Y378866D01*
X247128Y378816D01*
X247166Y378765D01*
X247200Y378711D01*
X247232Y378656D01*
X247260Y378598D01*
X247284Y378539D01*
X247305Y378479D01*
X247322Y378417D01*
X247336Y378355D01*
X247345Y378292D01*
X247351Y378228D01*
X247353Y378164D01*
X247351Y378100D01*
X247345Y378036D01*
X247336Y377973D01*
X247322Y377911D01*
X247305Y377849D01*
X247284Y377789D01*
X247260Y377730D01*
X247232Y377672D01*
X247200Y377617D01*
X247166Y377563D01*
X247128Y377512D01*
X247087Y377462D01*
X247043Y377416D01*
X246997Y377372D01*
X246947Y377331D01*
X246896Y377293D01*
X246842Y377259D01*
X246787Y377227D01*
X246729Y377199D01*
X246670Y377175D01*
X246610Y377154D01*
X246548Y377137D01*
X246486Y377123D01*
X246423Y377114D01*
X246359Y377108D01*
X246295Y377106D01*
X246295Y377105D02*
X245237Y377105D01*
X246507Y377105D02*
X247354Y375412D01*
X248874Y375412D02*
X249932Y375412D01*
X249996Y375414D01*
X250060Y375420D01*
X250123Y375429D01*
X250185Y375443D01*
X250247Y375460D01*
X250307Y375481D01*
X250366Y375505D01*
X250424Y375533D01*
X250479Y375565D01*
X250533Y375599D01*
X250584Y375637D01*
X250634Y375678D01*
X250680Y375722D01*
X250724Y375768D01*
X250765Y375818D01*
X250803Y375869D01*
X250837Y375923D01*
X250869Y375978D01*
X250897Y376036D01*
X250921Y376095D01*
X250942Y376155D01*
X250959Y376217D01*
X250973Y376279D01*
X250982Y376342D01*
X250988Y376406D01*
X250990Y376470D01*
X250988Y376534D01*
X250982Y376598D01*
X250973Y376661D01*
X250959Y376723D01*
X250942Y376785D01*
X250921Y376845D01*
X250897Y376904D01*
X250869Y376962D01*
X250837Y377017D01*
X250803Y377071D01*
X250765Y377122D01*
X250724Y377172D01*
X250680Y377218D01*
X250634Y377262D01*
X250584Y377303D01*
X250533Y377341D01*
X250479Y377375D01*
X250424Y377407D01*
X250366Y377435D01*
X250307Y377459D01*
X250247Y377480D01*
X250185Y377497D01*
X250123Y377511D01*
X250060Y377520D01*
X249996Y377526D01*
X249932Y377528D01*
X250144Y379222D02*
X248874Y379222D01*
X250144Y379222D02*
X250201Y379220D01*
X250257Y379214D01*
X250313Y379205D01*
X250368Y379192D01*
X250422Y379175D01*
X250475Y379155D01*
X250526Y379131D01*
X250576Y379104D01*
X250623Y379073D01*
X250669Y379040D01*
X250712Y379003D01*
X250753Y378964D01*
X250791Y378922D01*
X250826Y378877D01*
X250858Y378831D01*
X250887Y378782D01*
X250912Y378732D01*
X250934Y378679D01*
X250953Y378626D01*
X250968Y378571D01*
X250979Y378516D01*
X250987Y378460D01*
X250991Y378403D01*
X250991Y378347D01*
X250987Y378290D01*
X250979Y378234D01*
X250968Y378179D01*
X250953Y378124D01*
X250934Y378071D01*
X250912Y378018D01*
X250887Y377968D01*
X250858Y377919D01*
X250826Y377873D01*
X250791Y377828D01*
X250753Y377786D01*
X250712Y377747D01*
X250669Y377710D01*
X250623Y377677D01*
X250576Y377646D01*
X250526Y377619D01*
X250475Y377595D01*
X250422Y377575D01*
X250368Y377558D01*
X250313Y377545D01*
X250257Y377536D01*
X250201Y377530D01*
X250144Y377528D01*
X250144Y377529D02*
X249297Y377529D01*
D17*
X292100Y342900D03*
D12*
X283337Y350012D02*
X283337Y353822D01*
X284395Y353822D01*
X284459Y353820D01*
X284523Y353814D01*
X284586Y353805D01*
X284648Y353791D01*
X284710Y353774D01*
X284770Y353753D01*
X284829Y353729D01*
X284887Y353701D01*
X284942Y353669D01*
X284996Y353635D01*
X285047Y353597D01*
X285097Y353556D01*
X285143Y353512D01*
X285187Y353466D01*
X285228Y353416D01*
X285266Y353365D01*
X285300Y353311D01*
X285332Y353256D01*
X285360Y353198D01*
X285384Y353139D01*
X285405Y353079D01*
X285422Y353017D01*
X285436Y352955D01*
X285445Y352892D01*
X285451Y352828D01*
X285453Y352764D01*
X285451Y352700D01*
X285445Y352636D01*
X285436Y352573D01*
X285422Y352511D01*
X285405Y352449D01*
X285384Y352389D01*
X285360Y352330D01*
X285332Y352272D01*
X285300Y352217D01*
X285266Y352163D01*
X285228Y352112D01*
X285187Y352062D01*
X285143Y352016D01*
X285097Y351972D01*
X285047Y351931D01*
X284996Y351893D01*
X284942Y351859D01*
X284887Y351827D01*
X284829Y351799D01*
X284770Y351775D01*
X284710Y351754D01*
X284648Y351737D01*
X284586Y351723D01*
X284523Y351714D01*
X284459Y351708D01*
X284395Y351706D01*
X284395Y351705D02*
X283337Y351705D01*
X284607Y351705D02*
X285454Y350012D01*
X286974Y350859D02*
X287820Y353822D01*
X286974Y350859D02*
X289090Y350859D01*
X288455Y351705D02*
X288455Y350012D01*
D17*
X203200Y241300D03*
D12*
X194437Y248412D02*
X194437Y252222D01*
X195495Y252222D01*
X195559Y252220D01*
X195623Y252214D01*
X195686Y252205D01*
X195748Y252191D01*
X195810Y252174D01*
X195870Y252153D01*
X195929Y252129D01*
X195987Y252101D01*
X196042Y252069D01*
X196096Y252035D01*
X196147Y251997D01*
X196197Y251956D01*
X196243Y251912D01*
X196287Y251866D01*
X196328Y251816D01*
X196366Y251765D01*
X196400Y251711D01*
X196432Y251656D01*
X196460Y251598D01*
X196484Y251539D01*
X196505Y251479D01*
X196522Y251417D01*
X196536Y251355D01*
X196545Y251292D01*
X196551Y251228D01*
X196553Y251164D01*
X196551Y251100D01*
X196545Y251036D01*
X196536Y250973D01*
X196522Y250911D01*
X196505Y250849D01*
X196484Y250789D01*
X196460Y250730D01*
X196432Y250672D01*
X196400Y250617D01*
X196366Y250563D01*
X196328Y250512D01*
X196287Y250462D01*
X196243Y250416D01*
X196197Y250372D01*
X196147Y250331D01*
X196096Y250293D01*
X196042Y250259D01*
X195987Y250227D01*
X195929Y250199D01*
X195870Y250175D01*
X195810Y250154D01*
X195748Y250137D01*
X195686Y250123D01*
X195623Y250114D01*
X195559Y250108D01*
X195495Y250106D01*
X195495Y250105D02*
X194437Y250105D01*
X195707Y250105D02*
X196554Y248412D01*
X198074Y248412D02*
X199344Y248412D01*
X199399Y248414D01*
X199455Y248419D01*
X199509Y248428D01*
X199563Y248441D01*
X199616Y248457D01*
X199668Y248476D01*
X199719Y248499D01*
X199768Y248525D01*
X199815Y248555D01*
X199860Y248587D01*
X199902Y248622D01*
X199943Y248660D01*
X199981Y248701D01*
X200016Y248743D01*
X200048Y248788D01*
X200078Y248836D01*
X200104Y248884D01*
X200127Y248935D01*
X200146Y248987D01*
X200162Y249040D01*
X200175Y249094D01*
X200184Y249148D01*
X200189Y249204D01*
X200191Y249259D01*
X200190Y249259D02*
X200190Y249682D01*
X200191Y249682D02*
X200189Y249737D01*
X200184Y249793D01*
X200175Y249847D01*
X200162Y249901D01*
X200146Y249954D01*
X200127Y250006D01*
X200104Y250057D01*
X200078Y250106D01*
X200048Y250153D01*
X200016Y250198D01*
X199981Y250240D01*
X199943Y250281D01*
X199902Y250319D01*
X199860Y250354D01*
X199815Y250386D01*
X199768Y250416D01*
X199719Y250442D01*
X199668Y250465D01*
X199616Y250484D01*
X199563Y250500D01*
X199509Y250513D01*
X199455Y250522D01*
X199399Y250527D01*
X199344Y250529D01*
X198074Y250529D01*
X198074Y252222D01*
X200190Y252222D01*
D14*
X186690Y375670D02*
X126746Y375666D01*
X186690Y375670D02*
X186690Y310130D01*
X126746Y310134D01*
D18*
X191516Y342900D03*
D15*
X171422Y304292D02*
X175316Y292608D01*
X179211Y304292D01*
X183501Y301696D02*
X186746Y304292D01*
X186746Y292608D01*
X183501Y292608D02*
X189992Y292608D01*
D14*
X381000Y244800D02*
X381000Y364800D01*
X381000Y244800D02*
X368800Y244800D01*
X368800Y364800D02*
X381000Y364800D01*
X338800Y344800D02*
X338800Y264800D01*
D16*
X452536Y242465D02*
X452536Y238711D01*
X452534Y238646D01*
X452528Y238582D01*
X452518Y238518D01*
X452505Y238454D01*
X452487Y238392D01*
X452466Y238331D01*
X452442Y238271D01*
X452413Y238213D01*
X452381Y238156D01*
X452346Y238102D01*
X452308Y238050D01*
X452266Y238000D01*
X452222Y237953D01*
X452175Y237909D01*
X452125Y237867D01*
X452073Y237829D01*
X452019Y237794D01*
X451962Y237762D01*
X451904Y237733D01*
X451844Y237709D01*
X451783Y237688D01*
X451721Y237670D01*
X451657Y237657D01*
X451593Y237647D01*
X451529Y237641D01*
X451464Y237639D01*
X450927Y237639D01*
X455484Y241393D02*
X456824Y242465D01*
X456824Y237639D01*
X455484Y237639D02*
X458165Y237639D01*
M02*
