G04 EAGLE Gerber RS-274X export*
G75*
%MOMM*%
%FSLAX34Y34*%
%LPD*%
%INSoldermask Top*%
%IPPOS*%
%AMOC8*
5,1,8,0,0,1.08239X$1,22.5*%
G01*
%ADD10R,0.903200X1.103200*%
%ADD11R,1.003200X1.403200*%
%ADD12R,0.833200X1.033200*%
%ADD13R,1.603200X1.603200*%
%ADD14R,2.413000X0.812800*%
%ADD15C,2.082800*%
%ADD16R,1.003200X1.003200*%
%ADD17R,6.403200X6.003200*%
%ADD18R,3.203200X1.803200*%
%ADD19R,2.703200X1.003200*%
%ADD20C,1.981200*%
%ADD21C,1.303200*%
%ADD22C,1.003200*%
%ADD23C,0.959600*%


D10*
X285600Y368300D03*
X298600Y368300D03*
D11*
X245000Y317500D03*
X263000Y317500D03*
D12*
X153600Y241300D03*
X176600Y241300D03*
X280600Y317500D03*
X303600Y317500D03*
D13*
X247700Y279400D03*
X285700Y279400D03*
D14*
X186182Y260350D03*
X186182Y273050D03*
X186182Y285750D03*
X186182Y298450D03*
X118872Y298450D03*
X118872Y285750D03*
X118872Y273050D03*
X118872Y260350D03*
D15*
X241300Y241300D03*
X266700Y241300D03*
X292100Y241300D03*
X88900Y368300D03*
X88900Y342900D03*
X88900Y317500D03*
X88900Y292100D03*
X88900Y266700D03*
X88900Y241300D03*
D16*
X208400Y292100D03*
X223400Y292100D03*
X208400Y266700D03*
X223400Y266700D03*
D10*
X247500Y342900D03*
X260500Y342900D03*
X120500Y241300D03*
X133500Y241300D03*
X247500Y368300D03*
X260500Y368300D03*
X285600Y342900D03*
X298600Y342900D03*
X196700Y241300D03*
X209700Y241300D03*
D17*
X141300Y342900D03*
D18*
X213100Y320100D03*
X213100Y365700D03*
D19*
X322300Y294530D03*
X322300Y315070D03*
X322300Y269292D03*
X322300Y339800D03*
D20*
X341610Y246300D02*
X359390Y246300D01*
X359390Y363300D02*
X341610Y363300D01*
D21*
X349800Y282300D03*
X349800Y327300D03*
D22*
X346500Y363300D03*
X342500Y363300D03*
X354500Y363300D03*
X358500Y363300D03*
X346500Y246300D03*
X342500Y246300D03*
X354500Y246300D03*
X358500Y246300D03*
D23*
X153924Y259080D03*
X234696Y339852D03*
X297180Y332232D03*
X312420Y304800D03*
X111252Y248412D03*
X208788Y252984D03*
X262128Y297180D03*
X144780Y260604D03*
X192024Y307848D03*
X248412Y356616D03*
X208788Y277368D03*
X284988Y330708D03*
X163068Y259080D03*
M02*
